<?xml version="1.0" encoding="utf-8"?>
<!-- Generator: Adobe Illustrator 22.0.1, SVG Export Plug-In . SVG Version: 6.00 Build 0)  -->
<svg version="1.1" xmlns="http://www.w3.org/2000/svg" xmlns:xlink="http://www.w3.org/1999/xlink" x="0px" y="0px"
	 viewBox="0 0 247.8 74.3" style="enable-background:new 0 0 247.8 74.3;" xml:space="preserve">
<style type="text/css">
	.st0{display:none;}
	.st1{display:inline;}
	.st2{fill:#CCCED1;}
</style>
<g id="Layer_1">
	<g id="Layer_1_1_" class="st0">
		<g class="st1">
			<g>
				<g>
					<path d="M53,40.6c0.1,0.1,0.3,0.2,0.5,0l2.9-2.8c0.1-0.1,0.1-0.3,0-0.5l-5.6-6.2c-0.1-0.1-0.3-0.4-0.3-0.6l-2.6-8.9
						c-0.1-0.2-0.2-0.4-0.4-0.4l-8.1-3c-0.2-0.1-0.4,0-0.6,0.1l-9.5,9.4c-0.1,0.1-0.3,0.4-0.4,0.6l-3.3,8.3c-0.1,0.2,0,0.4,0.2,0.5
						l3.1,1.6c0.2,0.1,0.4,0,0.4-0.2l3.3-8c0.1-0.2,0.2-0.4,0.4-0.6l3.7-3.6c0.1-0.1,0.2-0.1,0.2,0.1l-6.3,25c0,0.2-0.2,0.5-0.3,0.6
						l-8.1,12.9c-0.1,0.2-0.1,0.4,0.1,0.5l4,2.9c0.2,0.1,0.4,0.1,0.5-0.1l8.8-12.9c0.1-0.2,0.2-0.4,0.3-0.6l2.8-9.3
						c0.1-0.2,0.2-0.2,0.3,0l4.8,8.6c0.1,0.2,0.2,0.4,0.3,0.6l4.2,13.2c0.1,0.2,0.2,0.3,0.4,0.2l4.8-1.4c0.2-0.1,0.3-0.2,0.2-0.4
						l-4.5-14C49.1,52,49,51.7,49,51.6l-6-13.2c-0.1-0.2-0.1-0.5-0.1-0.6l1.8-9.4c0-0.2,0.1-0.2,0.2,0l2.7,5.3
						c0.1,0.2,0.3,0.4,0.4,0.6L53,40.6z"/>
				</g>
			</g>
			<path d="M48.8,13.5c0,2.5-2,4.4-4.4,4.4c-2.5,0-4.4-2-4.4-4.4c0-2.5,2-4.4,4.4-4.4S48.8,11.1,48.8,13.5z"/>
		</g>
	</g>
	<g id="Layer_2_1_" class="st0">
		<g class="st1">
			<g>
				<g>
					<path d="M52.8,40.3c0.1,0.1,0.3,0.2,0.5,0l2.9-2.8c0.1-0.1,0.1-0.3,0-0.5l-5.6-6.2c-0.1-0.1-0.3-0.4-0.3-0.6l-2.6-8.9
						c-0.1-0.2-0.2-0.4-0.4-0.4l-8.1-3c-0.2-0.1-0.4,0-0.6,0.1l-9.5,9.4c-0.1,0.1-0.3,0.4-0.4,0.6l-3.3,8.3c-0.1,0.2,0,0.4,0.2,0.5
						l3.1,1.6c0.2,0.1,0.4,0,0.4-0.2l3.3-8c0.1-0.2,0.2-0.4,0.4-0.6l3.7-3.6c0.1-0.1,0.2-0.1,0.2,0.1l-2,10.4c0,0.2-0.1,0.5-0.2,0.6
						l-7.2,12.4c-0.1,0.2,0,0.4,0.1,0.5l2.4,1.8c0.1,0.1,0.2,0.3,0.1,0.5L22,64.8c-0.1,0.2-0.1,0.4,0.1,0.5l4,2.9
						c0.2,0.1,0.4,0.1,0.5-0.1l8.8-12.9c0.1-0.2,0.3-0.3,0.5-0.3l3.5-0.2c0.2,0,0.5,0,0.7-0.1l3.2-0.4c0.2,0,0.4,0.1,0.4,0.3
						l4.2,13.2c0.1,0.2,0.2,0.3,0.4,0.2l4.8-1.4c0.2-0.1,0.3-0.2,0.2-0.4l-4.5-14c-0.1-0.2-0.2-0.5-0.2-0.6L43,38.3
						c-0.1-0.2-0.1-0.5-0.1-0.6l1-4.3c0-0.2,0.1-0.5,0.2-0.7l0.9-3.3c0-0.2,0.2-0.2,0.2,0l2.1,4.2c0.1,0.2,0.2,0.4,0.4,0.6
						L52.8,40.3z"/>
				</g>
			</g>
			<path d="M48.6,13.3c0,2.5-2,4.4-4.4,4.4c-2.5,0-4.4-2-4.4-4.4c0-2.5,2-4.4,4.4-4.4C46.6,8.8,48.6,10.8,48.6,13.3z"/>
		</g>
	</g>
</g>
<g id="Layer_2">
	<g>
		<path class="st2" d="M37,15.8c-2.3,0-4.1,1.9-4.1,4.1s1.9,4.1,4.1,4.1s4.1-1.9,4.1-4.1S39.3,15.8,37,15.8z"/>
		<path class="st2" d="M16.8,26.4c1.9,0,3.5-1.6,3.5-3.5c0-1.9-1.6-3.5-3.5-3.5c-1.9,0-3.5,1.6-3.5,3.5
			C13.3,24.8,14.9,26.4,16.8,26.4z"/>
		<path class="st2" d="M61.9,20.9c-1.7,0-3.1,1.4-3.1,3.1c0,1.7,1.4,3.1,3.1,3.1S65,25.7,65,24C65,22.3,63.6,20.9,61.9,20.9z"/>
		<path class="st2" d="M241,3.1H6.8c-1.3,0-2.5,1.1-2.5,2.5v47.8c0,0.8,0.5,1.6,1.3,1.6l19.1,3.7c0.1,0,0.1,0,0.2,0H57
			c0.4,0,0.9-0.4,0.8-0.9c0-0.2-0.1-0.5-0.1-0.7c0-6.7,5.3-12,12-12c6.7,0,12,5.3,12,12c0,0.2,0,0.4,0,0.6c0,0.5,0.3,1,0.8,1h94.2
			c0.4,0,0.8-0.3,0.8-0.9c0-0.2-0.1-0.3-0.1-0.7c0-6.7,5.3-12,12-12c6.7,0,12,5.3,12,12c0,0.2,0,0.4,0,0.6c0,0.5,0.3,1,0.8,1H241
			c1.3,0,2.5-1.1,2.5-2.5v-14V8.4V5.5C243.5,4.2,242.4,3.1,241,3.1z M228.2,10h12c0.3,0,0.6,0.3,0.6,0.6l0,27.2
			c0,0.2-0.1,0.3-0.4,0.3c0,0-1,0-1.4,0c-0.2,0-0.6-0.2-0.8-0.4c-0.6-0.8-4.1-5.4-4.2-5.5c-0.2-0.4-0.7-0.6-1.1-0.6
			c-0.2,0-4.6-0.1-5.1-0.1c-0.1,0-0.2,0-0.2,0v-1.8c0.4,0.1,0.8,0.2,1.3,0.2c2.3,0,4.1-1.9,4.1-4.1s-1.9-4.1-4.1-4.1
			c-0.5,0-0.9,0.1-1.3,0.2V10.6C227.7,10.3,227.9,10,228.2,10z M11,10.2c0-0.1,0.1-0.2,0.2-0.2h11.6c0.1,0,0.2,0.1,0.2,0.2v22.7
			c0,0.1-0.1,0.2-0.2,0.2h-2.2c-0.6-2.2-1.3-4.9-1.3-5.1c-0.1-0.3-0.3-0.5-0.7-0.5c-0.4,0-3.5,0.3-3.8,0.3c-0.4,0-0.6,0.3-0.6,0.7
			c0,0.1,0.1,2.2,0.1,4.6h-3.1c-0.1,0-0.2-0.1-0.2-0.2V10.2z M40.7,31.6c0-0.1,0.2-0.2,0.3-0.1c0,0,0.4,0.7,0.9,1.7h-1
			C40.8,32.2,40.7,31.6,40.7,31.6z M53.3,32.9c0,0.1-0.1,0.2-0.2,0.2H45c-1.9-3.3-3.9-6.9-4-7.1c-0.2-0.4-0.7-0.6-1.1-0.6
			c-0.2,0-5.5,0.1-6,0.1s-0.8,0-1.1,0.8c-0.1,0.3-0.2,3.4-0.4,6.9h-6.1c-0.1,0-0.2-0.1-0.2-0.2V10.2c0-0.1,0.1-0.2,0.2-0.2h26.4
			c0.3,0,0.5,0.2,0.5,0.5V32.9z M83.3,32.6c0,0.3-0.2,0.5-0.5,0.5H65.2l-1-4.5c0-0.1-0.1-0.1-0.2-0.1l-4,0.3c-0.1,0-0.2,0.1-0.2,0.2
			l0.1,4.2h-3.3c-0.3,0-0.5-0.2-0.5-0.5V10.5c0-0.3,0.2-0.5,0.5-0.5h26.1c0.3,0,0.5,0.2,0.5,0.5V32.6z M98.2,51.5
			c0,0.3-0.2,0.5-0.5,0.5h-11c-0.3,0-0.5-0.2-0.5-0.5V34.7V10.6c0-0.3,0.3-0.6,0.6-0.6h10.9c0.3,0,0.5,0.2,0.5,0.5V51.5z
			 M113.1,34.7v17c0,0.2-0.1,0.3-0.3,0.3h-11.4c-0.2,0-0.3-0.1-0.3-0.3V10.3c0-0.2,0.1-0.3,0.3-0.3h11.4c0.2,0,0.3,0.1,0.3,0.3V34.7
			z M143.2,32.7c0,0.3-0.2,0.5-0.5,0.5h-26.2c-0.3,0-0.5-0.2-0.5-0.5V10.5c0-0.3,0.2-0.5,0.5-0.5h26.2c0.3,0,0.5,0.2,0.5,0.5V32.7z
			 M173.3,32.5c0,0.3-0.3,0.6-0.6,0.6h-25.9c-0.3,0-0.6-0.3-0.6-0.6V10.6c0-0.3,0.3-0.6,0.6-0.6h25.9c0.3,0,0.6,0.3,0.6,0.6V32.5z
			 M203.3,32.6c0,0.3-0.2,0.5-0.5,0.5h-26.1c-0.3,0-0.5-0.2-0.5-0.5V10.5c0-0.3,0.2-0.5,0.5-0.5h26.1c0.3,0,0.5,0.2,0.5,0.5V32.6z
			 M223.6,51.5c0,0.3-0.3,0.6-0.6,0.6h-16.2c-0.3,0-0.6-0.3-0.6-0.6V34.7V10.6c0-0.3,0.3-0.6,0.6-0.6h16.3c0.3,0,0.5,0.2,0.5,0.5
			V51.5z"/>
		<path class="st2" d="M189.8,46.7c-5.9,0-10.4,4.8-10.4,10.6c0,5.9,4.8,10.6,10.4,10.6c5.6,0,10.4-4.8,10.4-10.6
			C200.1,51.5,195.6,46.7,189.8,46.7z M189.8,61.9c-2.4,0-4.5-2.1-4.5-4.5c0-2.4,2.1-4.5,4.5-4.5c2.4,0,4.5,2.1,4.5,4.5
			C194.3,59.7,192.2,61.9,189.8,61.9z"/>
		<path class="st2" d="M70,46.9c-5.9,0-10.6,4.8-10.6,10.6c0,5.9,4.8,10.6,10.6,10.6c5.9,0,10.4-4.8,10.4-10.6
			C80.3,51.7,75.8,46.9,70,46.9z M70,62c-2.4,0-4.5-2.1-4.5-4.5c0-2.4,2.1-4.5,4.5-4.5c2.4,0,4.5,2.1,4.5,4.5
			C74.5,59.9,72.6,62,70,62z"/>
	</g>
</g>
</svg>
