<?xml version="1.0" encoding="utf-8"?>
<!-- Generator: Adobe Illustrator 22.0.1, SVG Export Plug-In . SVG Version: 6.00 Build 0)  -->
<svg version="1.1" id="Layer_1" xmlns="http://www.w3.org/2000/svg" xmlns:xlink="http://www.w3.org/1999/xlink" x="0px" y="0px"
	 viewBox="0 0 79.8 72" style="enable-background:new 0 0 79.8 72;" xml:space="preserve">
<style type="text/css">
	.st0{display:none;}
	.st1{display:inline;}
	.st2{fill:#CCCED1;}
</style>
<g id="Layer_1_1_" class="st0">
	<g class="st1">
		<g>
			<g>
				<path d="M53,38.3c0.1,0.1,0.3,0.2,0.5,0l2.9-2.8c0.1-0.1,0.1-0.3,0-0.5l-5.6-6.2c-0.1-0.1-0.3-0.4-0.3-0.6l-2.6-8.9
					c-0.1-0.2-0.2-0.4-0.4-0.4l-8.1-3c-0.2-0.1-0.4,0-0.6,0.1l-9.5,9.4c-0.1,0.1-0.3,0.4-0.4,0.6l-3.3,8.3c-0.1,0.2,0,0.4,0.2,0.5
					l3.1,1.6c0.2,0.1,0.4,0,0.4-0.2l3.3-8c0.1-0.2,0.2-0.4,0.4-0.6l3.7-3.6c0.1-0.1,0.2-0.1,0.2,0.1l-6.3,25c0,0.2-0.2,0.5-0.3,0.6
					l-8.1,12.9c-0.1,0.2-0.1,0.4,0.1,0.5l4,2.9c0.2,0.1,0.4,0.1,0.5-0.1L35.6,53c0.1-0.2,0.2-0.4,0.3-0.6l2.8-9.3
					c0.1-0.2,0.2-0.2,0.3,0l4.8,8.6c0.1,0.2,0.2,0.4,0.3,0.6l4.2,13.2c0.1,0.2,0.2,0.3,0.4,0.2l4.8-1.4c0.2-0.1,0.3-0.2,0.2-0.4
					l-4.5-14c-0.1-0.2-0.2-0.5-0.2-0.6l-6-13.2c-0.1-0.2-0.1-0.5-0.1-0.6l1.8-9.4c0-0.2,0.1-0.2,0.2,0l2.7,5.3
					c0.1,0.2,0.3,0.4,0.4,0.6L53,38.3z"/>
			</g>
		</g>
		<path d="M48.8,11.2c0,2.5-2,4.4-4.4,4.4c-2.5,0-4.4-2-4.4-4.4c0-2.5,2-4.4,4.4-4.4C46.8,6.8,48.8,8.8,48.8,11.2z"/>
	</g>
</g>
<g id="Layer_2_1_" class="st0">
	<g class="st1">
		<g>
			<g>
				<path d="M52.8,38c0.1,0.1,0.3,0.2,0.5,0l2.9-2.8c0.1-0.1,0.1-0.3,0-0.5l-5.6-6.2c-0.1-0.1-0.3-0.4-0.3-0.6L47.7,19
					c-0.1-0.2-0.2-0.4-0.4-0.4l-8.1-3c-0.2-0.1-0.4,0-0.6,0.1l-9.5,9.4c-0.1,0.1-0.3,0.4-0.4,0.6L25.4,34c-0.1,0.2,0,0.4,0.2,0.5
					l3.1,1.6c0.2,0.1,0.4,0,0.4-0.2l3.3-8c0.1-0.2,0.2-0.4,0.4-0.6l3.7-3.6c0.1-0.1,0.2-0.1,0.2,0.1l-2,10.4c0,0.2-0.1,0.5-0.2,0.6
					l-7.2,12.4c-0.1,0.2,0,0.4,0.1,0.5l2.4,1.8c0.1,0.1,0.2,0.3,0.1,0.5L22,62.5c-0.1,0.2-0.1,0.4,0.1,0.5l4,2.9
					c0.2,0.1,0.4,0.1,0.5-0.1l8.8-12.9c0.1-0.2,0.3-0.3,0.5-0.3l3.5-0.2c0.2,0,0.5,0,0.7-0.1l3.2-0.4c0.2,0,0.4,0.1,0.4,0.3
					l4.2,13.2c0.1,0.2,0.2,0.3,0.4,0.2l4.8-1.4c0.2-0.1,0.3-0.2,0.2-0.4l-4.5-14c-0.1-0.2-0.2-0.5-0.2-0.6L43,36
					c-0.1-0.2-0.1-0.5-0.1-0.6l1-4.3c0-0.2,0.1-0.5,0.2-0.7l0.9-3.3c0-0.2,0.2-0.2,0.2,0l2.1,4.2c0.1,0.2,0.2,0.4,0.4,0.6L52.8,38z"
					/>
			</g>
		</g>
		<path d="M48.6,11c0,2.5-2,4.4-4.4,4.4c-2.5,0-4.4-2-4.4-4.4c0-2.5,2-4.4,4.4-4.4C46.6,6.5,48.6,8.5,48.6,11z"/>
	</g>
</g>
<g>
	<path class="st2" d="M47.8,39.1c-0.9-0.5-8.3-5-8.4-5.1c-0.1,0-0.1-0.1-0.1-0.3c0-0.1,6.7-7,7-7.3s0.5-0.3,0.9,0.1
		c0.6,0.5,7.8,7,8,7.2c0.3,0.2,0.5,0.1,0.7-0.1l1.5-1.6c0.2-0.2,0.2-0.5-0.1-0.7c0,0-7.4-7.8-7.6-8.1c-0.2-0.2-1.3-1.5-1.9-1.8
		c-0.6-0.3-2.9-1.8-3.8-2.1c-0.8-0.3-2.1-0.4-3.2,0.6c-1.7,1.6-10.5,11.8-11.4,13c-0.4,0.5-1,1.5-0.7,2.8c0,0.3,6.7,24.1,6.7,24.1
		c0.1,0.2,0.3,0.4,0.5,0.3c0.2-0.1,3-0.7,3.2-0.8s0.3-0.3,0.3-0.6l-3.9-20.1c0-0.1,0.1-0.2,0.2-0.2l7,3.6c0.5,0.2,0.8,0.3,0.5,1
		c0,0-2.4,5.9-2.5,6.1c-0.1,0.3,0,0.5,0.2,0.6c0.1,0.1,2.3,1.2,2.4,1.3c0.2,0.1,0.6-0.1,0.7-0.3c0.2-0.4,3.9-8.1,4.4-9.1
		S48.7,39.6,47.8,39.1z"/>
	<path class="st2" d="M43.6,13.3c0.3,0.1,0.3,0.1,0.6,0.1c0.2,0.1,0.3,0.3,0.2,0.7c-0.6,2.2,0.2,4.6,2.8,5.2
		c2.6,0.7,4.3-1.2,4.9-3.4c0.1-0.3,0.3-0.5,0.5-0.4c0.3,0.1,0.4,0.1,0.6,0.2c0.2,0.1,0.4-0.1,0.5-0.5c0.8-3.1-0.7-5.6-3.9-6.4
		c-3-0.7-5.5,1.1-6.5,4.1C43.3,13,43.4,13.3,43.6,13.3z"/>
	<path class="st2" d="M17,38.9C9.7,38.9,3.8,44.8,3.8,52S9.7,65.2,17,65.2S30.1,59.3,30.1,52S24.2,38.9,17,38.9z M17,60.3
		c-4.5,0-8.3-3.7-8.3-8.3s3.7-8.2,8.3-8.2c4.5,0,8.2,3.7,8.2,8.2S21.5,60.3,17,60.3z"/>
	<path class="st2" d="M62.6,38.9c-7.3,0-13.1,5.9-13.1,13.1s5.9,13.1,13.1,13.1c7.3,0,13.1-5.9,13.1-13.1S69.8,38.9,62.6,38.9z
		 M71,52.7c0,0.1,0,0.2,0,0.2c0,0.2-0.1,0.4-0.1,0.6v0.1c-0.1,0.2-0.1,0.5-0.2,0.7l0,0c-0.8,2.6-2.8,4.7-5.5,5.5h-0.1
		c-0.2,0.1-0.4,0.1-0.6,0.1c-0.1,0-0.2,0-0.3,0.1c-0.1,0-0.1,0-0.2,0s-0.2,0-0.3,0s-0.3,0-0.4,0c-0.2,0-0.3,0-0.5,0
		c-0.1,0-0.1,0-0.2,0c-0.1,0-0.1,0-0.2,0c-0.2,0-0.3,0-0.5,0c-0.1,0-0.2,0-0.3,0c-0.2,0-0.4-0.1-0.6-0.1c-0.1,0-0.2,0-0.2,0
		c-0.2,0-0.4-0.1-0.6-0.2h-0.1c-2.5-0.8-4.6-2.8-5.5-5.4c0-0.1,0-0.1-0.1-0.2c0-0.2-0.1-0.3-0.1-0.5c0-0.1-0.1-0.3-0.1-0.4
		c0-0.1,0-0.1,0-0.2c0-0.1,0-0.2,0-0.2c0-0.2,0-0.3-0.1-0.5c0-0.1,0-0.3,0-0.4c0-0.1,0-0.2,0-0.3s0-0.1,0-0.2c0-0.2,0-0.3,0-0.5
		c0-0.1,0-0.2,0-0.4s0-0.3,0.1-0.5c0-0.1,0-0.2,0.1-0.3c0-0.2,0.1-0.4,0.2-0.6V49c0.8-2.5,2.8-4.6,5.4-5.5h0.1
		c0.2-0.1,0.4-0.1,0.6-0.1c0.1,0,0.2,0,0.3-0.1c0.1,0,0.1,0,0.2,0c0.1,0,0.2,0,0.3,0s0.3,0,0.4,0c0.2,0,0.3,0,0.5,0
		c0.1,0,0.1,0,0.2,0h0.1c0.2,0,0.4,0,0.5,0s0.2,0,0.3,0c0.2,0,0.4,0.1,0.6,0.1c0.1,0,0.1,0,0.2,0c0.2,0.1,0.5,0.1,0.7,0.2l0,0
		c2.6,0.8,4.7,2.8,5.5,5.5c0,0,0,0,0,0.1c0.1,0.2,0.1,0.4,0.2,0.6c0,0.1,0,0.2,0.1,0.2c0,0.1,0,0.2,0,0.2c0,0.1,0,0.2,0,0.3
		s0,0.2,0,0.3c0,0.2,0,0.4,0,0.5s0,0.1,0,0.2v0.1C71,52.3,71,52.5,71,52.7z"/>
</g>
</svg>
