<?xml version="1.0" encoding="utf-8"?>
<!-- Generator: Adobe Illustrator 22.0.1, SVG Export Plug-In . SVG Version: 6.00 Build 0)  -->
<svg version="1.1" id="Layer_1" xmlns="http://www.w3.org/2000/svg" xmlns:xlink="http://www.w3.org/1999/xlink" x="0px" y="0px"
	 viewBox="0 0 79.8 72" style="enable-background:new 0 0 79.8 72;" xml:space="preserve">
<style type="text/css">
	.st0{display:none;}
	.st1{display:inline;}
	.st2{fill:#CCCED1;}
</style>
<g id="Layer_1_1_" class="st0">
	<g class="st1">
		<g>
			<g>
				<path d="M53,38.3c0.1,0.1,0.3,0.2,0.5,0l2.9-2.8c0.1-0.1,0.1-0.3,0-0.5l-5.6-6.2c-0.1-0.1-0.3-0.4-0.3-0.6l-2.6-8.9
					c-0.1-0.2-0.2-0.4-0.4-0.4l-8.1-3c-0.2-0.1-0.4,0-0.6,0.1l-9.5,9.4c-0.1,0.1-0.3,0.4-0.4,0.6l-3.3,8.3c-0.1,0.2,0,0.4,0.2,0.5
					l3.1,1.6c0.2,0.1,0.4,0,0.4-0.2l3.3-8c0.1-0.2,0.2-0.4,0.4-0.6l3.7-3.6c0.1-0.1,0.2-0.1,0.2,0.1l-6.3,25c0,0.2-0.2,0.5-0.3,0.6
					l-8.1,12.9c-0.1,0.2-0.1,0.4,0.1,0.5l4,2.9c0.2,0.1,0.4,0.1,0.5-0.1L35.6,53c0.1-0.2,0.2-0.4,0.3-0.6l2.8-9.3
					c0.1-0.2,0.2-0.2,0.3,0l4.8,8.6c0.1,0.2,0.2,0.4,0.3,0.6l4.2,13.2c0.1,0.2,0.2,0.3,0.4,0.2l4.8-1.4c0.2-0.1,0.3-0.2,0.2-0.4
					l-4.5-14c-0.1-0.2-0.2-0.5-0.2-0.6l-6-13.2c-0.1-0.2-0.1-0.5-0.1-0.6l1.8-9.4c0-0.2,0.1-0.2,0.2,0l2.7,5.3
					c0.1,0.2,0.3,0.4,0.4,0.6L53,38.3z"/>
			</g>
		</g>
		<path d="M48.8,11.2c0,2.5-2,4.4-4.4,4.4c-2.5,0-4.4-2-4.4-4.4c0-2.5,2-4.4,4.4-4.4C46.8,6.8,48.8,8.8,48.8,11.2z"/>
	</g>
</g>
<g id="Layer_2_1_" class="st0">
	<g class="st1">
		<g>
			<g>
				<path d="M52.8,38c0.1,0.1,0.3,0.2,0.5,0l2.9-2.8c0.1-0.1,0.1-0.3,0-0.5l-5.6-6.2c-0.1-0.1-0.3-0.4-0.3-0.6L47.7,19
					c-0.1-0.2-0.2-0.4-0.4-0.4l-8.1-3c-0.2-0.1-0.4,0-0.6,0.1l-9.5,9.4c-0.1,0.1-0.3,0.4-0.4,0.6L25.4,34c-0.1,0.2,0,0.4,0.2,0.5
					l3.1,1.6c0.2,0.1,0.4,0,0.4-0.2l3.3-8c0.1-0.2,0.2-0.4,0.4-0.6l3.7-3.6c0.1-0.1,0.2-0.1,0.2,0.1l-2,10.4c0,0.2-0.1,0.5-0.2,0.6
					l-7.2,12.4c-0.1,0.2,0,0.4,0.1,0.5l2.4,1.8c0.1,0.1,0.2,0.3,0.1,0.5L22,62.5c-0.1,0.2-0.1,0.4,0.1,0.5l4,2.9
					c0.2,0.1,0.4,0.1,0.5-0.1l8.8-12.9c0.1-0.2,0.3-0.3,0.5-0.3l3.5-0.2c0.2,0,0.5,0,0.7-0.1l3.2-0.4c0.2,0,0.4,0.1,0.4,0.3
					l4.2,13.2c0.1,0.2,0.2,0.3,0.4,0.2l4.8-1.4c0.2-0.1,0.3-0.2,0.2-0.4l-4.5-14c-0.1-0.2-0.2-0.5-0.2-0.6L43,36
					c-0.1-0.2-0.1-0.5-0.1-0.6l1-4.3c0-0.2,0.1-0.5,0.2-0.7l0.9-3.3c0-0.2,0.2-0.2,0.2,0l2.1,4.2c0.1,0.2,0.2,0.4,0.4,0.6L52.8,38z"
					/>
			</g>
		</g>
		<path d="M48.6,11c0,2.5-2,4.4-4.4,4.4c-2.5,0-4.4-2-4.4-4.4c0-2.5,2-4.4,4.4-4.4C46.6,6.5,48.6,8.5,48.6,11z"/>
	</g>
</g>
<g>
	<path class="st2" d="M50.2,38.4c-0.9-0.5-8.7-5.4-8.8-5.5c-0.1,0-0.1-0.1-0.1-0.3c0-0.1,1.7-9.2,1.7-9.2c0-0.1,0.2-0.2,0.3-0.1
		c0,0,9.5,7.2,9.7,7.4c0.3,0.2,0.5,0.1,0.7-0.1l1.6-1.7c0.2-0.2,0.2-0.5-0.1-0.7c0,0-11.7-10.7-11.9-10.9s-0.7-0.5-1.3-0.6
		c-0.2,0-5.1-0.6-5.6-0.6s-0.8,0-1.1,0.8c-0.2,0.7-4.1,17.3-4.1,17.5c-0.1,0.3-0.2,0.9,0,1.5c0.1,0.3,6.7,23.2,6.7,23.2
		c0.1,0.2,0.3,0.4,0.5,0.3c0.2-0.1,3-0.7,3.2-0.8s0.3-0.3,0.3-0.6l-3.6-19c0-0.1,0.1-0.2,0.2-0.2l6.7,2.5c0.5,0.2,0.8,0.3,0.5,1
		c0,0-2.4,5.9-2.5,6.1c-0.1,0.3,0,0.5,0.2,0.6c0.1,0.1,2.3,1.2,2.4,1.3c0.2,0.1,0.6-0.1,0.7-0.3c0.2-0.4,3.9-8.1,4.4-9.1
		S51.1,38.9,50.2,38.4z"/>
	<path class="st2" d="M34.6,10.2c0.3,0,0.3,0,0.6,0c0.2,0,0.4,0.3,0.4,0.6c0,2.3,1.3,4.4,3.9,4.4c2.7,0,3.9-2.2,3.9-4.5
		c0-0.3,0.2-0.5,0.3-0.5c0.3,0,0.5,0,0.7,0c0.2,0,0.4-0.3,0.4-0.6c0-3.2-2-5.3-5.3-5.3c-3.1,0-5.1,2.4-5.3,5.5
		C34.2,10,34.4,10.2,34.6,10.2z"/>
	<path class="st2" d="M17.6,38.9c-7.3,0-13.2,5.9-13.2,13.1s5.9,13.2,13.2,13.2S30.7,59.3,30.7,52S24.8,38.9,17.6,38.9z M17.6,60.3
		c-4.5,0-8.3-3.7-8.3-8.3c0-4.6,3.7-8.2,8.3-8.2c4.5,0,8.2,3.7,8.2,8.2S22.1,60.3,17.6,60.3z"/>
	<path class="st2" d="M63.2,38.9c-7.3,0-13.1,5.9-13.1,13.1S56,65.1,63.2,65.1c7.3,0,13.1-5.9,13.1-13.1S70.4,38.9,63.2,38.9z
		 M71.6,52.7c0,0.1,0,0.2,0,0.2c0,0.2-0.1,0.4-0.1,0.6c0,0,0,0.1,0,0.1c-0.1,0.2-0.1,0.5-0.2,0.7c0,0,0,0,0,0
		c-0.8,2.6-2.8,4.7-5.5,5.5c0,0-0.1,0-0.1,0c-0.2,0.1-0.4,0.1-0.6,0.1c-0.1,0-0.2,0-0.3,0.1c-0.1,0-0.1,0-0.2,0c-0.1,0-0.2,0-0.3,0
		c-0.1,0-0.3,0-0.4,0c-0.2,0-0.3,0-0.5,0c-0.1,0-0.1,0-0.2,0c-0.1,0-0.1,0-0.2,0c-0.2,0-0.3,0-0.5,0c-0.1,0-0.2,0-0.3,0
		c-0.2,0-0.4-0.1-0.6-0.1c-0.1,0-0.2,0-0.2,0c-0.2,0-0.4-0.1-0.6-0.2c0,0-0.1,0-0.1,0c-2.5-0.8-4.6-2.8-5.5-5.4c0-0.1,0-0.1-0.1-0.2
		c0-0.2-0.1-0.3-0.1-0.5c0-0.1-0.1-0.3-0.1-0.4c0-0.1,0-0.1,0-0.2c0-0.1,0-0.2,0-0.2c0-0.2,0-0.3-0.1-0.5c0-0.1,0-0.3,0-0.4
		c0-0.1,0-0.2,0-0.3c0-0.1,0-0.1,0-0.2c0-0.2,0-0.3,0-0.5c0-0.1,0-0.2,0-0.4c0-0.2,0-0.3,0.1-0.5c0-0.1,0-0.2,0.1-0.3
		c0-0.2,0.1-0.4,0.2-0.6c0,0,0-0.1,0-0.1c0.8-2.5,2.8-4.6,5.4-5.5c0,0,0.1,0,0.1,0c0.2-0.1,0.4-0.1,0.6-0.1c0.1,0,0.2,0,0.3-0.1
		c0.1,0,0.1,0,0.2,0c0.1,0,0.2,0,0.3,0c0.1,0,0.3,0,0.4,0c0.2,0,0.3,0,0.5,0c0.1,0,0.1,0,0.2,0c0,0,0.1,0,0.1,0c0.2,0,0.4,0,0.5,0
		c0.1,0,0.2,0,0.3,0c0.2,0,0.4,0.1,0.6,0.1c0.1,0,0.1,0,0.2,0c0.2,0.1,0.5,0.1,0.7,0.2c0,0,0,0,0,0c2.6,0.8,4.7,2.8,5.5,5.5
		c0,0,0,0,0,0.1c0.1,0.2,0.1,0.4,0.2,0.6c0,0.1,0,0.2,0.1,0.2c0,0.1,0,0.2,0,0.2c0,0.1,0,0.2,0,0.3c0,0.1,0,0.2,0,0.3
		c0,0.2,0,0.4,0,0.5c0,0.1,0,0.1,0,0.2c0,0,0,0.1,0,0.1C71.6,52.3,71.6,52.5,71.6,52.7z"/>
	<path class="st2" d="M11.3,15.8h0.5c0.2,0,0.3,0.2,0.3,0.5c0,1.9,1.4,3.5,3.2,3.5s3.3-1.5,3.3-3.4c0-0.3,0-0.6,0.3-0.6l0.5,0
		c0.3,0,0.4-0.2,0.4-0.6c-0.3-2.4-1.8-4.2-4.3-4.2s-4.2,2-4.5,4.4C10.9,15.6,11.1,15.8,11.3,15.8z"/>
	<path class="st2" d="M9.5,36.8H24c0.1,0,0.1,0,0.1,0.1l1.1,2.8c0.1,0.2,0.3,0.3,0.5,0.2l2.8-0.8c0.2-0.1,0.6-0.1,0.5-0.7
		c-0.1-0.6-1.4-5.7-1.6-6.3c-0.2-0.6-0.3-1-0.7-1.4c-0.4-0.5-0.8-0.7-1.6-0.8c-0.8-0.1-5-0.5-5-0.5c-0.2,0-0.4-0.2-0.4-0.4
		c-0.1,0.1-2.1-7.5-2.1-7.8c-0.1-0.3-0.3-0.5-0.7-0.5c-0.4,0-3.5,0.3-3.8,0.3c-0.4,0-0.6,0.3-0.6,0.7c0,0.3,0.4,11.3,0.4,12.2
		c0,0.1,0,0.1-0.1,0.1H9.5c-0.1,0-0.2,0.1-0.2,0.2v2.4C9.3,36.7,9.4,36.8,9.5,36.8z"/>
</g>
<path class="st2" d="M74.4,38.2c0,0-2.3-5.4-2.3-5.6c-0.1-0.3-0.3-0.5-0.6-0.6l-5.3-0.8c-0.1,0-0.1-0.1-0.1-0.1L64.2,23
	c0-0.1-0.1-0.1-0.2-0.1l-4,0.3c-0.1,0-0.2,0.1-0.2,0.2L60.3,34c0,0.1-0.1,0.2-0.2,0.2h-2.7c-0.1,0-0.2,0.1-0.2,0.2v2
	c0,0.1,0.1,0.2,0.2,0.2h12.2c0.1,0,0.1,0,0.2,0.1l1.5,2.7c0,0.1,0.1,0.1,0.2,0.1l2.8-1.1C74.4,38.4,74.4,38.3,74.4,38.2z"/>
<path class="st2" d="M58.3,18.7h0.4c0.2,0,0.3,0.2,0.3,0.4c0,1.7,1.2,3.2,2.9,3.2c1.6,0,2.9-1.4,2.9-3.1c0-0.3,0-0.5,0.2-0.5l0.4,0
	c0.2,0,0.4-0.2,0.4-0.6c-0.2-2.2-1.6-3.7-3.9-3.7c-2.2,0-3.7,1.7-4,3.9C57.9,18.5,58.1,18.7,58.3,18.7z"/>
</svg>
