<?xml version="1.0" encoding="utf-8"?>
<!-- Generator: Adobe Illustrator 22.1.0, SVG Export Plug-In . SVG Version: 6.00 Build 0)  -->
<svg version="1.1" id="Layer_1" xmlns="http://www.w3.org/2000/svg" xmlns:xlink="http://www.w3.org/1999/xlink" x="0px" y="0px"
	 viewBox="0 0 79.8 72" style="enable-background:new 0 0 79.8 72;" xml:space="preserve">
<style type="text/css">
	.st0{display:none;}
	.st1{display:inline;}
	.st2{fill:#CCCED1;}
</style>
<g id="Layer_1_1_" class="st0">
	<g class="st1">
		<g>
			<g>
				<path d="M53,38.3c0.1,0.1,0.3,0.2,0.5,0l2.9-2.8c0.1-0.1,0.1-0.3,0-0.5l-5.6-6.2c-0.1-0.1-0.3-0.4-0.3-0.6l-2.6-8.9
					c-0.1-0.2-0.2-0.4-0.4-0.4l-8.1-3c-0.2-0.1-0.4,0-0.6,0.1l-9.5,9.4c-0.1,0.1-0.3,0.4-0.4,0.6l-3.3,8.3c-0.1,0.2,0,0.4,0.2,0.5
					l3.1,1.6c0.2,0.1,0.4,0,0.4-0.2l3.3-8c0.1-0.2,0.2-0.4,0.4-0.6l3.7-3.6c0.1-0.1,0.2-0.1,0.2,0.1l-6.3,25c0,0.2-0.2,0.5-0.3,0.6
					l-8.1,12.9c-0.1,0.2-0.1,0.4,0.1,0.5l4,2.9c0.2,0.1,0.4,0.1,0.5-0.1L35.6,53c0.1-0.2,0.2-0.4,0.3-0.6l2.8-9.3
					c0.1-0.2,0.2-0.2,0.3,0l4.8,8.6c0.1,0.2,0.2,0.4,0.3,0.6l4.2,13.2c0.1,0.2,0.2,0.3,0.4,0.2l4.8-1.4c0.2-0.1,0.3-0.2,0.2-0.4
					l-4.5-14c-0.1-0.2-0.2-0.5-0.2-0.6l-6-13.2c-0.1-0.2-0.1-0.5-0.1-0.6l1.8-9.4c0-0.2,0.1-0.2,0.2,0l2.7,5.3
					c0.1,0.2,0.3,0.4,0.4,0.6L53,38.3z"/>
			</g>
		</g>
		<path d="M48.8,11.2c0,2.5-2,4.4-4.4,4.4c-2.5,0-4.4-2-4.4-4.4c0-2.5,2-4.4,4.4-4.4C46.8,6.8,48.8,8.8,48.8,11.2z"/>
	</g>
</g>
<g id="Layer_2_1_" class="st0">
	<g class="st1">
		<g>
			<g>
				<path d="M52.8,38c0.1,0.1,0.3,0.2,0.5,0l2.9-2.8c0.1-0.1,0.1-0.3,0-0.5l-5.6-6.2c-0.1-0.1-0.3-0.4-0.3-0.6L47.7,19
					c-0.1-0.2-0.2-0.4-0.4-0.4l-8.1-3c-0.2-0.1-0.4,0-0.6,0.1l-9.5,9.4c-0.1,0.1-0.3,0.4-0.4,0.6L25.4,34c-0.1,0.2,0,0.4,0.2,0.5
					l3.1,1.6c0.2,0.1,0.4,0,0.4-0.2l3.3-8c0.1-0.2,0.2-0.4,0.4-0.6l3.7-3.6c0.1-0.1,0.2-0.1,0.2,0.1l-2,10.4c0,0.2-0.1,0.5-0.2,0.6
					l-7.2,12.4c-0.1,0.2,0,0.4,0.1,0.5l2.4,1.8c0.1,0.1,0.2,0.3,0.1,0.5L22,62.5c-0.1,0.2-0.1,0.4,0.1,0.5l4,2.9
					c0.2,0.1,0.4,0.1,0.5-0.1l8.8-12.9c0.1-0.2,0.3-0.3,0.5-0.3l3.5-0.2c0.2,0,0.5,0,0.7-0.1l3.2-0.4c0.2,0,0.4,0.1,0.4,0.3
					l4.2,13.2c0.1,0.2,0.2,0.3,0.4,0.2l4.8-1.4c0.2-0.1,0.3-0.2,0.2-0.4l-4.5-14c-0.1-0.2-0.2-0.5-0.2-0.6L43,36
					c-0.1-0.2-0.1-0.5-0.1-0.6l1-4.3c0-0.2,0.1-0.5,0.2-0.7l0.9-3.3c0-0.2,0.2-0.2,0.2,0l2.1,4.2c0.1,0.2,0.2,0.4,0.4,0.6L52.8,38z"
					/>
			</g>
		</g>
		<path d="M48.6,11c0,2.5-2,4.4-4.4,4.4c-2.5,0-4.4-2-4.4-4.4c0-2.5,2-4.4,4.4-4.4C46.6,6.5,48.6,8.5,48.6,11z"/>
	</g>
</g>
<g id="Layer_3">
	<g>
		<g>
			<path class="st2" d="M52.8,30.9l1.6-1.7c0.3-0.3,0.4-0.8,0.1-1.1c0,0-11.6-10.6-11.8-10.8c-0.2-0.2-0.8-0.5-1.3-0.6
				c-0.2,0-5.1-0.6-5.6-0.6s-0.9,0.4-1.1,0.9c-0.1,0.6-4.1,17.5-4.1,17.5c0,0.2-0.1,0.4-0.1,0.6s0,0.6,0.1,0.8l6.7,23.2
				c0.1,0.2,0.3,0.4,0.5,0.3s3-0.7,3.2-0.8s0.3-0.3,0.3-0.6l-3.6-19c0-0.1,0.1-0.2,0.2-0.2l6.7,2.5c0.5,0.2,0.8,0.3,0.5,1
				c0,0-2.5,6.3-2.6,6.4c-0.1,0.1,0.1,0.3,0.2,0.3c0.2,0.1,2.5,1.4,2.6,1.4s0.4,0,0.5-0.2c0.2-0.4,4-8.2,4.5-9.2s0.2-2.1-0.7-2.6
				s-8.8-5.5-8.8-5.5c-0.1,0-0.1-0.1-0.1-0.2l1.7-9.3c0-0.1,0.2-0.2,0.3-0.1c0,0,9.5,7.2,9.7,7.4C52.4,31.1,52.6,31.1,52.8,30.9z"/>
		</g>
		<path class="st2" d="M44.2,9.2c0-3.2-2-5.5-5.3-5.5c-3.1,0-5.1,2.4-5.3,5.5c0,0.1,0.1,0.4,0.3,0.4s0.5,0,1,0
			c0.3,0,0.1,0.5,0.1,0.8c0,2.3,1.7,4.2,3.9,4.2c2.1,0,3.9-2.1,3.9-4.4c0-0.3,0.1-0.5,0.2-0.5c0.5,0,0.8,0,1,0
			C44.3,9.6,44.2,9.4,44.2,9.2z"/>
		<path class="st2" d="M51.2,27.2"/>
		<path class="st2" d="M53.1,29.9"/>
		<g>
			<path class="st2" d="M17,43.8c4.5,0,8.2,3.7,8.2,8.2s-3.7,8.3-8.2,8.3S8.7,56.6,8.7,52S12.4,43.8,17,43.8 M17,38.9
				C9.7,38.9,3.8,44.8,3.8,52S9.7,65.2,17,65.2S30.1,59.3,30.1,52S24.2,38.9,17,38.9L17,38.9z"/>
		</g>
		<g>
			<path class="st2" d="M62.6,43.6c4.6,0,8.4,3.8,8.4,8.4s-3.8,8.4-8.4,8.4s-8.4-3.8-8.4-8.4S58,43.6,62.6,43.6 M62.6,38.9
				c-7.3,0-13.1,5.9-13.1,13.1s5.9,13.1,13.1,13.1c7.3,0,13.1-5.9,13.1-13.1S69.8,38.9,62.6,38.9L62.6,38.9z"/>
		</g>
	</g>
	<g>
		<g>
			<path class="st2" d="M17,21.2c-0.1-0.3-0.3-0.5-0.7-0.5c-0.4,0-3.6,0.3-3.9,0.3s-0.5,0.3-0.5,0.6s0.4,12.1,0.4,12.1
				c0,0.5,0.2,0.6,0.4,0.6l9.4-0.1c0.2,0,0.4,0.1,0.5,0.3l2,5.2c0.1,0.2,0.3,0.3,0.5,0.2l2.8-0.8c0.2-0.1,0.6-0.1,0.5-0.7
				c-0.1-0.6-1.4-5.7-1.6-6.3c-0.2-0.6-0.3-1-0.7-1.4c-0.4-0.5-0.8-0.7-1.6-0.8s-5-0.5-5-0.5c-0.2,0-0.4-0.2-0.4-0.4
				C19,29.1,17,21.5,17,21.2z"/>
		</g>
		<path class="st2" d="M19.8,15.6c0-2.7-2.2-4.8-4.8-4.8c-2.7,0-4.8,2.2-4.8,4.8c0.3,0,0.9,0,1.7,0c0,0.2-0.1,0.4-0.1,0.6
			c0,1.9,1.4,3.4,3.2,3.4s3.2-1.5,3.2-3.4c0-0.2,0-0.4-0.1-0.6C18.9,15.6,19.5,15.6,19.8,15.6z"/>
		<path class="st2" d="M32.7,27.6"/>
		<path class="st2" d="M34.7,30.3"/>
	</g>
	<path class="st2" d="M8.9,34h16.2c0.1,0,0.2,0.1,0.2,0.2v2.4c0,0.1-0.1,0.2-0.2,0.2H8.9c-0.1,0-0.2-0.1-0.2-0.2v-2.4
		C8.7,34.1,8.8,34,8.9,34z"/>
</g>
</svg>
