<?xml version="1.0" encoding="utf-8"?>
<!-- Generator: Adobe Illustrator 22.0.1, SVG Export Plug-In . SVG Version: 6.00 Build 0)  -->
<svg version="1.1" xmlns="http://www.w3.org/2000/svg" xmlns:xlink="http://www.w3.org/1999/xlink" x="0px" y="0px"
	 viewBox="0 0 162.8 72" style="enable-background:new 0 0 162.8 72;" xml:space="preserve">
<style type="text/css">
	.st0{display:none;}
	.st1{display:inline;}
	.st2{fill:none;}
	.st3{fill:#CCCED1;}
</style>
<g id="Layer_1" class="st0">
	<g id="Layer_1_1_">
		<g class="st1">
			<g>
				<g>
					<path d="M55.5,38.3c0.1,0.1,0.3,0.2,0.5,0l2.9-2.8c0.1-0.1,0.1-0.3,0-0.5l-5.6-6.2c-0.1-0.1-0.3-0.4-0.3-0.6l-2.6-8.9
						c-0.1-0.2-0.2-0.4-0.4-0.4l-8.1-3c-0.2-0.1-0.4,0-0.6,0.1l-9.5,9.4c-0.1,0.1-0.3,0.4-0.4,0.6l-3.3,8.3c-0.1,0.2,0,0.4,0.2,0.5
						l3.1,1.6c0.2,0.1,0.4,0,0.4-0.2l3.3-8c0.1-0.2,0.2-0.4,0.4-0.6l3.7-3.6c0.1-0.1,0.2-0.1,0.2,0.1l-6.3,25c0,0.2-0.2,0.5-0.3,0.6
						l-8.1,12.9c-0.1,0.2-0.1,0.4,0.1,0.5l4,2.9c0.2,0.1,0.4,0.1,0.5-0.1L38.1,53c0.1-0.2,0.2-0.4,0.3-0.6l2.8-9.3
						c0.1-0.2,0.2-0.2,0.3,0l4.8,8.6c0.1,0.2,0.2,0.4,0.3,0.6l4.2,13.2c0.1,0.2,0.2,0.3,0.4,0.2l4.8-1.4c0.2-0.1,0.3-0.2,0.2-0.4
						l-4.5-14c-0.1-0.2-0.2-0.5-0.2-0.6l-6-13.2c-0.1-0.2-0.1-0.5-0.1-0.6l1.8-9.4c0-0.2,0.1-0.2,0.2,0l2.7,5.3
						c0.1,0.2,0.3,0.4,0.4,0.6L55.5,38.3z"/>
				</g>
			</g>
			<path d="M51.3,11.2c0,2.5-2,4.4-4.4,4.4c-2.5,0-4.4-2-4.4-4.4c0-2.5,2-4.4,4.4-4.4C49.3,6.8,51.3,8.8,51.3,11.2z"/>
		</g>
	</g>
	<g id="Layer_2_1_">
		<g class="st1">
			<g>
				<g>
					<path d="M55.3,38c0.1,0.1,0.3,0.2,0.5,0l2.9-2.8c0.1-0.1,0.1-0.3,0-0.5l-5.6-6.2c-0.1-0.1-0.3-0.4-0.3-0.6L50.2,19
						c-0.1-0.2-0.2-0.4-0.4-0.4l-8.1-3c-0.2-0.1-0.4,0-0.6,0.1l-9.5,9.4c-0.1,0.1-0.3,0.4-0.4,0.6L27.9,34c-0.1,0.2,0,0.4,0.2,0.5
						l3.1,1.6c0.2,0.1,0.4,0,0.4-0.2l3.3-8c0.1-0.2,0.2-0.4,0.4-0.6l3.7-3.6c0.1-0.1,0.2-0.1,0.2,0.1l-2,10.4c0,0.2-0.1,0.5-0.2,0.6
						l-7.2,12.4c-0.1,0.2,0,0.4,0.1,0.5l2.4,1.8c0.1,0.1,0.2,0.3,0.1,0.5l-7.9,12.5c-0.1,0.2-0.1,0.4,0.1,0.5l4,2.9
						c0.2,0.1,0.4,0.1,0.5-0.1l8.8-12.9c0.1-0.2,0.3-0.3,0.5-0.3l3.5-0.2c0.2,0,0.5,0,0.7-0.1l3.2-0.4c0.2,0,0.4,0.1,0.4,0.3
						l4.2,13.2c0.1,0.2,0.2,0.3,0.4,0.2l4.8-1.4c0.2-0.1,0.3-0.2,0.2-0.4l-4.5-14c-0.1-0.2-0.2-0.5-0.2-0.6L45.5,36
						c-0.1-0.2-0.1-0.5-0.1-0.6l1-4.3c0-0.2,0.1-0.5,0.2-0.7l0.9-3.3c0-0.2,0.2-0.2,0.2,0l2.1,4.2c0.1,0.2,0.2,0.4,0.4,0.6L55.3,38z
						"/>
				</g>
			</g>
			<path d="M51.1,11c0,2.5-2,4.4-4.4,4.4c-2.5,0-4.4-2-4.4-4.4c0-2.5,2-4.4,4.4-4.4C49.1,6.5,51.1,8.5,51.1,11z"/>
		</g>
	</g>
	<g class="st1">
		<path class="st2" d="M19.5,43.8c-4.6,0-8.3,3.6-8.3,8.2s3.8,8.3,8.3,8.3s8.2-3.8,8.2-8.3S24,43.8,19.5,43.8z"/>
		<ellipse class="st2" cx="65.2" cy="52" rx="8.4" ry="8.4"/>
		<path d="M52.1,38.4c-0.9-0.5-8.8-5.5-8.8-5.5c-0.1,0-0.1-0.1-0.1-0.2l1.7-9.3c0-0.1,0.2-0.2,0.3-0.1c0,0,9.5,7.2,9.7,7.4
			c0,0.4,0.2,0.4,0.4,0.2l1.6-1.7c0.3-0.3,0.4-0.8,0.1-1.1c0,0-11.6-10.6-11.8-10.8s-0.8-0.5-1.3-0.6c-0.2,0-5.1-0.6-5.6-0.6
			s-0.9,0.4-1.1,0.9c-0.1,0.6-4.1,17.5-4.1,17.5c0,0.2-0.1,0.4-0.1,0.6c0,0.2,0,0.6,0.1,0.8l6.7,23.2c0.1,0.2,0.3,0.4,0.5,0.3
			c0.2-0.1,3-0.7,3.2-0.8s0.3-0.3,0.3-0.6l-3.6-19c0-0.1,0.1-0.2,0.2-0.2l6.7,2.5c0.5,0.2,0.8,0.3,0.5,1c0,0-2.5,6.3-2.6,6.4
			c-0.1,0.1,0.1,0.3,0.2,0.3c0.2,0.1,2.5,1.4,2.6,1.4s0.4,0,0.5-0.2c0.2-0.4,4-8.2,4.5-9.2S53,38.9,52.1,38.4z"/>
		<path d="M36.4,10.2c0.2,0,0.5,0,1,0c0.3,0,0.1,0.5,0.1,0.8c0,2.3,1.7,4.2,3.9,4.2c2.1,0,3.9-2.1,3.9-4.4c0-0.3,0.1-0.5,0.2-0.5
			c0.5,0,0.8,0,1,0c0.3-0.1,0.2-0.3,0.2-0.5c0-3.2-2-5.5-5.3-5.5c-3.1,0-5.1,2.4-5.3,5.5C36.1,9.9,36.2,10.2,36.4,10.2z"/>
		<path d="M19.5,38.9c-7.3,0-13.2,5.9-13.2,13.1s5.9,13.2,13.2,13.2S32.6,59.3,32.6,52S26.7,38.9,19.5,38.9z M19.5,60.3
			c-4.5,0-8.3-3.7-8.3-8.3s3.7-8.2,8.3-8.2c4.5,0,8.2,3.7,8.2,8.2S24,60.3,19.5,60.3z"/>
		<path d="M65.1,38.9C57.8,38.9,52,44.8,52,52s5.9,13.1,13.1,13.1c7.3,0,13.1-5.9,13.1-13.1S72.3,38.9,65.1,38.9z M65.1,60.4
			c-4.6,0-8.4-3.8-8.4-8.4s3.8-8.4,8.4-8.4s8.4,3.8,8.4,8.4S69.7,60.4,65.1,60.4z"/>
		<path d="M13.2,15.8h0.7c0.1,0.1,0.1,0.4,0.1,0.6c0,1.9,1.4,3.4,3.2,3.4c1.8,0,3.2-1.5,3.2-3.4c0-0.3,0-0.6,0.2-0.6h0.9
			c0.1,0,0.3-0.2,0.3-0.3c-0.1-2.6-2-4.5-4.5-4.5s-4.2,2-4.5,4.4C12.8,15.6,13,15.8,13.2,15.8z"/>
		<path d="M11.4,36.8H26l1.1,2.9c0.1,0.2,0.3,0.3,0.5,0.2l2.8-0.8c0.2-0.1,0.6-0.1,0.5-0.7c-0.1-0.6-1.4-5.7-1.6-6.3
			c-0.2-0.6-0.3-1-0.7-1.4c-0.4-0.5-0.8-0.7-1.6-0.8c-0.8-0.1-5-0.5-5-0.5c-0.2,0-0.4-0.2-0.4-0.4c-0.1,0.1-2.1-7.5-2.1-7.8
			c-0.1-0.3-0.3-0.5-0.7-0.5c-0.4,0-3.6,0.3-3.9,0.3c-0.3,0-0.5,0.3-0.5,0.6c0,0.3,0.4,12.1,0.4,12.1c0,0.1,0,0.2,0,0.3h-3.4
			c-0.1,0-0.2,0.1-0.2,0.2v2.4C11.2,36.7,11.3,36.8,11.4,36.8z"/>
	</g>
</g>
<g id="Layer_2">
	<path class="st3" d="M100.2,12.4H80.9c-0.5,0-0.8,0.2-1.1,0.5l-5.4,5.4c-0.3,0.3-0.6,0.5-1.1,0.5H55.9c-0.6,0-1.1-0.3-1.4-0.8
		L47.3,3.9c-0.3-0.5-0.8-0.8-1.4-0.8h-10c-0.8,0-1.6,0.6-1.6,1.6v13.6c0,0.5-0.2,0.8-0.5,1.1L21.1,32.2c-0.9,0.9-0.3,2.5,1.1,2.5h97
		c1.4,0,2.1-1.6,1.1-2.5l-19-19.5C101,12.6,100.6,12.4,100.2,12.4z"/>
	<path class="st3" d="M4.3,40.4V66c0,0.8,0.8,1.4,1.6,1.4c4.7-0.3,9.5-2.1,13.3-5.4c0.5-0.5,1.3-0.5,1.9,0c8.5,7.3,21.4,7.3,29.7,0
		c0.5-0.5,1.3-0.5,1.9,0c8.4,7.3,21.4,7.3,29.7,0c0.5-0.5,1.3-0.5,1.9,0c8.4,7.3,21.4,7.3,29.7,0c0.5-0.5,1.3-0.5,1.9,0
		c4.1,3.5,9.2,5.4,14.2,5.4c0.3,0,0.8-0.2,1.1-0.5l25.6-25.6c0.8-0.8,0.2-2.4-1.1-2.4H5.7C4.9,39,4.3,39.6,4.3,40.4z"/>
</g>
</svg>
