<?xml version="1.0" encoding="utf-8"?>
<!-- Generator: Adobe Illustrator 22.0.1, SVG Export Plug-In . SVG Version: 6.00 Build 0)  -->
<svg version="1.1" xmlns="http://www.w3.org/2000/svg" xmlns:xlink="http://www.w3.org/1999/xlink" x="0px" y="0px"
	 viewBox="0 0 615.8 74.3" style="enable-background:new 0 0 615.8 74.3;" xml:space="preserve">
<style type="text/css">
	.st0{display:none;}
	.st1{display:inline;}
	.st2{fill:#2B3038;}
	.st3{opacity:0.6;fill:none;stroke:#F8E31D;stroke-width:0.6596;stroke-miterlimit:10;}
	.st4{fill:#231F20;stroke:#FFFFFF;stroke-width:0.2317;stroke-miterlimit:10;}
	.st5{opacity:0.91;}
	.st6{fill:#F8E31D;}
	.st7{fill:#231F20;}
	.st8{fill:none;stroke:#FFFFFF;stroke-width:0.6596;stroke-miterlimit:10;}
</style>
<g id="Layer_1">
	<g id="Layer_1_1_" class="st0">
		<g class="st1">
			<g>
				<g>
					<path d="M53,40.6c0.1,0.1,0.3,0.2,0.5,0l2.9-2.8c0.1-0.1,0.1-0.3,0-0.5l-5.6-6.2c-0.1-0.1-0.3-0.4-0.3-0.6l-2.6-8.9
						c-0.1-0.2-0.2-0.4-0.4-0.4l-8.1-3c-0.2-0.1-0.4,0-0.6,0.1l-9.5,9.4c-0.1,0.1-0.3,0.4-0.4,0.6l-3.3,8.3c-0.1,0.2,0,0.4,0.2,0.5
						l3.1,1.6c0.2,0.1,0.4,0,0.4-0.2l3.3-8c0.1-0.2,0.2-0.4,0.4-0.6l3.7-3.6c0.1-0.1,0.2-0.1,0.2,0.1l-6.3,25c0,0.2-0.2,0.5-0.3,0.6
						l-8.1,12.9c-0.1,0.2-0.1,0.4,0.1,0.5l4,2.9c0.2,0.1,0.4,0.1,0.5-0.1l8.8-12.9c0.1-0.2,0.2-0.4,0.3-0.6l2.8-9.3
						c0.1-0.2,0.2-0.2,0.3,0l4.8,8.6c0.1,0.2,0.2,0.4,0.3,0.6l4.2,13.2c0.1,0.2,0.2,0.3,0.4,0.2l4.8-1.4c0.2-0.1,0.3-0.2,0.2-0.4
						l-4.5-14C49.1,52,49,51.7,49,51.6l-6-13.2c-0.1-0.2-0.1-0.5-0.1-0.6l1.8-9.4c0-0.2,0.1-0.2,0.2,0l2.7,5.3
						c0.1,0.2,0.3,0.4,0.4,0.6L53,40.6z"/>
				</g>
			</g>
			<path d="M48.8,13.5c0,2.5-2,4.4-4.4,4.4c-2.5,0-4.4-2-4.4-4.4c0-2.5,2-4.4,4.4-4.4S48.8,11.1,48.8,13.5z"/>
		</g>
	</g>
	<g id="Layer_2_1_" class="st0">
		<g class="st1">
			<g>
				<g>
					<path d="M52.8,40.3c0.1,0.1,0.3,0.2,0.5,0l2.9-2.8c0.1-0.1,0.1-0.3,0-0.5l-5.6-6.2c-0.1-0.1-0.3-0.4-0.3-0.6l-2.6-8.9
						c-0.1-0.2-0.2-0.4-0.4-0.4l-8.1-3c-0.2-0.1-0.4,0-0.6,0.1l-9.5,9.4c-0.1,0.1-0.3,0.4-0.4,0.6l-3.3,8.3c-0.1,0.2,0,0.4,0.2,0.5
						l3.1,1.6c0.2,0.1,0.4,0,0.4-0.2l3.3-8c0.1-0.2,0.2-0.4,0.4-0.6l3.7-3.6c0.1-0.1,0.2-0.1,0.2,0.1l-2,10.4c0,0.2-0.1,0.5-0.2,0.6
						l-7.2,12.4c-0.1,0.2,0,0.4,0.1,0.5l2.4,1.8c0.1,0.1,0.2,0.3,0.1,0.5L22,64.8c-0.1,0.2-0.1,0.4,0.1,0.5l4,2.9
						c0.2,0.1,0.4,0.1,0.5-0.1l8.8-12.9c0.1-0.2,0.3-0.3,0.5-0.3l3.5-0.2c0.2,0,0.5,0,0.7-0.1l3.2-0.4c0.2,0,0.4,0.1,0.4,0.3
						l4.2,13.2c0.1,0.2,0.2,0.3,0.4,0.2l4.8-1.4c0.2-0.1,0.3-0.2,0.2-0.4l-4.5-14c-0.1-0.2-0.2-0.5-0.2-0.6L43,38.3
						c-0.1-0.2-0.1-0.5-0.1-0.6l1-4.3c0-0.2,0.1-0.5,0.2-0.7l0.9-3.3c0-0.2,0.2-0.2,0.2,0l2.1,4.2c0.1,0.2,0.2,0.4,0.4,0.6
						L52.8,40.3z"/>
				</g>
			</g>
			<path d="M48.6,13.3c0,2.5-2,4.4-4.4,4.4c-2.5,0-4.4-2-4.4-4.4c0-2.5,2-4.4,4.4-4.4C46.6,8.8,48.6,10.8,48.6,13.3z"/>
		</g>
	</g>
</g>
<g id="Layer_3">
	<path class="st2" d="M297.1,2H8.9C6.2,2,4,4.2,4,6.9v47.8c0,2.7,2.2,4.9,4.9,4.9h18.4c-0.1,0.4-0.1,0.8-0.1,1.2
		c0,4.9,4,8.9,8.9,8.9c4.2,0,7.5-2.9,8.4-6.8h14.2c0.9,3.9,4.4,6.8,8.6,6.8c4.9,0,8.6-4,8.6-8.9c0-0.4,0-0.8-0.1-1.2h149.8
		c-0.1,0.4-0.1,0.8-0.1,1.2c0,4.9,4,8.9,8.9,8.9c4.2,0,7.5-2.9,8.4-6.8h11.5c0.9,3.9,4.4,6.8,8.6,6.8c4.9,0,8.6-4,8.6-8.9
		c0-0.4,0-0.8-0.1-1.2h25.6c2.7,0,4.9-2.2,4.9-4.9V6.9C302,4.2,299.8,2,297.1,2z"/>
	<g>
		<path class="st3" d="M68.8,51.9c0,0-0.1-37.2-0.1-37.9c0-1-0.5-2-1.7-2c-0.4,0-11.2,0-11.2,0c-0.6,0-10.8,0-11.2,0
			c-1.2,0-1.7,1-1.7,2c0,0.8,0.1,37.9,0.1,37.9"/>
		<path class="st4" d="M66.4,13.2"/>
		<g class="st5">
			<path class="st6" d="M66.7,28.6c0,0.6-0.5,1.1-1.1,1.1H46.5c-0.6,0-1.1-0.5-1.1-1.1v-13c0-0.6,0.5-1.1,1.1-1.1h19.1
				c0.6,0,1.1,0.5,1.1,1.1V28.6z"/>
		</g>
		<g class="st5">
			<path class="st6" d="M138.3,28.6c0,0.6-0.5,1.1-1.1,1.1H119c-0.6,0-1.1-0.5-1.1-1.1v-13c0-0.6,0.5-1.1,1.1-1.1h18.2
				c0.6,0,1.1,0.5,1.1,1.1V28.6z"/>
		</g>
		<g class="st5">
			<path class="st6" d="M102.7,28c0,1-0.8,1.8-1.8,1.8h-19c-1,0-1.8-0.8-1.8-1.8V16.1c0-1,0.8-1.8,1.8-1.8h19c1,0,1.8,0.8,1.8,1.8
				V28z"/>
		</g>
		<g class="st5">
			<path class="st6" d="M212.2,28.7c0,0.6-0.5,1.1-1.1,1.1h-19.6c-0.6,0-1.1-0.5-1.1-1.1V15.5c0-0.6,0.5-1.1,1.1-1.1h19.6
				c0.6,0,1.1,0.5,1.1,1.1V28.7z"/>
		</g>
		<g class="st5">
			<path class="st6" d="M287.8,28.7c0,0.6-0.5,1.1-1.1,1.1h-19.6c-0.6,0-1.1-0.5-1.1-1.1V15.5c0-0.6,0.5-1.1,1.1-1.1h19.6
				c0.6,0,1.1,0.5,1.1,1.1V28.7z"/>
		</g>
		<g class="st5">
			<path class="st6" d="M175.2,28c0,1-0.8,1.8-1.8,1.8h-19c-1,0-1.8-0.8-1.8-1.8V16.1c0-1,0.8-1.8,1.8-1.8h19c1,0,1.8,0.8,1.8,1.8
				V28z"/>
		</g>
		<g class="st5">
			<path class="st6" d="M250.9,28c0,1-0.8,1.8-1.8,1.8h-19c-1,0-1.8-0.8-1.8-1.8V16.1c0-1,0.8-1.8,1.8-1.8h19c1,0,1.8,0.8,1.8,1.8
				V28z"/>
		</g>
		<g class="st5">
			<path class="st6" d="M27.3,28.7c0,0.6-0.5,1.1-1.1,1.1H20c-0.6,0-1.1-0.5-1.1-1.1V15.4c0-0.6,0.5-1.1,1.1-1.1h6.2
				c0.6,0,1.1,0.5,1.1,1.1V28.7z"/>
		</g>
		<path class="st7" d="M178.2,64.7"/>
		<path class="st3" d="M141.7,51.8c0,0,0-37.2,0-37.9c0-0.9-0.5-1.9-1.8-1.9c-0.4,0-10.9,0-11.5,0c0,0,0,0,0,0c-0.6,0-11.1,0-11.5,0
			c-1.3,0-1.8,1-1.8,1.9c0,0.7,0,38,0,38"/>
		<path class="st3" d="M214.5,52.2c0,0,0-37.6,0-38.3c0-0.9-0.5-1.9-1.8-1.9c-0.4,0-10.9,0-11.5,0c0,0,0,0,0,0c-0.6,0-11.1,0-11.5,0
			c-1.3,0-1.8,1-1.8,1.9c0,0.7,0,38.4,0,38.4"/>
		<path class="st3" d="M290,52.3c0,0,0.1-37.7,0.1-38.5c0-0.9-0.5-1.9-1.8-1.9c-0.4,0-10.9,0-11.5,0c0,0,0,0,0,0
			c-0.6,0-11.1,0-11.5,0c-1.3,0-1.8,1-1.8,1.9c0,0.7-0.1,38.5-0.1,38.5"/>
		<path class="st8" d="M11.5,50.3"/>
		<path class="st7" d="M10.8,50.2"/>
	</g>
	<path class="st2" d="M605.8,2H317.5c-2.7,0-4.9,2.2-4.9,4.9v47.8c0,2.7,2.2,4.9,4.9,4.9H336c-0.1,0.4-0.1,0.8-0.1,1.2
		c0,4.9,4,8.9,8.9,8.9c4.2,0,7.5-2.9,8.4-6.8h14.2c0.9,3.9,4.4,6.8,8.6,6.8c4.9,0,8.6-4,8.6-8.9c0-0.4,0-0.8-0.1-1.2h149.8
		c-0.1,0.4-0.1,0.8-0.1,1.2c0,4.9,4,8.9,8.9,8.9c4.2,0,7.5-2.9,8.4-6.8H563c0.9,3.9,4.4,6.8,8.6,6.8c4.9,0,8.6-4,8.6-8.9
		c0-0.4,0-0.8-0.1-1.2h25.6c2.7,0,4.9-2.2,4.9-4.9V6.9C610.7,4.2,608.5,2,605.8,2z"/>
	<g>
		<path class="st3" d="M377.4,51.9c0,0-0.1-37.2-0.1-37.9c0-1-0.5-2-1.7-2c-0.4,0-11.2,0-11.2,0c-0.6,0-10.8,0-11.2,0
			c-1.2,0-1.7,1-1.7,2c0,0.8,0.1,37.9,0.1,37.9"/>
		<path class="st4" d="M375.1,13.2"/>
		<g class="st5">
			<path class="st6" d="M375.3,28.6c0,0.6-0.5,1.1-1.1,1.1h-19.1c-0.6,0-1.1-0.5-1.1-1.1v-13c0-0.6,0.5-1.1,1.1-1.1h19.1
				c0.6,0,1.1,0.5,1.1,1.1V28.6z"/>
		</g>
		<g class="st5">
			<path class="st6" d="M447,28.6c0,0.6-0.5,1.1-1.1,1.1h-18.2c-0.6,0-1.1-0.5-1.1-1.1v-13c0-0.6,0.5-1.1,1.1-1.1h18.2
				c0.6,0,1.1,0.5,1.1,1.1V28.6z"/>
		</g>
		<g class="st5">
			<path class="st6" d="M411.3,28c0,1-0.8,1.8-1.8,1.8h-19c-1,0-1.8-0.8-1.8-1.8V16.1c0-1,0.8-1.8,1.8-1.8h19c1,0,1.8,0.8,1.8,1.8
				V28z"/>
		</g>
		<g class="st5">
			<path class="st6" d="M520.9,28.7c0,0.6-0.5,1.1-1.1,1.1h-19.6c-0.6,0-1.1-0.5-1.1-1.1V15.5c0-0.6,0.5-1.1,1.1-1.1h19.6
				c0.6,0,1.1,0.5,1.1,1.1V28.7z"/>
		</g>
		<g class="st5">
			<path class="st6" d="M596.4,28.7c0,0.6-0.5,1.1-1.1,1.1h-19.6c-0.6,0-1.1-0.5-1.1-1.1V15.5c0-0.6,0.5-1.1,1.1-1.1h19.6
				c0.6,0,1.1,0.5,1.1,1.1V28.7z"/>
		</g>
		<g class="st5">
			<path class="st6" d="M483.9,28c0,1-0.8,1.8-1.8,1.8h-19c-1,0-1.8-0.8-1.8-1.8V16.1c0-1,0.8-1.8,1.8-1.8h19c1,0,1.8,0.8,1.8,1.8
				V28z"/>
		</g>
		<g class="st5">
			<path class="st6" d="M559.6,28c0,1-0.8,1.8-1.8,1.8h-19c-1,0-1.8-0.8-1.8-1.8V16.1c0-1,0.8-1.8,1.8-1.8h19c1,0,1.8,0.8,1.8,1.8
				V28z"/>
		</g>
		<g class="st5">
			<path class="st6" d="M336,28.7c0,0.6-0.5,1.1-1.1,1.1h-6.2c-0.6,0-1.1-0.5-1.1-1.1V15.4c0-0.6,0.5-1.1,1.1-1.1h6.2
				c0.6,0,1.1,0.5,1.1,1.1V28.7z"/>
		</g>
		<path class="st7" d="M486.9,64.7"/>
		<path class="st3" d="M450.3,51.8c0,0,0-37.2,0-37.9c0-0.9-0.5-1.9-1.8-1.9c-0.4,0-10.9,0-11.5,0c0,0,0,0,0,0c-0.6,0-11.1,0-11.5,0
			c-1.3,0-1.8,1-1.8,1.9c0,0.7,0,38,0,38"/>
		<path class="st3" d="M523.2,52.2c0,0,0-37.6,0-38.3c0-0.9-0.5-1.9-1.8-1.9c-0.4,0-10.9,0-11.5,0c0,0,0,0,0,0c-0.6,0-11.1,0-11.5,0
			c-1.3,0-1.8,1-1.8,1.9c0,0.7,0,38.4,0,38.4"/>
		<path class="st3" d="M598.6,52.3c0,0,0.1-37.7,0.1-38.5c0-0.9-0.5-1.9-1.8-1.9c-0.4,0-10.9,0-11.5,0c0,0,0,0,0,0
			c-0.6,0-11.1,0-11.5,0c-1.3,0-1.8,1-1.8,1.9c0,0.7-0.1,38.5-0.1,38.5"/>
		<path class="st8" d="M320.2,50.3"/>
		<path class="st7" d="M319.4,50.2"/>
	</g>
</g>
<g id="Layer_2">
</g>
</svg>
