<?xml version="1.0" encoding="utf-8"?>
<!-- Generator: Adobe Illustrator 22.0.1, SVG Export Plug-In . SVG Version: 6.00 Build 0)  -->
<svg version="1.1" id="Layer_1" xmlns="http://www.w3.org/2000/svg" xmlns:xlink="http://www.w3.org/1999/xlink" x="0px" y="0px"
	 viewBox="0 0 249.8 72" style="enable-background:new 0 0 249.8 72;" xml:space="preserve">
<style type="text/css">
	.st0{display:none;}
	.st1{display:inline;}
	.st2{fill:#2B3038;}
	.st3{opacity:0.6;fill:none;stroke:#F8E31D;stroke-width:0.2425;stroke-miterlimit:10;}
	.st4{fill:#231F20;stroke:#FFFFFF;stroke-width:8.518999e-02;stroke-miterlimit:10;}
	.st5{opacity:0.91;}
	.st6{fill:#F8E31D;}
	.st7{fill:#3D4752;}
	.st8{fill:#231F20;}
	.st9{fill:none;stroke:#FFFFFF;stroke-width:0.2425;stroke-miterlimit:10;}
</style>
<g id="Layer_1_1_" class="st0">
	<g class="st1">
		<g>
			<g>
				<path d="M159,38.3c0.1,0.1,0.3,0.2,0.5,0l2.9-2.8c0.1-0.1,0.1-0.3,0-0.5l-5.6-6.2c-0.1-0.1-0.3-0.4-0.3-0.6l-2.6-8.9
					c-0.1-0.2-0.2-0.4-0.4-0.4l-8.1-3c-0.2-0.1-0.4,0-0.6,0.1l-9.5,9.4c-0.1,0.1-0.3,0.4-0.4,0.6l-3.3,8.3c-0.1,0.2,0,0.4,0.2,0.5
					l3.1,1.6c0.2,0.1,0.4,0,0.4-0.2l3.3-8c0.1-0.2,0.2-0.4,0.4-0.6l3.7-3.6c0.1-0.1,0.2-0.1,0.2,0.1l-6.3,25c0,0.2-0.2,0.5-0.3,0.6
					l-8.1,12.9c-0.1,0.2-0.1,0.4,0.1,0.5l4,2.9c0.2,0.1,0.4,0.1,0.5-0.1l8.8-12.9c0.1-0.2,0.2-0.4,0.3-0.6l2.8-9.3
					c0.1-0.2,0.2-0.2,0.3,0l4.8,8.6c0.1,0.2,0.2,0.4,0.3,0.6l4.2,13.2c0.1,0.2,0.2,0.3,0.4,0.2l4.8-1.4c0.2-0.1,0.3-0.2,0.2-0.4
					l-4.5-14c-0.1-0.2-0.2-0.5-0.2-0.6l-6-13.2c-0.1-0.2-0.1-0.5-0.1-0.6l1.8-9.4c0-0.2,0.1-0.2,0.2,0l2.7,5.3
					c0.1,0.2,0.3,0.4,0.4,0.6L159,38.3z"/>
			</g>
		</g>
		<path d="M154.8,11.2c0,2.5-2,4.4-4.4,4.4c-2.5,0-4.4-2-4.4-4.4c0-2.5,2-4.4,4.4-4.4C152.8,6.8,154.8,8.8,154.8,11.2z"/>
	</g>
</g>
<g id="Layer_2_1_" class="st0">
	<g class="st1">
		<g>
			<g>
				<path d="M158.8,38c0.1,0.1,0.3,0.2,0.5,0l2.9-2.8c0.1-0.1,0.1-0.3,0-0.5l-5.6-6.2c-0.1-0.1-0.3-0.4-0.3-0.6l-2.6-8.9
					c-0.1-0.2-0.2-0.4-0.4-0.4l-8.1-3c-0.2-0.1-0.4,0-0.6,0.1l-9.5,9.4c-0.1,0.1-0.3,0.4-0.4,0.6l-3.3,8.3c-0.1,0.2,0,0.4,0.2,0.5
					l3.1,1.6c0.2,0.1,0.4,0,0.4-0.2l3.3-8c0.1-0.2,0.2-0.4,0.4-0.6l3.7-3.6c0.1-0.1,0.2-0.1,0.2,0.1l-2,10.4c0,0.2-0.1,0.5-0.2,0.6
					l-7.2,12.4c-0.1,0.2,0,0.4,0.1,0.5l2.4,1.8c0.1,0.1,0.2,0.3,0.1,0.5L128,62.5c-0.1,0.2-0.1,0.4,0.1,0.5l4,2.9
					c0.2,0.1,0.4,0.1,0.5-0.1l8.8-12.9c0.1-0.2,0.3-0.3,0.5-0.3l3.5-0.2c0.2,0,0.5,0,0.7-0.1l3.2-0.4c0.2,0,0.4,0.1,0.4,0.3
					l4.2,13.2c0.1,0.2,0.2,0.3,0.4,0.2l4.8-1.4c0.2-0.1,0.3-0.2,0.2-0.4l-4.5-14c-0.1-0.2-0.2-0.5-0.2-0.6L149,36
					c-0.1-0.2-0.1-0.5-0.1-0.6l1-4.3c0-0.2,0.1-0.5,0.2-0.7l0.9-3.3c0-0.2,0.2-0.2,0.2,0l2.1,4.2c0.1,0.2,0.2,0.4,0.4,0.6L158.8,38z
					"/>
			</g>
		</g>
		<path d="M154.6,11c0,2.5-2,4.4-4.4,4.4c-2.5,0-4.4-2-4.4-4.4c0-2.5,2-4.4,4.4-4.4C152.6,6.5,154.6,8.5,154.6,11z"/>
	</g>
</g>
<g>
	<path class="st2" d="M127.2,24l0,15.1c0,0.2,0.2,0.4,0.4,0.4l48.1,0.1c0,0,0.1,0,0.1,0.1l16.6,0c0,0,0.1-0.1,0.1-0.1l43.6,0.1
		c0.4,0,0.8-0.4,0.8-0.8l0.1-14.8L127.2,24z"/>
	<path class="st2" d="M127.2,24c0-1,0.8-2.9,2.7-2.9c1.1,0,103.3,0,104.1,0c2,0,3,1.4,3,2.9C236.5,24.1,127.8,24,127.2,24z"/>
	<path class="st2" d="M127.7,38.9c0,1.3,1.2,3,2.6,3c1.1,0,102.1,0,102.9,0c2,0,3-2.1,3-3C235.6,39,128.3,38.9,127.7,38.9z"/>
	<path class="st3" d="M148.3,39.5c0,0,0-13.7,0-13.9c0-0.4-0.2-0.7-0.6-0.7c-0.1,0-4.1,0-4.1,0c-0.2,0-4,0-4.1,0
		c-0.5,0-0.6,0.4-0.6,0.7c0,0.3,0,13.9,0,13.9"/>
	<path class="st4" d="M147.4,25.2"/>
	<g class="st5">
		<path class="st6" d="M147.5,30.9c0,0.2-0.2,0.4-0.4,0.4h-7c-0.2,0-0.4-0.2-0.4-0.4v-4.8c0-0.2,0.2-0.4,0.4-0.4h7
			c0.2,0,0.4,0.2,0.4,0.4V30.9z"/>
	</g>
	<g class="st5">
		<path class="st6" d="M173.8,30.9c0,0.2-0.2,0.4-0.4,0.4h-6.7c-0.2,0-0.4-0.2-0.4-0.4v-4.8c0-0.2,0.2-0.4,0.4-0.4h6.7
			c0.2,0,0.4,0.2,0.4,0.4V30.9z"/>
	</g>
	<g class="st5">
		<path class="st6" d="M160.7,30.7c0,0.4-0.3,0.7-0.7,0.7h-7c-0.4,0-0.7-0.3-0.7-0.7v-4.4c0-0.4,0.3-0.7,0.7-0.7h7
			c0.4,0,0.7,0.3,0.7,0.7V30.7z"/>
	</g>
	<g class="st5">
		<path class="st6" d="M201,30.9c0,0.2-0.2,0.4-0.4,0.4h-7.2c-0.2,0-0.4-0.2-0.4-0.4v-4.8c0-0.2,0.2-0.4,0.4-0.4h7.2
			c0.2,0,0.4,0.2,0.4,0.4V30.9z"/>
	</g>
	<g class="st5">
		<path class="st6" d="M228.8,30.9c0,0.2-0.2,0.4-0.4,0.4h-7.2c-0.2,0-0.4-0.2-0.4-0.4v-4.8c0-0.2,0.2-0.4,0.4-0.4h7.2
			c0.2,0,0.4,0.2,0.4,0.4V30.9z"/>
	</g>
	<g class="st5">
		<path class="st6" d="M187.4,30.7c0,0.4-0.3,0.7-0.7,0.7h-7c-0.4,0-0.7-0.3-0.7-0.7v-4.4c0-0.4,0.3-0.7,0.7-0.7h7
			c0.4,0,0.7,0.3,0.7,0.7V30.7z"/>
	</g>
	<g class="st5">
		<path class="st6" d="M215.2,30.7c0,0.4-0.3,0.7-0.7,0.7h-7c-0.4,0-0.7-0.3-0.7-0.7v-4.4c0-0.4,0.3-0.7,0.7-0.7h7
			c0.4,0,0.7,0.3,0.7,0.7V30.7z"/>
	</g>
	<g class="st5">
		<path class="st6" d="M133,30.9c0,0.2-0.2,0.4-0.4,0.4h-2.3c-0.2,0-0.4-0.2-0.4-0.4V26c0-0.2,0.2-0.4,0.4-0.4h2.3
			c0.2,0,0.4,0.2,0.4,0.4V30.9z"/>
	</g>
	
		<ellipse transform="matrix(0.9999 -1.063603e-02 1.063603e-02 0.9999 -0.2886 1.444)" class="st7" cx="135.6" cy="27.9" rx="1.3" ry="1.3"/>
	
		<ellipse transform="matrix(1.288285e-02 -0.9999 0.9999 1.288285e-02 200.6113 261.5469)" class="st7" cx="232.8" cy="29.2" rx="1.3" ry="1.3"/>
	<path class="st8" d="M188.5,44.2"/>
	<path class="st3" d="M175.1,39.4c0,0,0-13.7,0-13.9c0-0.3-0.2-0.7-0.6-0.7c-0.1,0-4,0-4.2,0c0,0,0,0,0,0c-0.2,0-4.1,0-4.2,0
		c-0.5,0-0.6,0.4-0.6,0.7c0,0.3,0,14,0,14"/>
	<path class="st3" d="M201.9,39.6c0,0,0-13.8,0-14.1c0-0.3-0.2-0.7-0.6-0.7c-0.1,0-4,0-4.2,0c0,0,0,0,0,0c-0.2,0-4.1,0-4.2,0
		c-0.5,0-0.6,0.4-0.6,0.7c0,0.3,0,14.1,0,14.1"/>
	<path class="st3" d="M229.6,39.6c0,0,0-13.9,0-14.1c0-0.3-0.2-0.7-0.6-0.7c-0.1,0-4,0-4.2,0c0,0,0,0,0,0c-0.2,0-4.1,0-4.2,0
		c-0.5,0-0.6,0.4-0.6,0.7c0,0.3,0,14.2,0,14.2"/>
	<path class="st9" d="M127.2,38.9"/>
	<path class="st8" d="M126.9,38.9"/>
	<circle class="st2" cx="138.6" cy="42.4" r="2.7"/>
	<circle class="st2" cx="148.3" cy="42.4" r="2.7"/>
	<circle class="st7" cx="229.5" cy="42.4" r="2.7"/>
	<circle class="st2" cx="219.5" cy="42.4" r="2.7"/>
</g>
<g>
	<path class="st2" d="M13.7,24l0,15.1c0,0.2,0.2,0.4,0.4,0.4l48.1,0.1c0,0,0.1,0,0.1,0.1l16.6,0c0,0,0.1-0.1,0.1-0.1l43.6,0.1
		c0.4,0,0.8-0.4,0.8-0.8l0.1-14.8L13.7,24z"/>
	<path class="st2" d="M13.7,24c0-1,0.8-2.9,2.7-2.9c1.1,0,103.3,0,104.1,0c2,0,3,1.4,3,2.9C123,24.1,14.3,24,13.7,24z"/>
	<path class="st2" d="M14.2,38.9c0,1.3,1.2,3,2.6,3c1.1,0,102.1,0,102.9,0c2,0,3-2.1,3-3C122.1,39,14.8,38.9,14.2,38.9z"/>
	<path class="st3" d="M34.8,39.5c0,0,0-13.7,0-13.9c0-0.4-0.2-0.7-0.6-0.7c-0.1,0-4.1,0-4.1,0c-0.2,0-4,0-4.1,0
		c-0.5,0-0.6,0.4-0.6,0.7c0,0.3,0,13.9,0,13.9"/>
	<path class="st4" d="M33.9,25.2"/>
	<g class="st5">
		<path class="st6" d="M34,30.9c0,0.2-0.2,0.4-0.4,0.4h-7c-0.2,0-0.4-0.2-0.4-0.4v-4.8c0-0.2,0.2-0.4,0.4-0.4h7
			c0.2,0,0.4,0.2,0.4,0.4V30.9z"/>
	</g>
	<g class="st5">
		<path class="st6" d="M60.3,30.9c0,0.2-0.2,0.4-0.4,0.4h-6.7c-0.2,0-0.4-0.2-0.4-0.4v-4.8c0-0.2,0.2-0.4,0.4-0.4h6.7
			c0.2,0,0.4,0.2,0.4,0.4V30.9z"/>
	</g>
	<g class="st5">
		<path class="st6" d="M47.2,30.7c0,0.4-0.3,0.7-0.7,0.7h-7c-0.4,0-0.7-0.3-0.7-0.7v-4.4c0-0.4,0.3-0.7,0.7-0.7h7
			c0.4,0,0.7,0.3,0.7,0.7V30.7z"/>
	</g>
	<g class="st5">
		<path class="st6" d="M87.5,30.9c0,0.2-0.2,0.4-0.4,0.4h-7.2c-0.2,0-0.4-0.2-0.4-0.4v-4.8c0-0.2,0.2-0.4,0.4-0.4h7.2
			c0.2,0,0.4,0.2,0.4,0.4V30.9z"/>
	</g>
	<g class="st5">
		<path class="st6" d="M115.3,30.9c0,0.2-0.2,0.4-0.4,0.4h-7.2c-0.2,0-0.4-0.2-0.4-0.4v-4.8c0-0.2,0.2-0.4,0.4-0.4h7.2
			c0.2,0,0.4,0.2,0.4,0.4V30.9z"/>
	</g>
	<g class="st5">
		<path class="st6" d="M73.9,30.7c0,0.4-0.3,0.7-0.7,0.7h-7c-0.4,0-0.7-0.3-0.7-0.7v-4.4c0-0.4,0.3-0.7,0.7-0.7h7
			c0.4,0,0.7,0.3,0.7,0.7V30.7z"/>
	</g>
	<g class="st5">
		<path class="st6" d="M101.7,30.7c0,0.4-0.3,0.7-0.7,0.7h-7c-0.4,0-0.7-0.3-0.7-0.7v-4.4c0-0.4,0.3-0.7,0.7-0.7h7
			c0.4,0,0.7,0.3,0.7,0.7V30.7z"/>
	</g>
	<g class="st5">
		<path class="st6" d="M19.5,30.9c0,0.2-0.2,0.4-0.4,0.4h-2.3c-0.2,0-0.4-0.2-0.4-0.4V26c0-0.2,0.2-0.4,0.4-0.4h2.3
			c0.2,0,0.4,0.2,0.4,0.4V30.9z"/>
	</g>
	
		<ellipse transform="matrix(0.9999 -1.063603e-02 1.063603e-02 0.9999 -0.295 0.2368)" class="st7" cx="22.1" cy="27.9" rx="1.3" ry="1.3"/>
	
		<ellipse transform="matrix(1.288285e-02 -0.9999 0.9999 1.288285e-02 89.6964 146.9478)" class="st7" cx="119.3" cy="28" rx="1.3" ry="1.3"/>
	<path class="st8" d="M75,44.2"/>
	<path class="st3" d="M61.6,39.4c0,0,0-13.7,0-13.9c0-0.3-0.2-0.7-0.6-0.7c-0.1,0-4,0-4.2,0c0,0,0,0,0,0c-0.2,0-4.1,0-4.2,0
		c-0.5,0-0.6,0.4-0.6,0.7c0,0.3,0,14,0,14"/>
	<path class="st3" d="M88.4,39.6c0,0,0-13.8,0-14.1c0-0.3-0.2-0.7-0.6-0.7c-0.1,0-4,0-4.2,0c0,0,0,0,0,0c-0.2,0-4.1,0-4.2,0
		c-0.5,0-0.6,0.4-0.6,0.7c0,0.3,0,14.1,0,14.1"/>
	<path class="st3" d="M116.1,39.6c0,0,0-13.9,0-14.1c0-0.3-0.2-0.7-0.6-0.7c-0.1,0-4,0-4.2,0c0,0,0,0,0,0c-0.2,0-4.1,0-4.2,0
		c-0.5,0-0.6,0.4-0.6,0.7c0,0.3,0,14.2,0,14.2"/>
	<path class="st9" d="M13.7,38.9"/>
	<path class="st8" d="M13.4,38.9"/>
	<circle class="st2" cx="25.1" cy="42.4" r="2.7"/>
	<circle class="st2" cx="34.8" cy="42.4" r="2.7"/>
	<circle class="st2" cx="116" cy="42.4" r="2.7"/>
	<circle class="st2" cx="106" cy="42.4" r="2.7"/>
</g>
</svg>
