<?xml version="1.0" encoding="utf-8"?>
<!-- Generator: Adobe Illustrator 22.1.0, SVG Export Plug-In . SVG Version: 6.00 Build 0)  -->
<svg version="1.1" id="Layer_1" xmlns="http://www.w3.org/2000/svg" xmlns:xlink="http://www.w3.org/1999/xlink" x="0px" y="0px"
	 viewBox="0 0 388.6 91.7" style="enable-background:new 0 0 388.6 91.7;" xml:space="preserve">
<style type="text/css">
	.st0{fill:none;stroke:#FFFFFF;stroke-width:4;stroke-miterlimit:10;}
	.st1{fill:#F4C708;}
	.st2{fill:#F7E00D;}
</style>
<path class="st0" d="M66.3,9c0,0,5,4,3,9"/>
<g>
	<path class="st1" d="M347.3,91.6c16.5,0,28.3-7.9,32.3-10.9c0.8-0.6,1-1.8,0.4-2.7l-8.4-12.6c-0.6-1-2-1.2-2.9-0.5
		c-3.1,2.4-10.5,7.1-21.5,7.1c-13.1,0-21.7-9.2-23.5-16.6h-21.1C306.5,76.2,324.6,91.6,347.3,91.6z"/>
</g>
<g>
	<path class="st1" d="M246.1,59.5c0,17.9,12.4,29.9,28.8,29.9c9,0,15.7-3,18.7-4.6c0.9-0.5,1.3-1.6,0.9-2.6l-6.2-13.7
		c-0.5-1-1.7-1.5-2.7-1c-1.6,0.9-4.2,1.9-7.1,1.9c-5.7,0-11-3-11-13.3v-0.7h-21.3v4.1H246.1z"/>
</g>
<g>
	<path class="st1" d="M191.6,69.4c-8.2-0.3-14.9-6.2-16.6-14h-20.6c1.9,18.8,17.4,33.6,36.5,34.4l0,0c0.3,0,0.5,0,0.8,0s0.5,0,0.8,0
		l0,0c19.1-0.7,34.6-15.6,36.5-34.4h-20.7C206.5,63.2,199.8,69.1,191.6,69.4z"/>
</g>
<g>
	<path class="st1" d="M0.5,55.4v31.3c0,1.1,0.9,2,2,2h18.9c1.1,0,2-0.9,2-2V55.4H0.5z"/>
</g>
<g>
	<g>
		<path class="st2" d="M233.8,1.5c-13.7,0-24.8,11.1-24.8,24.8v24.4V51h20.3l0,0l0.1-23.4c0-3.1,1.9-5.6,5.7-5.7h10.8
			c0.1,0,0.2,0.1,0.2,0.2v28.6c0,0.1,0.1,0.2,0.2,0.2h20.9c0.1,0,0.2-0.1,0.2-0.2V22.2c0-0.1,0.1-0.2,0.2-0.2h40.1
			c0.2,0,0.2,0.2,0.2,0.3c-3.8,6.7-6,14.6-6,23.1c0,1.8,0.1,3.7,0.3,5.4c0,0.1,0.1,0.2,0.2,0.2h82c1.2,0,2.2-1,2.2-2.2
			c0-1.6,0-2.9,0-3.8c0-25.9-19.4-43.9-42.5-43.9c0,0,0,0-0.1,0l0.3-0.1l-109,0.5H233.8z M344.3,20.5c13.9,0,20.7,9.6,21.1,16.8
			c0,0.1-0.1,0.2-0.2,0.2h-41.3c-0.1,0-0.2-0.1-0.2-0.2C324.5,29.9,330.7,20.5,344.3,20.5z"/>
	</g>
</g>
<g>
	<path class="st2" d="M174.6,50.7V3c0-1.1-0.9-2-2-2h-16.4c-1.1,0-2,0.9-2,2v48h20.4C174.6,50.9,174.6,50.8,174.6,50.7z"/>
</g>
<g>
	<g>
		<path class="st2" d="M78.9,44.1L78.9,44.1L78.9,44.1z"/>
	</g>
	<g>
		<path class="st2" d="M79,42.4c0,0.2,0,0.4-0.1,0.6C79,42.8,79,42.6,79,42.4z"/>
	</g>
	<g>
		<path class="st2" d="M57.1,45.4c0-0.8,0-1.5,0.1-2.3C57.2,43.8,57.1,44.6,57.1,45.4z"/>
	</g>
	<g>
		<path class="st2" d="M79.5,39.5c-0.1,0.4-0.2,0.7-0.2,1.1C79.3,40.2,79.4,39.9,79.5,39.5z"/>
	</g>
	<g>
		<path class="st2" d="M79.7,38.4c-0.1,0.3-0.2,0.7-0.3,1C79.6,39.1,79.6,38.8,79.7,38.4z"/>
	</g>
	<g>
		<path class="st2" d="M57.3,42.3c0-0.5,0.1-1,0.1-1.6C57.3,41.3,57.3,41.8,57.3,42.3z"/>
	</g>
	<g>
		<path class="st2" d="M79.2,41c0,0.2-0.1,0.5-0.1,0.7C79.1,41.5,79.1,41.3,79.2,41z"/>
	</g>
	<g>
		<path class="st2" d="M61,27.3c0.2-0.4,0.4-0.9,0.6-1.3C61.4,26.4,61.2,26.9,61,27.3z"/>
	</g>
	<g>
		<path class="st2" d="M60.2,29.3c0.2-0.4,0.3-0.9,0.5-1.3C60.5,28.4,60.3,28.9,60.2,29.3z"/>
	</g>
	<g>
		<path class="st2" d="M61.9,25.4c0.2-0.4,0.4-0.8,0.7-1.3C62.3,24.5,62.1,25,61.9,25.4z"/>
	</g>
	<g>
		<path class="st2" d="M59.4,31.3c0.1-0.4,0.3-0.9,0.5-1.3C59.7,30.4,59.6,30.9,59.4,31.3z"/>
	</g>
	<g>
		<path class="st2" d="M57.8,37.7c0.1-0.5,0.2-0.9,0.2-1.4C58,36.8,57.9,37.3,57.8,37.7z"/>
	</g>
	<g>
		<path class="st2" d="M58.2,35.6c0.1-0.5,0.2-1,0.3-1.4C58.5,34.6,58.3,35.1,58.2,35.6z"/>
	</g>
	<g>
		<path class="st2" d="M58.8,33.5c0.1-0.5,0.3-0.9,0.4-1.4C59,32.5,58.9,33,58.8,33.5z"/>
	</g>
	<g>
		<path class="st2" d="M90.3,24.2c-0.3,0.2-0.6,0.4-0.9,0.6C89.7,24.5,90,24.3,90.3,24.2z"/>
	</g>
	<g>
		<path class="st2" d="M98.6,1.4c0.4,0,0.8-0.1,1.2-0.1C99.4,1.3,99,1.3,98.6,1.4z"/>
	</g>
	<g>
		<path class="st2" d="M101.5,21.2c-0.2,0-0.5,0-0.7,0C101,21.2,101.2,21.2,101.5,21.2z"/>
	</g>
	<g>
		<path class="st2" d="M102.1,1.2c-0.4,0-0.8,0-1.1,0c0.4,0,0.8,0,1.3,0C102.2,1.2,102.1,1.2,102.1,1.2z"/>
	</g>
	<g>
		<path class="st2" d="M96.3,1.6c0.4,0,0.8-0.1,1.2-0.1C97.1,1.5,96.7,1.6,96.3,1.6z"/>
	</g>
	<g>
		<path class="st2" d="M89.6,2.9c0.4-0.1,0.8-0.2,1.2-0.3C90.4,2.7,90,2.8,89.6,2.9z"/>
	</g>
	<g>
		<path class="st2" d="M91.8,2.4c0.4-0.1,0.8-0.2,1.2-0.3C92.6,2.2,92.2,2.3,91.8,2.4z"/>
	</g>
	<g>
		<path class="st2" d="M94,1.9c0.4-0.1,0.8-0.1,1.2-0.2C94.9,1.8,94.4,1.9,94,1.9z"/>
	</g>
	<g>
		<path class="st2" d="M99,21.3c-0.2,0-0.5,0.1-0.7,0.1C98.5,21.4,98.7,21.4,99,21.3z"/>
	</g>
	<g>
		<path class="st2" d="M95.5,22c-0.3,0.1-0.6,0.2-0.9,0.2C94.9,22.2,95.2,22.1,95.5,22z"/>
	</g>
	<g>
		<path class="st2" d="M94.4,22.3c-0.3,0.1-0.6,0.2-0.9,0.3C93.8,22.5,94.1,22.4,94.4,22.3z"/>
	</g>
	<g>
		<path class="st2" d="M93.3,22.7c-0.3,0.1-0.6,0.2-0.9,0.4C92.7,23,93,22.8,93.3,22.7z"/>
	</g>
	<g>
		<path class="st2" d="M97.8,21.5c-0.3,0-0.5,0.1-0.8,0.1C97.3,21.6,97.5,21.5,97.8,21.5z"/>
	</g>
	<g>
		<path class="st2" d="M91.3,23.6c-0.3,0.2-0.6,0.3-0.9,0.5C90.7,24,91,23.8,91.3,23.6z"/>
	</g>
	<g>
		<path class="st2" d="M96.6,21.7c-0.3,0.1-0.6,0.1-0.8,0.2C96.1,21.8,96.3,21.8,96.6,21.7z"/>
	</g>
	<g>
		<path class="st2" d="M100.2,21.2c-0.2,0-0.5,0-0.7,0.1C99.7,21.2,100,21.2,100.2,21.2z"/>
	</g>
	<g>
		<path class="st2" d="M57.5,40c0.1-0.5,0.1-1,0.2-1.4C57.6,39,57.5,39.5,57.5,40z"/>
	</g>
	<g>
		<path class="st2" d="M79.8,38.3c1.5-5.7,4.8-10.5,9.6-13.6C84.6,27.8,81.3,32.7,79.8,38.3z"/>
	</g>
	<g>
		<path class="st2" d="M63,23.4L63,23.4C63,23.5,63,23.4,63,23.4L63,23.4z"/>
	</g>
	<g>
		<path class="st2" d="M88.7,3.2c-0.2,0.1-0.4,0.1-0.6,0.2l0,0C88.3,3.3,88.5,3.2,88.7,3.2z"/>
	</g>
	<g>
		<path class="st2" d="M91.4,23.6c0.1-0.1,0.3-0.1,0.4-0.2l0,0C91.7,23.4,91.5,23.5,91.4,23.6z"/>
	</g>
	<g>
		<path class="st2" d="M79.4,7.1c0.4-0.2,0.8-0.5,1.2-0.7C80.2,6.7,79.8,6.9,79.4,7.1z"/>
	</g>
	<g>
		<path class="st2" d="M81.4,6.1c0.4-0.2,0.8-0.4,1.2-0.6C82.2,5.7,81.8,5.9,81.4,6.1z"/>
	</g>
	<g>
		<path class="st2" d="M77.6,8.2C78,8,78.4,7.7,78.8,7.5C78.4,7.7,78,8,77.6,8.2z"/>
	</g>
	<g>
		<path class="st2" d="M75.8,9.4c0.4-0.3,0.8-0.5,1.2-0.8C76.5,8.9,76.2,9.2,75.8,9.4z"/>
	</g>
	<g>
		<path class="st2" d="M88.1,3.4L88.1,3.4c-0.2,0.1-0.4,0.1-0.6,0.2C87.7,3.5,87.9,3.4,88.1,3.4z"/>
	</g>
	<g>
		<path class="st2" d="M85.4,4.3c0.4-0.2,0.8-0.3,1.2-0.5C86.2,4,85.8,4.2,85.4,4.3z"/>
	</g>
	<g>
		<path class="st2" d="M91.8,23.4L91.8,23.4c0.2-0.1,0.3-0.2,0.5-0.2C92.1,23.2,92,23.3,91.8,23.4z"/>
	</g>
	<g>
		<path class="st2" d="M63.7,22.3c-0.2,0.4-0.4,0.7-0.6,1.1l0,0C63.2,23,63.4,22.6,63.7,22.3z"/>
	</g>
	<g>
		<path class="st2" d="M83.4,5.1c0.4-0.2,0.8-0.4,1.2-0.5C84.2,4.8,83.8,5,83.4,5.1z"/>
	</g>
	<g>
		<path class="st2" d="M69.5,3.4H51.3c-10.9,0-20.3,2.5-27.9,7.1V4c0-1.1-0.9-2-2-2L2.5,1.9c-1.1,0-2,0.9-2,2V51h20.9l0,0h1.9
			c0.8-18.9,9.5-27.6,28-27.6h4.8c0.7,0,1.4-0.4,1.8-1.1c3.2-6,7.5-11.2,12.8-15.4C72.2,5.8,71.4,3.4,69.5,3.4z"/>
	</g>
	<g>
		<path class="st2" d="M74,10.7c0.4-0.3,0.8-0.6,1.1-0.9C74.8,10.1,74.4,10.4,74,10.7z"/>
	</g>
	<g>
		<path class="st2" d="M70.8,13.5c0.3-0.3,0.7-0.6,1-1C71.5,12.8,71.2,13.2,70.8,13.5z"/>
	</g>
	<g>
		<path class="st2" d="M67.9,16.6c0.3-0.4,0.6-0.7,1-1.1C68.5,15.8,68.2,16.2,67.9,16.6z"/>
	</g>
	<g>
		<path class="st2" d="M65.2,19.9c0.3-0.4,0.6-0.8,0.9-1.2C65.8,19.1,65.5,19.5,65.2,19.9z"/>
	</g>
	<g>
		<path class="st2" d="M69.3,15c0.3-0.3,0.7-0.7,1-1C69.9,14.3,69.6,14.7,69.3,15z"/>
	</g>
	<g>
		<path class="st2" d="M66.5,18.2c0.3-0.4,0.6-0.8,0.9-1.1C67.1,17.4,66.8,17.8,66.5,18.2z"/>
	</g>
	<g>
		<path class="st2" d="M64,21.7c0.3-0.4,0.5-0.8,0.8-1.2C64.5,20.9,64.3,21.3,64,21.7z"/>
	</g>
	<g>
		<path class="st2" d="M72.4,12.1c0.4-0.3,0.7-0.6,1.1-0.9C73.1,11.4,72.7,11.8,72.4,12.1z"/>
	</g>
	<g>
		<path class="st2" d="M91.8,23.4h0.5v-0.2l0,0C92.1,23.2,92,23.3,91.8,23.4z"/>
	</g>
	<g>
		<path class="st2" d="M102.2,1.2c-0.4,0-0.8,0-1.3,0c-0.4,0-0.8,0-1.1,0c-0.4,0-0.8,0.1-1.2,0.1c-0.4,0-0.7,0-1.1,0.1
			c-0.4,0-0.8,0.1-1.2,0.1c-0.4,0-0.7,0.1-1.1,0.1c-0.4,0.1-0.8,0.1-1.2,0.2c-0.3,0.1-0.7,0.1-1,0.2c-0.4,0.1-0.8,0.2-1.2,0.3
			c-0.3,0.1-0.6,0.1-1,0.2c-0.4,0.1-0.8,0.2-1.2,0.3C89.3,2.9,89,3,88.7,3c-0.2,0.1-0.4,0.1-0.6,0.2c-0.2,0.1-0.4,0.1-0.6,0.2
			c-0.3,0.1-0.6,0.2-0.9,0.3c-0.4,0.1-0.8,0.3-1.2,0.5c-0.3,0.1-0.6,0.2-0.8,0.3c-0.4,0.2-0.8,0.3-1.2,0.5c-0.3,0.1-0.5,0.2-0.8,0.3
			c-0.4,0.2-0.8,0.4-1.2,0.6c-0.2,0.1-0.5,0.2-0.7,0.4c-0.4,0.2-0.8,0.4-1.2,0.7c-0.2,0.1-0.5,0.2-0.7,0.4c-0.4,0.2-0.8,0.5-1.2,0.7
			c-0.2,0.1-0.4,0.3-0.6,0.4c-0.4,0.3-0.8,0.5-1.2,0.8c-0.2,0.1-0.4,0.3-0.6,0.4c-0.4,0.3-0.8,0.6-1.1,0.9c-0.2,0.1-0.4,0.3-0.6,0.4
			c-0.4,0.3-0.7,0.6-1.1,0.9c-0.2,0.2-0.4,0.3-0.5,0.4c-0.4,0.3-0.7,0.6-1,1c-0.2,0.2-0.4,0.3-0.5,0.5c-0.3,0.3-0.7,0.7-1,1
			c-0.2,0.2-0.3,0.3-0.5,0.5c-0.3,0.4-0.6,0.7-1,1.1c-0.2,0.2-0.3,0.3-0.5,0.5c-0.3,0.4-0.6,0.7-0.9,1.1c-0.1,0.2-0.3,0.4-0.4,0.5
			c-0.3,0.4-0.6,0.8-0.9,1.2c-0.1,0.2-0.3,0.4-0.4,0.5c-0.3,0.4-0.5,0.8-0.8,1.2c-0.1,0.2-0.3,0.4-0.4,0.6c-0.2,0.4-0.4,0.7-0.6,1.1
			l-0.1,0.1c-0.1,0.2-0.2,0.4-0.4,0.6c-0.2,0.4-0.4,0.8-0.7,1.3c-0.1,0.2-0.2,0.4-0.3,0.6c-0.2,0.4-0.4,0.9-0.6,1.3
			c-0.1,0.2-0.2,0.4-0.3,0.7c-0.2,0.4-0.3,0.9-0.5,1.3c-0.1,0.2-0.2,0.5-0.3,0.7c-0.2,0.4-0.3,0.9-0.5,1.3c-0.1,0.2-0.2,0.5-0.3,0.7
			c-0.1,0.5-0.3,0.9-0.4,1.4c-0.1,0.2-0.1,0.5-0.2,0.7c-0.1,0.5-0.2,0.9-0.3,1.4c-0.1,0.2-0.1,0.5-0.2,0.7c-0.1,0.5-0.2,0.9-0.2,1.4
			c0,0.3-0.1,0.5-0.1,0.8c-0.1,0.5-0.1,1-0.2,1.4c0,0.3-0.1,0.5-0.1,0.8c-0.1,0.5-0.1,1-0.1,1.6c0,0.2,0,0.5-0.1,0.7
			c0,0.8-0.1,1.5-0.1,2.3c0,1.9,0.1,3.8,0.4,5.6h21.9c-0.4-1.8-0.6-3.7-0.6-5.6c0-0.4,0-0.8,0-1.2v-0.1c0-0.4,0-0.7,0.1-1.1
			c0-0.2,0-0.4,0.1-0.6c0-0.2,0-0.4,0.1-0.6c0-0.3,0.1-0.5,0.1-0.7c0-0.1,0-0.3,0.1-0.4c0.1-0.4,0.1-0.7,0.2-1.1c0,0,0,0,0-0.1
			c0.1-0.3,0.2-0.7,0.3-1v-0.1c1.5-5.7,4.8-10.5,9.6-13.6l0,0c0.3-0.2,0.6-0.4,0.9-0.6l0,0c0.3-0.2,0.6-0.3,0.9-0.5c0,0,0,0,0.1,0
			c0.1-0.1,0.3-0.1,0.4-0.2c0.2-0.1,0.3-0.2,0.5-0.2l0,0c0,0,0.1,0,0.1-0.1c0.3-0.1,0.6-0.3,0.9-0.4c0.1,0,0.1-0.1,0.2-0.1
			c0.3-0.1,0.6-0.2,0.9-0.3c0.1,0,0.2-0.1,0.2-0.1c0.3-0.1,0.6-0.2,0.9-0.2c0.1,0,0.2-0.1,0.3-0.1c0.3-0.1,0.5-0.1,0.8-0.2
			c0.1,0,0.3-0.1,0.4-0.1c0.3-0.1,0.5-0.1,0.8-0.1c0.1,0,0.3-0.1,0.4-0.1c0.2,0,0.5-0.1,0.7-0.1s0.3,0,0.5-0.1c0.2,0,0.5,0,0.7-0.1
			c0.2,0,0.4,0,0.6,0s0.5,0,0.7,0s0.4,0,0.6,0c0,0,0,0,0.1,0c14.4,0,23.3,11.3,23.2,24.4c0,1.9-0.2,3.7-0.6,5.5h21.9
			c0.2-1.8,0.4-3.6,0.4-5.4C147.1,20.7,127.3,1.3,102.2,1.2z"/>
	</g>
	<g>
		<path class="st2" d="M91.4,23.6C91.3,23.6,91.3,23.6,91.4,23.6C91.3,23.6,91.3,23.6,91.4,23.6z"/>
	</g>
	<g>
		<path class="st2" d="M93.5,22.6c-0.1,0-0.1,0-0.2,0.1C93.4,22.7,93.4,22.7,93.5,22.6z"/>
	</g>
	<g>
		<path class="st2" d="M62.6,24.1c0.1-0.2,0.2-0.4,0.4-0.6C62.8,23.7,62.7,23.9,62.6,24.1z"/>
	</g>
	<g>
		<path class="st2" d="M61.6,26c0.1-0.2,0.2-0.4,0.3-0.6C61.8,25.6,61.7,25.8,61.6,26z"/>
	</g>
	<g>
		<path class="st2" d="M60.7,28c0.1-0.2,0.2-0.4,0.3-0.7C60.9,27.5,60.8,27.8,60.7,28z"/>
	</g>
	<g>
		<path class="st2" d="M89.4,24.7L89.4,24.7L89.4,24.7z"/>
	</g>
	<g>
		<path class="st2" d="M90.3,24.1L90.3,24.1L90.3,24.1z"/>
	</g>
	<g>
		<path class="st2" d="M90.9,2.6c0.3-0.1,0.6-0.1,1-0.2C91.5,2.4,91.2,2.5,90.9,2.6z"/>
	</g>
	<g>
		<path class="st2" d="M79.8,38.3L79.8,38.3C79.7,38.4,79.7,38.3,79.8,38.3z"/>
	</g>
	<g>
		<path class="st2" d="M98.2,21.4c-0.1,0-0.3,0.1-0.4,0.1C97.9,21.5,98.1,21.4,98.2,21.4z"/>
	</g>
	<g>
		<path class="st2" d="M94.6,22.3c-0.1,0-0.2,0.1-0.2,0.1C94.5,22.3,94.6,22.3,94.6,22.3z"/>
	</g>
	<g>
		<path class="st2" d="M92.3,23.1C92.3,23.1,92.4,23.1,92.3,23.1C92.4,23.1,92.3,23.1,92.3,23.1L92.3,23.1z"/>
	</g>
	<g>
		<path class="st2" d="M97,21.6c-0.1,0-0.3,0.1-0.4,0.1C96.7,21.7,96.9,21.7,97,21.6z"/>
	</g>
	<g>
		<path class="st2" d="M101.5,21.2c0.2,0,0.5,0,0.7,0c0,0,0,0-0.1,0C101.9,21.1,101.7,21.1,101.5,21.2z"/>
	</g>
	<g>
		<path class="st2" d="M97.5,1.5c0.4,0,0.7-0.1,1.1-0.1C98.3,1.4,97.9,1.4,97.5,1.5z"/>
	</g>
	<g>
		<path class="st2" d="M88.7,3.2C89,3.1,89.3,3,89.6,3C89.3,3,89,3.1,88.7,3.2z"/>
	</g>
	<g>
		<path class="st2" d="M95.8,21.9c-0.1,0-0.2,0.1-0.3,0.1C95.6,22,95.7,21.9,95.8,21.9z"/>
	</g>
	<g>
		<path class="st2" d="M57.7,38.5c0-0.3,0.1-0.5,0.1-0.8C57.8,38,57.7,38.3,57.7,38.5z"/>
	</g>
	<g>
		<path class="st2" d="M93,2.1C93.3,2,93.7,2,94,1.9C93.7,2,93.4,2,93,2.1z"/>
	</g>
	<g>
		<path class="st2" d="M57.2,43.1c0-0.2,0-0.5,0.1-0.7C57.3,42.6,57.2,42.8,57.2,43.1z"/>
	</g>
	<g>
		<path class="st2" d="M57.4,40.8c0-0.3,0.1-0.5,0.1-0.8C57.5,40.3,57.4,40.5,57.4,40.8z"/>
	</g>
	<g>
		<path class="st2" d="M99.8,1.3c0.4,0,0.8,0,1.1,0C100.6,1.3,100.2,1.3,99.8,1.3z"/>
	</g>
	<g>
		<path class="st2" d="M78.9,44.2c0,0.4,0,0.8,0,1.2C78.8,45,78.8,44.6,78.9,44.2z"/>
	</g>
	<g>
		<path class="st2" d="M99.5,21.3c-0.2,0-0.3,0-0.5,0.1C99.1,21.3,99.3,21.3,99.5,21.3z"/>
	</g>
	<g>
		<path class="st2" d="M58.1,36.3c0.1-0.2,0.1-0.5,0.2-0.7C58.2,35.8,58.1,36.1,58.1,36.3z"/>
	</g>
	<g>
		<path class="st2" d="M58.6,34.2c0.1-0.2,0.1-0.5,0.2-0.7C58.7,33.7,58.6,33.9,58.6,34.2z"/>
	</g>
	<g>
		<path class="st2" d="M59.2,32.1c0.1-0.2,0.2-0.5,0.3-0.7C59.3,31.6,59.3,31.8,59.2,32.1z"/>
	</g>
	<g>
		<path class="st2" d="M79.2,40.6c0,0.1,0,0.3-0.1,0.4C79.2,40.9,79.2,40.8,79.2,40.6z"/>
	</g>
	<g>
		<path class="st2" d="M79.5,39.5L79.5,39.5L79.5,39.5z"/>
	</g>
	<g>
		<path class="st2" d="M100.8,21.2c-0.2,0-0.4,0-0.6,0C100.4,21.2,100.6,21.2,100.8,21.2z"/>
	</g>
	<g>
		<path class="st2" d="M78.9,43c0,0.4-0.1,0.7-0.1,1.1C78.9,43.7,78.9,43.3,78.9,43z"/>
	</g>
	<g>
		<path class="st2" d="M95.3,1.7c0.3-0.1,0.7-0.1,1.1-0.1C96,1.6,95.6,1.7,95.3,1.7z"/>
	</g>
	<g>
		<path class="st2" d="M59.9,30c0.1-0.2,0.2-0.5,0.3-0.7C60.1,29.5,60,29.8,59.9,30z"/>
	</g>
	<g>
		<path class="st2" d="M79.1,41.8c0,0.2,0,0.4-0.1,0.6C79,42.2,79,42,79.1,41.8z"/>
	</g>
	<g>
		<path class="st2" d="M80.6,6.5c0.2-0.1,0.5-0.2,0.7-0.4C81.1,6.2,80.9,6.3,80.6,6.5z"/>
	</g>
	<g>
		<path class="st2" d="M68.8,15.5c0.2-0.2,0.3-0.3,0.5-0.5C69.1,15.2,69,15.3,68.8,15.5z"/>
	</g>
	<g>
		<path class="st2" d="M67.4,17.1c0.1-0.2,0.3-0.3,0.5-0.5C67.7,16.7,67.5,16.9,67.4,17.1z"/>
	</g>
	<g>
		<path class="st2" d="M92.3,23.1L92.3,23.1L92.3,23.1L92.3,23.1z"/>
	</g>
	<g>
		<path class="st2" d="M71.9,12.5c0.2-0.2,0.4-0.3,0.5-0.4C72.2,12.2,72,12.4,71.9,12.5z"/>
	</g>
	<g>
		<path class="st2" d="M73.5,11.1c0.2-0.1,0.4-0.3,0.6-0.4C73.9,10.9,73.7,11,73.5,11.1z"/>
	</g>
	<g>
		<path class="st2" d="M64.8,20.5c0.1-0.2,0.3-0.4,0.4-0.5C65.1,20.1,64.9,20.3,64.8,20.5z"/>
	</g>
	<g>
		<path class="st2" d="M70.3,14c0.2-0.2,0.4-0.3,0.5-0.5C70.6,13.6,70.5,13.8,70.3,14z"/>
	</g>
	<g>
		<path class="st2" d="M66.1,18.7c0.1-0.2,0.3-0.4,0.4-0.5C66.4,18.4,66.2,18.6,66.1,18.7z"/>
	</g>
	<g>
		<path class="st2" d="M84.6,4.6c0.3-0.1,0.5-0.2,0.8-0.3C85.1,4.4,84.8,4.5,84.6,4.6z"/>
	</g>
	<g>
		<path class="st2" d="M86.6,3.8c0.3-0.1,0.6-0.2,0.9-0.3C87.2,3.7,86.9,3.7,86.6,3.8z"/>
	</g>
	<g>
		<path class="st2" d="M82.6,5.5c0.3-0.1,0.5-0.2,0.8-0.3C83.1,5.3,82.8,5.4,82.6,5.5z"/>
	</g>
	<g>
		<path class="st2" d="M63.7,22.3c0.1-0.2,0.3-0.4,0.4-0.6C63.9,21.9,63.8,22.1,63.7,22.3z"/>
	</g>
	<g>
		<path class="st2" d="M78.8,7.5c0.2-0.1,0.5-0.2,0.7-0.4C79.2,7.2,79,7.4,78.8,7.5z"/>
	</g>
	<g>
		<path class="st2" d="M75.2,9.8c0.2-0.1,0.4-0.3,0.6-0.4C75.6,9.6,75.4,9.7,75.2,9.8z"/>
	</g>
	<g>
		<path class="st2" d="M76.9,8.6c0.2-0.1,0.4-0.3,0.6-0.4C77.4,8.4,77.1,8.5,76.9,8.6z"/>
	</g>
</g>
<g>
	<path class="st1" d="M102,71.8c-11.3,0-19.2-7-22.1-16.3l-22.1-0.1c3.7,20.8,21.9,36.2,44.1,36.3c22.3,0.1,40.5-15.3,44.3-36.1
		l-22.1-0.1C121.3,64.9,113.4,71.9,102,71.8z"/>
</g>
</svg>
