<?xml version="1.0" encoding="utf-8"?>
<!-- Generator: Adobe Illustrator 22.1.0, SVG Export Plug-In . SVG Version: 6.00 Build 0)  -->
<svg version="1.1" id="Layer_1" xmlns="http://www.w3.org/2000/svg" xmlns:xlink="http://www.w3.org/1999/xlink" x="0px" y="0px"
	 viewBox="0 0 387.8 91.4" style="enable-background:new 0 0 387.8 91.4;" xml:space="preserve">
<style type="text/css">
	.st0{fill:#5E9913;}
	.st1{fill:#ABD807;}
</style>
<g>
	<path class="st0" d="M347.5,90.6c16.5,0,28.3-7.9,32.3-10.9c0.8-0.6,1-1.8,0.4-2.7l-8.4-12.6c-0.6-1-2-1.2-2.9-0.5
		c-3.1,2.4-10.5,7.1-21.5,7.1c-13.1,0-21.7-9.2-23.5-16.6h-21.1C306.7,75.2,324.8,90.6,347.5,90.6z"/>
</g>
<g>
	<path class="st0" d="M246.3,58.5c0,17.9,12.4,29.9,28.8,29.9c9,0,15.7-3,18.7-4.6c0.9-0.5,1.3-1.6,0.9-2.6l-6.2-13.7
		c-0.5-1-1.7-1.5-2.7-1c-1.6,0.9-4.2,1.9-7.1,1.9c-5.7,0-11-3-11-13.3v-0.7h-21.3L246.3,58.5L246.3,58.5z"/>
</g>
<g>
	<path class="st0" d="M191.8,68.4c-8.2-0.3-14.9-6.2-16.6-14h-20.6c1.9,18.8,17.4,33.6,36.5,34.4l0,0c0.3,0,0.5,0,0.8,0s0.5,0,0.8,0
		l0,0c19.1-0.7,34.6-15.6,36.5-34.4h-20.7C206.7,62.2,200,68.1,191.8,68.4z"/>
</g>
<g>
	<path class="st0" d="M0.7,54.4v31.3c0,1.1,0.9,2,2,2h18.9c1.1,0,2-0.9,2-2V54.4H0.7z"/>
</g>
<g>
	<g>
		<path class="st1" d="M234,0.5c-13.7,0-24.8,11.1-24.8,24.8v24.4V50h20.3l0,0l0.1-23.4c0-3.1,1.9-5.6,5.7-5.7h10.8
			c0.1,0,0.2,0.1,0.2,0.2v28.6c0,0.1,0.1,0.2,0.2,0.2h20.9c0.1,0,0.2-0.1,0.2-0.2V21.2c0-0.1,0.1-0.2,0.2-0.2h40.1
			c0.2,0,0.2,0.2,0.2,0.3c-3.8,6.7-6,14.6-6,23.1c0,1.8,0.1,3.7,0.3,5.4c0,0.1,0.1,0.2,0.2,0.2h82c1.2,0,2.2-1,2.2-2.2
			c0-1.6,0-2.9,0-3.8c0-25.9-19.4-43.9-42.5-43.9c0,0,0,0-0.1,0l0.3-0.1l-109,0.5H234z M344.5,19.5c13.9,0,20.7,9.6,21.1,16.8
			c0,0.1-0.1,0.2-0.2,0.2h-41.3c-0.1,0-0.2-0.1-0.2-0.2C324.7,28.9,330.9,19.5,344.5,19.5z"/>
	</g>
</g>
<g>
	<path class="st1" d="M174.8,49.7V2c0-1.1-0.9-2-2-2h-16.4c-1.1,0-2,0.9-2,2v48h20.4C174.8,49.9,174.8,49.8,174.8,49.7z"/>
</g>
<g>
	<g>
		<path class="st1" d="M79.1,43.1L79.1,43.1L79.1,43.1z"/>
	</g>
	<g>
		<path class="st1" d="M79.2,41.4c0,0.2,0,0.4-0.1,0.6C79.2,41.8,79.2,41.6,79.2,41.4z"/>
	</g>
	<g>
		<path class="st1" d="M57.3,44.4c0-0.8,0-1.5,0.1-2.3C57.4,42.8,57.3,43.6,57.3,44.4z"/>
	</g>
	<g>
		<path class="st1" d="M79.7,38.5c-0.1,0.4-0.2,0.7-0.2,1.1C79.5,39.2,79.6,38.9,79.7,38.5z"/>
	</g>
	<g>
		<path class="st1" d="M79.9,37.4c-0.1,0.3-0.2,0.7-0.3,1C79.8,38.1,79.8,37.8,79.9,37.4z"/>
	</g>
	<g>
		<path class="st1" d="M57.5,41.3c0-0.5,0.1-1,0.1-1.6C57.5,40.3,57.5,40.8,57.5,41.3z"/>
	</g>
	<g>
		<path class="st1" d="M79.4,40c0,0.2-0.1,0.5-0.1,0.7C79.3,40.5,79.3,40.3,79.4,40z"/>
	</g>
	<g>
		<path class="st1" d="M61.2,26.3c0.2-0.4,0.4-0.9,0.6-1.3C61.6,25.4,61.4,25.9,61.2,26.3z"/>
	</g>
	<g>
		<path class="st1" d="M60.4,28.3c0.2-0.4,0.3-0.9,0.5-1.3C60.7,27.4,60.5,27.9,60.4,28.3z"/>
	</g>
	<g>
		<path class="st1" d="M62.1,24.4c0.2-0.4,0.4-0.8,0.7-1.3C62.5,23.5,62.3,24,62.1,24.4z"/>
	</g>
	<g>
		<path class="st1" d="M59.6,30.3c0.1-0.4,0.3-0.9,0.5-1.3C59.9,29.4,59.8,29.9,59.6,30.3z"/>
	</g>
	<g>
		<path class="st1" d="M58,36.7c0.1-0.5,0.2-0.9,0.2-1.4C58.2,35.8,58.1,36.3,58,36.7z"/>
	</g>
	<g>
		<path class="st1" d="M58.4,34.6c0.1-0.5,0.2-1,0.3-1.4C58.7,33.6,58.5,34.1,58.4,34.6z"/>
	</g>
	<g>
		<path class="st1" d="M59,32.5c0.1-0.5,0.3-0.9,0.4-1.4C59.2,31.5,59.1,32,59,32.5z"/>
	</g>
	<g>
		<path class="st1" d="M90.5,23.2c-0.3,0.2-0.6,0.4-0.9,0.6C89.9,23.5,90.2,23.3,90.5,23.2z"/>
	</g>
	<g>
		<path class="st1" d="M98.8,0.4c0.4,0,0.8-0.1,1.2-0.1C99.6,0.3,99.2,0.3,98.8,0.4z"/>
	</g>
	<g>
		<path class="st1" d="M101.7,20.2c-0.2,0-0.5,0-0.7,0C101.2,20.2,101.4,20.2,101.7,20.2z"/>
	</g>
	<g>
		<path class="st1" d="M102.3,0.2c-0.4,0-0.8,0-1.1,0c0.4,0,0.8,0,1.3,0C102.4,0.2,102.3,0.2,102.3,0.2z"/>
	</g>
	<g>
		<path class="st1" d="M96.5,0.6c0.4,0,0.8-0.1,1.2-0.1C97.3,0.5,96.9,0.6,96.5,0.6z"/>
	</g>
	<g>
		<path class="st1" d="M89.8,1.9c0.4-0.1,0.8-0.2,1.2-0.3C90.6,1.7,90.2,1.8,89.8,1.9z"/>
	</g>
	<g>
		<path class="st1" d="M92,1.4c0.4-0.1,0.8-0.2,1.2-0.3C92.8,1.2,92.4,1.3,92,1.4z"/>
	</g>
	<g>
		<path class="st1" d="M94.2,0.9c0.4-0.1,0.8-0.1,1.2-0.2C95.1,0.8,94.6,0.9,94.2,0.9z"/>
	</g>
	<g>
		<path class="st1" d="M99.2,20.3c-0.2,0-0.5,0.1-0.7,0.1C98.7,20.4,98.9,20.4,99.2,20.3z"/>
	</g>
	<g>
		<path class="st1" d="M95.7,21c-0.3,0.1-0.6,0.2-0.9,0.2C95.1,21.2,95.4,21.1,95.7,21z"/>
	</g>
	<g>
		<path class="st1" d="M94.6,21.3c-0.3,0.1-0.6,0.2-0.9,0.3C94,21.5,94.3,21.4,94.6,21.3z"/>
	</g>
	<g>
		<path class="st1" d="M93.5,21.7c-0.3,0.1-0.6,0.2-0.9,0.4C92.9,22,93.2,21.8,93.5,21.7z"/>
	</g>
	<g>
		<path class="st1" d="M98,20.5c-0.3,0-0.5,0.1-0.8,0.1C97.5,20.6,97.7,20.5,98,20.5z"/>
	</g>
	<g>
		<path class="st1" d="M91.5,22.6c-0.3,0.2-0.6,0.3-0.9,0.5C90.9,23,91.2,22.8,91.5,22.6z"/>
	</g>
	<g>
		<path class="st1" d="M96.8,20.7c-0.3,0.1-0.6,0.1-0.8,0.2C96.3,20.8,96.5,20.8,96.8,20.7z"/>
	</g>
	<g>
		<path class="st1" d="M100.4,20.2c-0.2,0-0.5,0-0.7,0.1C99.9,20.2,100.2,20.2,100.4,20.2z"/>
	</g>
	<g>
		<path class="st1" d="M57.7,39c0.1-0.5,0.1-1,0.2-1.4C57.8,38,57.7,38.5,57.7,39z"/>
	</g>
	<g>
		<path class="st1" d="M80,37.3c1.5-5.7,4.8-10.5,9.6-13.6C84.8,26.8,81.5,31.7,80,37.3z"/>
	</g>
	<g>
		<path class="st1" d="M63.2,22.4L63.2,22.4C63.2,22.5,63.2,22.4,63.2,22.4L63.2,22.4z"/>
	</g>
	<g>
		<path class="st1" d="M88.9,2.2c-0.2,0.1-0.4,0.1-0.6,0.2l0,0C88.5,2.3,88.7,2.2,88.9,2.2z"/>
	</g>
	<g>
		<path class="st1" d="M91.6,22.6c0.1-0.1,0.3-0.1,0.4-0.2l0,0C91.9,22.4,91.7,22.5,91.6,22.6z"/>
	</g>
	<g>
		<path class="st1" d="M79.6,6.1c0.4-0.2,0.8-0.5,1.2-0.7C80.4,5.7,80,5.9,79.6,6.1z"/>
	</g>
	<g>
		<path class="st1" d="M81.6,5.1c0.4-0.2,0.8-0.4,1.2-0.6C82.4,4.7,82,4.9,81.6,5.1z"/>
	</g>
	<g>
		<path class="st1" d="M77.8,7.2C78.2,7,78.6,6.7,79,6.5C78.6,6.7,78.2,7,77.8,7.2z"/>
	</g>
	<g>
		<path class="st1" d="M76,8.4c0.4-0.3,0.8-0.5,1.2-0.8C76.7,7.9,76.4,8.2,76,8.4z"/>
	</g>
	<g>
		<path class="st1" d="M88.3,2.4L88.3,2.4c-0.2,0.1-0.4,0.1-0.6,0.2C87.9,2.5,88.1,2.4,88.3,2.4z"/>
	</g>
	<g>
		<path class="st1" d="M85.6,3.3C86,3.1,86.4,3,86.8,2.8C86.4,3,86,3.2,85.6,3.3z"/>
	</g>
	<g>
		<path class="st1" d="M92,22.4L92,22.4c0.2-0.1,0.3-0.2,0.5-0.2C92.3,22.2,92.2,22.3,92,22.4z"/>
	</g>
	<g>
		<path class="st1" d="M63.9,21.3c-0.2,0.4-0.4,0.7-0.6,1.1l0,0C63.4,22,63.6,21.6,63.9,21.3z"/>
	</g>
	<g>
		<path class="st1" d="M83.6,4.1c0.4-0.2,0.8-0.4,1.2-0.5C84.4,3.8,84,4,83.6,4.1z"/>
	</g>
	<g>
		<path class="st1" d="M69.7,2.4H51.5c-10.9,0-20.3,2.5-27.9,7.1V3c0-1.1-0.9-2-2-2L2.7,0.9c-1.1,0-2,0.9-2,2V50h20.9l0,0h1.9
			c0.8-18.9,9.5-27.6,28-27.6h4.8c0.7,0,1.4-0.4,1.8-1.1c3.2-6,7.5-11.2,12.8-15.4C72.4,4.8,71.6,2.4,69.7,2.4z"/>
	</g>
	<g>
		<path class="st1" d="M74.2,9.7c0.4-0.3,0.8-0.6,1.1-0.9C75,9.1,74.6,9.4,74.2,9.7z"/>
	</g>
	<g>
		<path class="st1" d="M71,12.5c0.3-0.3,0.7-0.6,1-1C71.7,11.8,71.4,12.2,71,12.5z"/>
	</g>
	<g>
		<path class="st1" d="M68.1,15.6c0.3-0.4,0.6-0.7,1-1.1C68.7,14.8,68.4,15.2,68.1,15.6z"/>
	</g>
	<g>
		<path class="st1" d="M65.4,18.9c0.3-0.4,0.6-0.8,0.9-1.2C66,18.1,65.7,18.5,65.4,18.9z"/>
	</g>
	<g>
		<path class="st1" d="M69.5,14c0.3-0.3,0.7-0.7,1-1C70.1,13.3,69.8,13.7,69.5,14z"/>
	</g>
	<g>
		<path class="st1" d="M66.7,17.2c0.3-0.4,0.6-0.8,0.9-1.1C67.3,16.4,67,16.8,66.7,17.2z"/>
	</g>
	<g>
		<path class="st1" d="M64.2,20.7c0.3-0.4,0.5-0.8,0.8-1.2C64.7,19.9,64.5,20.3,64.2,20.7z"/>
	</g>
	<g>
		<path class="st1" d="M72.6,11.1c0.4-0.3,0.7-0.6,1.1-0.9C73.3,10.4,72.9,10.8,72.6,11.1z"/>
	</g>
	<g>
		<path class="st1" d="M92,22.4h0.5v-0.2l0,0C92.3,22.2,92.2,22.3,92,22.4z"/>
	</g>
	<g>
		<path class="st1" d="M102.4,0.2c-0.4,0-0.8,0-1.3,0c-0.4,0-0.8,0-1.1,0c-0.4,0-0.8,0.1-1.2,0.1s-0.7,0-1.1,0.1
			c-0.4,0-0.8,0.1-1.2,0.1s-0.7,0.1-1.1,0.1c-0.4,0.1-0.8,0.1-1.2,0.2c-0.3,0.1-0.7,0.1-1,0.2c-0.4,0.1-0.8,0.2-1.2,0.3
			c-0.3,0.1-0.6,0.1-1,0.2c-0.4,0.1-0.8,0.2-1.2,0.3C89.5,1.9,89.2,2,88.9,2c-0.2,0.1-0.4,0.1-0.6,0.2c-0.2,0.1-0.4,0.1-0.6,0.2
			c-0.3,0.1-0.6,0.2-0.9,0.3C86.4,2.8,86,3,85.6,3.2c-0.3,0.1-0.6,0.2-0.8,0.3C84.4,3.7,84,3.8,83.6,4c-0.3,0.1-0.5,0.2-0.8,0.3
			c-0.4,0.2-0.8,0.4-1.2,0.6c-0.2,0.1-0.5,0.2-0.7,0.4c-0.4,0.2-0.8,0.4-1.2,0.7c-0.2,0.1-0.5,0.2-0.7,0.4c-0.4,0.2-0.8,0.5-1.2,0.7
			c-0.2,0.1-0.4,0.3-0.6,0.4C76.8,7.8,76.4,8,76,8.3c-0.2,0.1-0.4,0.3-0.6,0.4C75,9,74.6,9.3,74.3,9.6c-0.2,0.1-0.4,0.3-0.6,0.4
			c-0.4,0.3-0.7,0.6-1.1,0.9c-0.2,0.2-0.4,0.3-0.5,0.4c-0.4,0.3-0.7,0.6-1,1c-0.2,0.2-0.4,0.3-0.5,0.5c-0.3,0.3-0.7,0.7-1,1
			c-0.2,0.2-0.3,0.3-0.5,0.5c-0.3,0.4-0.6,0.7-1,1.1c-0.2,0.2-0.3,0.3-0.5,0.5c-0.3,0.4-0.6,0.7-0.9,1.1c-0.1,0.2-0.3,0.4-0.4,0.5
			c-0.3,0.4-0.6,0.8-0.9,1.2c-0.1,0.2-0.3,0.4-0.4,0.5c-0.3,0.4-0.5,0.8-0.8,1.2c-0.1,0.2-0.3,0.4-0.4,0.6c-0.2,0.4-0.4,0.7-0.6,1.1
			l-0.1,0.1c-0.1,0.2-0.2,0.4-0.4,0.6c-0.2,0.4-0.4,0.8-0.7,1.3c-0.1,0.2-0.2,0.4-0.3,0.6c-0.2,0.4-0.4,0.9-0.6,1.3
			c-0.1,0.2-0.2,0.4-0.3,0.7c-0.2,0.4-0.3,0.9-0.5,1.3c-0.1,0.2-0.2,0.5-0.3,0.7c-0.2,0.4-0.3,0.9-0.5,1.3c-0.1,0.2-0.2,0.5-0.3,0.7
			c-0.1,0.5-0.3,0.9-0.4,1.4c-0.1,0.2-0.1,0.5-0.2,0.7c-0.1,0.5-0.2,0.9-0.3,1.4c-0.1,0.2-0.1,0.5-0.2,0.7c-0.1,0.5-0.2,0.9-0.2,1.4
			c0,0.3-0.1,0.5-0.1,0.8c-0.1,0.5-0.1,1-0.2,1.4c0,0.3-0.1,0.5-0.1,0.8c-0.1,0.5-0.1,1-0.1,1.6c0,0.2,0,0.5-0.1,0.7
			c0,0.8-0.1,1.5-0.1,2.3c0,1.9,0.1,3.8,0.4,5.6h21.9c-0.4-1.8-0.6-3.7-0.6-5.6c0-0.4,0-0.8,0-1.2v-0.1c0-0.4,0-0.7,0.1-1.1
			c0-0.2,0-0.4,0.1-0.6c0-0.2,0-0.4,0.1-0.6c0-0.3,0.1-0.5,0.1-0.7c0-0.1,0-0.3,0.1-0.4c0.1-0.4,0.1-0.7,0.2-1.1c0,0,0,0,0-0.1
			c0.1-0.3,0.2-0.7,0.3-1v-0.1c1.5-5.7,4.8-10.5,9.6-13.6l0,0c0.3-0.2,0.6-0.4,0.9-0.6l0,0c0.3-0.2,0.6-0.3,0.9-0.5c0,0,0,0,0.1,0
			c0.1-0.1,0.3-0.1,0.4-0.2c0.2-0.1,0.3-0.2,0.5-0.2l0,0c0,0,0.1,0,0.1-0.1c0.3-0.1,0.6-0.3,0.9-0.4c0.1,0,0.1-0.1,0.2-0.1
			c0.3-0.1,0.6-0.2,0.9-0.3c0.1,0,0.2-0.1,0.2-0.1c0.3-0.1,0.6-0.2,0.9-0.2c0.1,0,0.2-0.1,0.3-0.1c0.3-0.1,0.5-0.1,0.8-0.2
			c0.1,0,0.3-0.1,0.4-0.1c0.3-0.1,0.5-0.1,0.8-0.1c0.1,0,0.3-0.1,0.4-0.1c0.2,0,0.5-0.1,0.7-0.1s0.3,0,0.5-0.1c0.2,0,0.5,0,0.7-0.1
			c0.2,0,0.4,0,0.6,0c0.2,0,0.5,0,0.7,0s0.4,0,0.6,0c0,0,0,0,0.1,0c14.4,0,23.3,11.3,23.2,24.4c0,1.9-0.2,3.7-0.6,5.5h21.9
			c0.2-1.8,0.4-3.6,0.4-5.4C147.3,19.7,127.5,0.3,102.4,0.2z"/>
	</g>
	<g>
		<path class="st1" d="M91.6,22.6C91.5,22.6,91.5,22.6,91.6,22.6C91.5,22.6,91.5,22.6,91.6,22.6z"/>
	</g>
	<g>
		<path class="st1" d="M93.7,21.6c-0.1,0-0.1,0-0.2,0.1C93.6,21.7,93.6,21.7,93.7,21.6z"/>
	</g>
	<g>
		<path class="st1" d="M62.8,23.1c0.1-0.2,0.2-0.4,0.4-0.6C63,22.7,62.9,22.9,62.8,23.1z"/>
	</g>
	<g>
		<path class="st1" d="M61.8,25c0.1-0.2,0.2-0.4,0.3-0.6C62,24.6,61.9,24.8,61.8,25z"/>
	</g>
	<g>
		<path class="st1" d="M60.9,27c0.1-0.2,0.2-0.4,0.3-0.7C61.1,26.5,61,26.8,60.9,27z"/>
	</g>
	<g>
		<path class="st1" d="M89.6,23.7L89.6,23.7L89.6,23.7z"/>
	</g>
	<g>
		<path class="st1" d="M90.5,23.1L90.5,23.1L90.5,23.1z"/>
	</g>
	<g>
		<path class="st1" d="M91.1,1.6c0.3-0.1,0.6-0.1,1-0.2C91.7,1.4,91.4,1.5,91.1,1.6z"/>
	</g>
	<g>
		<path class="st1" d="M80,37.3L80,37.3C79.9,37.4,79.9,37.3,80,37.3z"/>
	</g>
	<g>
		<path class="st1" d="M98.4,20.4c-0.1,0-0.3,0.1-0.4,0.1C98.1,20.5,98.3,20.4,98.4,20.4z"/>
	</g>
	<g>
		<path class="st1" d="M94.8,21.3c-0.1,0-0.2,0.1-0.2,0.1C94.7,21.3,94.8,21.3,94.8,21.3z"/>
	</g>
	<g>
		<path class="st1" d="M92.5,22.1C92.5,22.1,92.6,22.1,92.5,22.1C92.6,22.1,92.5,22.1,92.5,22.1L92.5,22.1z"/>
	</g>
	<g>
		<path class="st1" d="M97.2,20.6c-0.1,0-0.3,0.1-0.4,0.1C96.9,20.7,97.1,20.7,97.2,20.6z"/>
	</g>
	<g>
		<path class="st1" d="M101.7,20.2c0.2,0,0.5,0,0.7,0c0,0,0,0-0.1,0C102.1,20.1,101.9,20.1,101.7,20.2z"/>
	</g>
	<g>
		<path class="st1" d="M97.7,0.5c0.4,0,0.7-0.1,1.1-0.1C98.5,0.4,98.1,0.4,97.7,0.5z"/>
	</g>
	<g>
		<path class="st1" d="M88.9,2.2C89.2,2.1,89.5,2,89.8,2C89.5,2,89.2,2.1,88.9,2.2z"/>
	</g>
	<g>
		<path class="st1" d="M96,20.9c-0.1,0-0.2,0.1-0.3,0.1C95.8,21,95.9,20.9,96,20.9z"/>
	</g>
	<g>
		<path class="st1" d="M57.9,37.5c0-0.3,0.1-0.5,0.1-0.8C58,37,57.9,37.3,57.9,37.5z"/>
	</g>
	<g>
		<path class="st1" d="M93.2,1.1c0.3-0.1,0.7-0.1,1-0.2C93.9,1,93.6,1,93.2,1.1z"/>
	</g>
	<g>
		<path class="st1" d="M57.4,42.1c0-0.2,0-0.5,0.1-0.7C57.5,41.6,57.4,41.8,57.4,42.1z"/>
	</g>
	<g>
		<path class="st1" d="M57.6,39.8c0-0.3,0.1-0.5,0.1-0.8C57.7,39.3,57.6,39.5,57.6,39.8z"/>
	</g>
	<g>
		<path class="st1" d="M100,0.3c0.4,0,0.8,0,1.1,0C100.8,0.3,100.4,0.3,100,0.3z"/>
	</g>
	<g>
		<path class="st1" d="M79.1,43.2c0,0.4,0,0.8,0,1.2C79,44,79,43.6,79.1,43.2z"/>
	</g>
	<g>
		<path class="st1" d="M99.7,20.3c-0.2,0-0.3,0-0.5,0.1C99.3,20.3,99.5,20.3,99.7,20.3z"/>
	</g>
	<g>
		<path class="st1" d="M58.3,35.3c0.1-0.2,0.1-0.5,0.2-0.7C58.4,34.8,58.3,35.1,58.3,35.3z"/>
	</g>
	<g>
		<path class="st1" d="M58.8,33.2c0.1-0.2,0.1-0.5,0.2-0.7C58.9,32.7,58.8,32.9,58.8,33.2z"/>
	</g>
	<g>
		<path class="st1" d="M59.4,31.1c0.1-0.2,0.2-0.5,0.3-0.7C59.5,30.6,59.5,30.8,59.4,31.1z"/>
	</g>
	<g>
		<path class="st1" d="M79.4,39.6c0,0.1,0,0.3-0.1,0.4C79.4,39.9,79.4,39.8,79.4,39.6z"/>
	</g>
	<g>
		<path class="st1" d="M79.7,38.5L79.7,38.5L79.7,38.5z"/>
	</g>
	<g>
		<path class="st1" d="M101,20.2c-0.2,0-0.4,0-0.6,0C100.6,20.2,100.8,20.2,101,20.2z"/>
	</g>
	<g>
		<path class="st1" d="M79.1,42c0,0.4-0.1,0.7-0.1,1.1C79.1,42.7,79.1,42.3,79.1,42z"/>
	</g>
	<g>
		<path class="st1" d="M95.5,0.7c0.3-0.1,0.7-0.1,1.1-0.1C96.2,0.6,95.8,0.7,95.5,0.7z"/>
	</g>
	<g>
		<path class="st1" d="M60.1,29c0.1-0.2,0.2-0.5,0.3-0.7C60.3,28.5,60.2,28.8,60.1,29z"/>
	</g>
	<g>
		<path class="st1" d="M79.3,40.8c0,0.2,0,0.4-0.1,0.6C79.2,41.2,79.2,41,79.3,40.8z"/>
	</g>
	<g>
		<path class="st1" d="M80.8,5.5c0.2-0.1,0.5-0.2,0.7-0.4C81.3,5.2,81.1,5.3,80.8,5.5z"/>
	</g>
	<g>
		<path class="st1" d="M69,14.5c0.2-0.2,0.3-0.3,0.5-0.5C69.3,14.2,69.2,14.3,69,14.5z"/>
	</g>
	<g>
		<path class="st1" d="M67.6,16.1c0.1-0.2,0.3-0.3,0.5-0.5C67.9,15.7,67.7,15.9,67.6,16.1z"/>
	</g>
	<g>
		<path class="st1" d="M92.5,22.1L92.5,22.1L92.5,22.1L92.5,22.1z"/>
	</g>
	<g>
		<path class="st1" d="M72.1,11.5c0.2-0.2,0.4-0.3,0.5-0.4C72.4,11.2,72.2,11.4,72.1,11.5z"/>
	</g>
	<g>
		<path class="st1" d="M73.7,10.1c0.2-0.1,0.4-0.3,0.6-0.4C74.1,9.9,73.9,10,73.7,10.1z"/>
	</g>
	<g>
		<path class="st1" d="M65,19.5c0.1-0.2,0.3-0.4,0.4-0.5C65.3,19.1,65.1,19.3,65,19.5z"/>
	</g>
	<g>
		<path class="st1" d="M70.5,13c0.2-0.2,0.4-0.3,0.5-0.5C70.8,12.6,70.7,12.8,70.5,13z"/>
	</g>
	<g>
		<path class="st1" d="M66.3,17.7c0.1-0.2,0.3-0.4,0.4-0.5C66.6,17.4,66.4,17.6,66.3,17.7z"/>
	</g>
	<g>
		<path class="st1" d="M84.8,3.6c0.3-0.1,0.5-0.2,0.8-0.3C85.3,3.4,85,3.5,84.8,3.6z"/>
	</g>
	<g>
		<path class="st1" d="M86.8,2.8c0.3-0.1,0.6-0.2,0.9-0.3C87.4,2.7,87.1,2.7,86.8,2.8z"/>
	</g>
	<g>
		<path class="st1" d="M82.8,4.5c0.3-0.1,0.5-0.2,0.8-0.3C83.3,4.3,83,4.4,82.8,4.5z"/>
	</g>
	<g>
		<path class="st1" d="M63.9,21.3c0.1-0.2,0.3-0.4,0.4-0.6C64.1,20.9,64,21.1,63.9,21.3z"/>
	</g>
	<g>
		<path class="st1" d="M79,6.5c0.2-0.1,0.5-0.2,0.7-0.4C79.4,6.2,79.2,6.4,79,6.5z"/>
	</g>
	<g>
		<path class="st1" d="M75.4,8.8c0.2-0.1,0.4-0.3,0.6-0.4C75.8,8.6,75.6,8.7,75.4,8.8z"/>
	</g>
	<g>
		<path class="st1" d="M77.1,7.6c0.2-0.1,0.4-0.3,0.6-0.4C77.6,7.4,77.3,7.5,77.1,7.6z"/>
	</g>
</g>
<g>
	<path class="st0" d="M102.2,70.8c-11.3,0-19.2-7-22.1-16.3L58,54.4c3.7,20.8,21.9,36.2,44.1,36.3c22.3,0.1,40.5-15.3,44.3-36.1
		l-22.1-0.1C121.5,63.9,113.6,70.9,102.2,70.8z"/>
</g>
</svg>
