<?xml version="1.0" encoding="utf-8"?>
<!-- Generator: Adobe Illustrator 22.0.1, SVG Export Plug-In . SVG Version: 6.00 Build 0)  -->
<svg version="1.1" id="Layer_1" xmlns="http://www.w3.org/2000/svg" xmlns:xlink="http://www.w3.org/1999/xlink" x="0px" y="0px"
	 viewBox="0 0 436 145.7" style="enable-background:new 0 0 436 145.7;" xml:space="preserve">
<style type="text/css">
	.st0{fill:#EF7A06;}
	.st1{fill:#F4970F;}
</style>
<g>
	<path class="st0" d="M380,123.6c16.5,0,28.3-7.9,32.3-10.9c0.8-0.6,1-1.8,0.4-2.7l-8.4-12.6c-0.6-1-2-1.2-2.9-0.5
		c-3.1,2.4-10.5,7.1-21.5,7.1c-13.1,0-21.7-9.2-23.5-16.6h-21.1C339.2,108.2,357.3,123.6,380,123.6z"/>
</g>
<g>
	<path class="st0" d="M278.8,91.5c0,17.9,12.4,29.9,28.8,29.9c9,0,15.7-3,18.7-4.6c0.9-0.5,1.3-1.6,0.9-2.6l-6.2-13.7
		c-0.5-1-1.7-1.5-2.7-1c-1.6,0.9-4.2,1.9-7.1,1.9c-5.7,0-11-3-11-13.3v-0.7h-21.3V91.5z"/>
</g>
<g>
	<path class="st0" d="M224.3,101.4c-8.2-0.3-14.9-6.2-16.6-14h-20.6c1.9,18.8,17.4,33.6,36.5,34.4v0c0.3,0,0.5,0,0.8,0
		c0.3,0,0.5,0,0.8,0v0c19.1-0.7,34.6-15.6,36.5-34.4h-20.7C239.2,95.2,232.5,101.1,224.3,101.4z"/>
</g>
<g>
	<path class="st0" d="M33.2,87.4v31.3c0,1.1,0.9,2,2,2h18.9c1.1,0,2-0.9,2-2V87.4H33.2z"/>
</g>
<g>
	<g>
		<path class="st1" d="M266.5,33.5c-13.7,0-24.8,11.1-24.8,24.8v24.4l0,0.3H262l0,0l0.1-23.4c0-3.1,1.9-5.6,5.7-5.7h10.8
			c0.1,0,0.2,0.1,0.2,0.2v28.6c0,0.1,0.1,0.2,0.2,0.2h20.9c0.1,0,0.2-0.1,0.2-0.2V54.2c0-0.1,0.1-0.2,0.2-0.2h40.1
			c0.2,0,0.2,0.2,0.2,0.3c-3.8,6.7-6,14.6-6,23.1c0,1.8,0.1,3.7,0.3,5.4c0,0.1,0.1,0.2,0.2,0.2l82,0c1.2,0,2.2-1,2.2-2.2
			c0-1.6,0-2.9,0-3.8c0-25.9-19.4-43.9-42.5-43.9c0,0,0,0-0.1,0L377,33l-109,0.5H266.5z M377,52.5c13.9,0,20.7,9.6,21.1,16.8
			c0,0.1-0.1,0.2-0.2,0.2h-41.3c-0.1,0-0.2-0.1-0.2-0.2C357.2,61.9,363.4,52.5,377,52.5z"/>
	</g>
</g>
<g>
	<path class="st1" d="M207.3,82.7V35c0-1.1-0.9-2-2-2h-16.4c-1.1,0-2,0.9-2,2v48h20.4C207.3,82.9,207.3,82.8,207.3,82.7z"/>
</g>
<g>
	<g>
		<path class="st1" d="M111.6,76.1c0,0,0,0.1,0,0.1C111.6,76.2,111.6,76.1,111.6,76.1z"/>
	</g>
	<g>
		<path class="st1" d="M111.7,74.4c0,0.2,0,0.4-0.1,0.6C111.7,74.8,111.7,74.6,111.7,74.4z"/>
	</g>
	<g>
		<path class="st1" d="M89.8,77.4c0-0.8,0-1.5,0.1-2.3C89.9,75.8,89.8,76.6,89.8,77.4z"/>
	</g>
	<g>
		<path class="st1" d="M112.2,71.5c-0.1,0.4-0.2,0.7-0.2,1.1C112,72.2,112.1,71.9,112.2,71.5z"/>
	</g>
	<g>
		<path class="st1" d="M112.4,70.4c-0.1,0.3-0.2,0.7-0.3,1C112.3,71.1,112.3,70.8,112.4,70.4z"/>
	</g>
	<g>
		<path class="st1" d="M90,74.3c0-0.5,0.1-1,0.1-1.6C90,73.3,90,73.8,90,74.3z"/>
	</g>
	<g>
		<path class="st1" d="M111.9,73c0,0.2-0.1,0.5-0.1,0.7C111.8,73.5,111.8,73.3,111.9,73z"/>
	</g>
	<g>
		<path class="st1" d="M93.7,59.3c0.2-0.4,0.4-0.9,0.6-1.3C94.1,58.4,93.9,58.9,93.7,59.3z"/>
	</g>
	<g>
		<path class="st1" d="M92.9,61.3c0.2-0.4,0.3-0.9,0.5-1.3C93.2,60.4,93,60.9,92.9,61.3z"/>
	</g>
	<g>
		<path class="st1" d="M94.6,57.4c0.2-0.4,0.4-0.8,0.7-1.3C95,56.5,94.8,57,94.6,57.4z"/>
	</g>
	<g>
		<path class="st1" d="M92.1,63.3c0.1-0.4,0.3-0.9,0.5-1.3C92.4,62.4,92.3,62.9,92.1,63.3z"/>
	</g>
	<g>
		<path class="st1" d="M90.5,69.7c0.1-0.5,0.2-0.9,0.2-1.4C90.7,68.8,90.6,69.3,90.5,69.7z"/>
	</g>
	<g>
		<path class="st1" d="M90.9,67.6c0.1-0.5,0.2-1,0.3-1.4C91.2,66.6,91,67.1,90.9,67.6z"/>
	</g>
	<g>
		<path class="st1" d="M91.5,65.5c0.1-0.5,0.3-0.9,0.4-1.4C91.7,64.5,91.6,65,91.5,65.5z"/>
	</g>
	<g>
		<path class="st1" d="M123,56.2c-0.3,0.2-0.6,0.4-0.9,0.6C122.4,56.5,122.7,56.3,123,56.2z"/>
	</g>
	<g>
		<path class="st1" d="M131.3,33.4c0.4,0,0.8-0.1,1.2-0.1C132.1,33.3,131.7,33.3,131.3,33.4z"/>
	</g>
	<g>
		<path class="st1" d="M134.2,53.2c-0.2,0-0.5,0-0.7,0C133.7,53.2,133.9,53.2,134.2,53.2z"/>
	</g>
	<g>
		<path class="st1" d="M134.8,33.2c-0.4,0-0.8,0-1.1,0c0.4,0,0.8,0,1.3,0C134.9,33.2,134.8,33.2,134.8,33.2z"/>
	</g>
	<g>
		<path class="st1" d="M129,33.6c0.4,0,0.8-0.1,1.2-0.1C129.8,33.5,129.4,33.6,129,33.6z"/>
	</g>
	<g>
		<path class="st1" d="M122.3,34.9c0.4-0.1,0.8-0.2,1.2-0.3C123.1,34.7,122.7,34.8,122.3,34.9z"/>
	</g>
	<g>
		<path class="st1" d="M124.5,34.4c0.4-0.1,0.8-0.2,1.2-0.3C125.3,34.2,124.9,34.3,124.5,34.4z"/>
	</g>
	<g>
		<path class="st1" d="M126.7,33.9c0.4-0.1,0.8-0.1,1.2-0.2C127.6,33.8,127.1,33.9,126.7,33.9z"/>
	</g>
	<g>
		<path class="st1" d="M131.7,53.3c-0.2,0-0.5,0.1-0.7,0.1C131.2,53.4,131.4,53.4,131.7,53.3z"/>
	</g>
	<g>
		<path class="st1" d="M128.2,54c-0.3,0.1-0.6,0.2-0.9,0.2C127.6,54.2,127.9,54.1,128.2,54z"/>
	</g>
	<g>
		<path class="st1" d="M127.1,54.3c-0.3,0.1-0.6,0.2-0.9,0.3C126.5,54.5,126.8,54.4,127.1,54.3z"/>
	</g>
	<g>
		<path class="st1" d="M126,54.7c-0.3,0.1-0.6,0.2-0.9,0.4C125.4,55,125.7,54.8,126,54.7z"/>
	</g>
	<g>
		<path class="st1" d="M130.5,53.5c-0.3,0-0.5,0.1-0.8,0.1C130,53.6,130.2,53.5,130.5,53.5z"/>
	</g>
	<g>
		<path class="st1" d="M124,55.6c-0.3,0.2-0.6,0.3-0.9,0.5C123.4,56,123.7,55.8,124,55.6z"/>
	</g>
	<g>
		<path class="st1" d="M129.3,53.7c-0.3,0.1-0.6,0.1-0.8,0.2C128.8,53.8,129,53.8,129.3,53.7z"/>
	</g>
	<g>
		<path class="st1" d="M132.9,53.2c-0.2,0-0.5,0-0.7,0.1C132.4,53.2,132.7,53.2,132.9,53.2z"/>
	</g>
	<g>
		<path class="st1" d="M90.2,72c0.1-0.5,0.1-1,0.2-1.4C90.3,71,90.2,71.5,90.2,72z"/>
	</g>
	<g>
		<path class="st1" d="M112.5,70.3c1.5-5.7,4.8-10.5,9.6-13.6C117.3,59.8,114,64.7,112.5,70.3z"/>
	</g>
	<g>
		<path class="st1" d="M95.7,55.4c0,0-0.1,0.1-0.1,0.1C95.7,55.5,95.7,55.4,95.7,55.4L95.7,55.4z"/>
	</g>
	<g>
		<path class="st1" d="M121.4,35.2c-0.2,0.1-0.4,0.1-0.6,0.2h0C121,35.3,121.2,35.2,121.4,35.2z"/>
	</g>
	<g>
		<path class="st1" d="M124.1,55.6c0.1-0.1,0.3-0.1,0.4-0.2h0C124.4,55.4,124.2,55.5,124.1,55.6z"/>
	</g>
	<g>
		<path class="st1" d="M112.1,39.1c0.4-0.2,0.8-0.5,1.2-0.7C112.9,38.7,112.5,38.9,112.1,39.1z"/>
	</g>
	<g>
		<path class="st1" d="M114.1,38.1c0.4-0.2,0.8-0.4,1.2-0.6C114.9,37.7,114.5,37.9,114.1,38.1z"/>
	</g>
	<g>
		<path class="st1" d="M110.3,40.2c0.4-0.2,0.8-0.5,1.2-0.7C111.1,39.7,110.7,40,110.3,40.2z"/>
	</g>
	<g>
		<path class="st1" d="M108.5,41.4c0.4-0.3,0.8-0.5,1.2-0.8C109.2,40.9,108.9,41.2,108.5,41.4z"/>
	</g>
	<g>
		<path class="st1" d="M120.8,35.4L120.8,35.4c-0.2,0.1-0.4,0.1-0.6,0.2C120.4,35.5,120.6,35.4,120.8,35.4z"/>
	</g>
	<g>
		<path class="st1" d="M118.1,36.3c0.4-0.2,0.8-0.3,1.2-0.5C118.9,36,118.5,36.2,118.1,36.3z"/>
	</g>
	<g>
		<path class="st1" d="M124.5,55.4L124.5,55.4c0.2-0.1,0.3-0.2,0.5-0.2C124.8,55.2,124.7,55.3,124.5,55.4z"/>
	</g>
	<g>
		<path class="st1" d="M96.4,54.3c-0.2,0.4-0.4,0.7-0.6,1.1h0C95.9,55,96.1,54.6,96.4,54.3z"/>
	</g>
	<g>
		<path class="st1" d="M116.1,37.1c0.4-0.2,0.8-0.4,1.2-0.5C116.9,36.8,116.5,37,116.1,37.1z"/>
	</g>
	<g>
		<path class="st1" d="M102.2,35.4H84c-10.9,0-20.3,2.5-27.9,7.1V36c0-1.1-0.9-2-2-2l-18.9-0.1c-1.1,0-2,0.9-2,2V83h20.9v0l1.9,0
			c0.8-18.9,9.5-27.6,28-27.6h4.8c0.7,0,1.4-0.4,1.8-1.1c3.2-6,7.5-11.2,12.8-15.4C104.9,37.8,104.1,35.4,102.2,35.4z"/>
	</g>
	<g>
		<path class="st1" d="M106.7,42.7c0.4-0.3,0.8-0.6,1.1-0.9C107.5,42.1,107.1,42.4,106.7,42.7z"/>
	</g>
	<g>
		<path class="st1" d="M103.5,45.5c0.3-0.3,0.7-0.6,1-1C104.2,44.8,103.9,45.2,103.5,45.5z"/>
	</g>
	<g>
		<path class="st1" d="M100.6,48.6c0.3-0.4,0.6-0.7,1-1.1C101.2,47.8,100.9,48.2,100.6,48.6z"/>
	</g>
	<g>
		<path class="st1" d="M97.9,51.9c0.3-0.4,0.6-0.8,0.9-1.2C98.5,51.1,98.2,51.5,97.9,51.9z"/>
	</g>
	<g>
		<path class="st1" d="M102,47c0.3-0.3,0.7-0.7,1-1C102.6,46.3,102.3,46.7,102,47z"/>
	</g>
	<g>
		<path class="st1" d="M99.2,50.2c0.3-0.4,0.6-0.8,0.9-1.1C99.8,49.4,99.5,49.8,99.2,50.2z"/>
	</g>
	<g>
		<path class="st1" d="M96.7,53.7c0.3-0.4,0.5-0.8,0.8-1.2C97.2,52.9,97,53.3,96.7,53.7z"/>
	</g>
	<g>
		<path class="st1" d="M105.1,44.1c0.4-0.3,0.7-0.6,1.1-0.9C105.8,43.4,105.4,43.8,105.1,44.1z"/>
	</g>
	<g>
		<path class="st1" d="M124.5,55.4h0.5v-0.2c0,0,0,0,0,0C124.8,55.2,124.7,55.3,124.5,55.4z"/>
	</g>
	<g>
		<path class="st1" d="M134.9,33.2c-0.4,0-0.8,0-1.3,0c-0.4,0-0.8,0-1.1,0c-0.4,0-0.8,0.1-1.2,0.1c-0.4,0-0.7,0-1.1,0.1
			c-0.4,0-0.8,0.1-1.2,0.1c-0.4,0-0.7,0.1-1.1,0.1c-0.4,0.1-0.8,0.1-1.2,0.2c-0.3,0.1-0.7,0.1-1,0.2c-0.4,0.1-0.8,0.2-1.2,0.3
			c-0.3,0.1-0.6,0.1-1,0.2c-0.4,0.1-0.8,0.2-1.2,0.3c-0.3,0.1-0.6,0.2-0.9,0.2c-0.2,0.1-0.4,0.1-0.6,0.2c-0.2,0.1-0.4,0.1-0.6,0.2
			c-0.3,0.1-0.6,0.2-0.9,0.3c-0.4,0.1-0.8,0.3-1.2,0.5c-0.3,0.1-0.6,0.2-0.8,0.3c-0.4,0.2-0.8,0.3-1.2,0.5c-0.3,0.1-0.5,0.2-0.8,0.3
			c-0.4,0.2-0.8,0.4-1.2,0.6c-0.2,0.1-0.5,0.2-0.7,0.4c-0.4,0.2-0.8,0.4-1.2,0.7c-0.2,0.1-0.5,0.2-0.7,0.4c-0.4,0.2-0.8,0.5-1.2,0.7
			c-0.2,0.1-0.4,0.3-0.6,0.4c-0.4,0.3-0.8,0.5-1.2,0.8c-0.2,0.1-0.4,0.3-0.6,0.4c-0.4,0.3-0.8,0.6-1.1,0.9c-0.2,0.1-0.4,0.3-0.6,0.4
			c-0.4,0.3-0.7,0.6-1.1,0.9c-0.2,0.2-0.4,0.3-0.5,0.4c-0.4,0.3-0.7,0.6-1,1c-0.2,0.2-0.4,0.3-0.5,0.5c-0.3,0.3-0.7,0.7-1,1
			c-0.2,0.2-0.3,0.3-0.5,0.5c-0.3,0.4-0.6,0.7-1,1.1c-0.2,0.2-0.3,0.3-0.5,0.5c-0.3,0.4-0.6,0.7-0.9,1.1c-0.1,0.2-0.3,0.4-0.4,0.5
			c-0.3,0.4-0.6,0.8-0.9,1.2c-0.1,0.2-0.3,0.4-0.4,0.5c-0.3,0.4-0.5,0.8-0.8,1.2c-0.1,0.2-0.3,0.4-0.4,0.6c-0.2,0.4-0.4,0.7-0.6,1.1
			c0,0-0.1,0.1-0.1,0.1c-0.1,0.2-0.2,0.4-0.4,0.6c-0.2,0.4-0.4,0.8-0.7,1.3c-0.1,0.2-0.2,0.4-0.3,0.6c-0.2,0.4-0.4,0.9-0.6,1.3
			c-0.1,0.2-0.2,0.4-0.3,0.7c-0.2,0.4-0.3,0.9-0.5,1.3c-0.1,0.2-0.2,0.5-0.3,0.7c-0.2,0.4-0.3,0.9-0.5,1.3c-0.1,0.2-0.2,0.5-0.3,0.7
			c-0.1,0.5-0.3,0.9-0.4,1.4c-0.1,0.2-0.1,0.5-0.2,0.7c-0.1,0.5-0.2,0.9-0.3,1.4c-0.1,0.2-0.1,0.5-0.2,0.7c-0.1,0.5-0.2,0.9-0.2,1.4
			c0,0.3-0.1,0.5-0.1,0.8c-0.1,0.5-0.1,1-0.2,1.4c0,0.3-0.1,0.5-0.1,0.8c-0.1,0.5-0.1,1-0.1,1.6c0,0.2,0,0.5-0.1,0.7
			c0,0.8-0.1,1.5-0.1,2.3c0,1.9,0.1,3.8,0.4,5.6h21.9c-0.4-1.8-0.6-3.7-0.6-5.6c0-0.4,0-0.8,0-1.2c0,0,0-0.1,0-0.1
			c0-0.4,0-0.7,0.1-1.1c0-0.2,0-0.4,0.1-0.6c0-0.2,0-0.4,0.1-0.6c0-0.3,0.1-0.5,0.1-0.7c0-0.1,0-0.3,0.1-0.4
			c0.1-0.4,0.1-0.7,0.2-1.1c0,0,0,0,0-0.1c0.1-0.3,0.2-0.7,0.3-1c0,0,0-0.1,0-0.1c1.5-5.7,4.8-10.5,9.6-13.6c0,0,0,0,0,0
			c0.3-0.2,0.6-0.4,0.9-0.6c0,0,0,0,0,0c0.3-0.2,0.6-0.3,0.9-0.5c0,0,0,0,0.1,0c0.1-0.1,0.3-0.1,0.4-0.2c0.2-0.1,0.3-0.2,0.5-0.2
			c0,0,0,0,0,0c0,0,0.1,0,0.1-0.1c0.3-0.1,0.6-0.3,0.9-0.4c0.1,0,0.1-0.1,0.2-0.1c0.3-0.1,0.6-0.2,0.9-0.3c0.1,0,0.2-0.1,0.2-0.1
			c0.3-0.1,0.6-0.2,0.9-0.2c0.1,0,0.2-0.1,0.3-0.1c0.3-0.1,0.5-0.1,0.8-0.2c0.1,0,0.3-0.1,0.4-0.1c0.3-0.1,0.5-0.1,0.8-0.1
			c0.1,0,0.3-0.1,0.4-0.1c0.2,0,0.5-0.1,0.7-0.1c0.2,0,0.3,0,0.5-0.1c0.2,0,0.5,0,0.7-0.1c0.2,0,0.4,0,0.6,0c0.2,0,0.5,0,0.7,0
			c0.2,0,0.4,0,0.6,0c0,0,0,0,0.1,0c14.4,0,23.3,11.3,23.2,24.4c0,1.9-0.2,3.7-0.6,5.5h21.9c0.2-1.8,0.4-3.6,0.4-5.4
			C179.8,52.7,160,33.3,134.9,33.2z"/>
	</g>
	<g>
		<path class="st1" d="M124.1,55.6C124,55.6,124,55.6,124.1,55.6C124,55.6,124,55.6,124.1,55.6z"/>
	</g>
	<g>
		<path class="st1" d="M126.2,54.6c-0.1,0-0.1,0-0.2,0.1C126.1,54.7,126.1,54.7,126.2,54.6z"/>
	</g>
	<g>
		<path class="st1" d="M95.3,56.1c0.1-0.2,0.2-0.4,0.4-0.6C95.5,55.7,95.4,55.9,95.3,56.1z"/>
	</g>
	<g>
		<path class="st1" d="M94.3,58c0.1-0.2,0.2-0.4,0.3-0.6C94.5,57.6,94.4,57.8,94.3,58z"/>
	</g>
	<g>
		<path class="st1" d="M93.4,60c0.1-0.2,0.2-0.4,0.3-0.7C93.6,59.5,93.5,59.8,93.4,60z"/>
	</g>
	<g>
		<path class="st1" d="M122.1,56.7C122.1,56.7,122.1,56.7,122.1,56.7C122.1,56.7,122.1,56.7,122.1,56.7z"/>
	</g>
	<g>
		<path class="st1" d="M123,56.1C123,56.1,123,56.1,123,56.1C123,56.1,123,56.1,123,56.1z"/>
	</g>
	<g>
		<path class="st1" d="M123.6,34.6c0.3-0.1,0.6-0.1,1-0.2C124.2,34.4,123.9,34.5,123.6,34.6z"/>
	</g>
	<g>
		<path class="st1" d="M112.5,70.3c0,0,0,0.1,0,0.1C112.4,70.4,112.4,70.3,112.5,70.3z"/>
	</g>
	<g>
		<path class="st1" d="M130.9,53.4c-0.1,0-0.3,0.1-0.4,0.1C130.6,53.5,130.8,53.4,130.9,53.4z"/>
	</g>
	<g>
		<path class="st1" d="M127.3,54.3c-0.1,0-0.2,0.1-0.2,0.1C127.2,54.3,127.3,54.3,127.3,54.3z"/>
	</g>
	<g>
		<path class="st1" d="M125,55.1c0,0,0.1,0,0.1-0.1C125.1,55.1,125,55.1,125,55.1L125,55.1z"/>
	</g>
	<g>
		<path class="st1" d="M129.7,53.6c-0.1,0-0.3,0.1-0.4,0.1C129.4,53.7,129.6,53.7,129.7,53.6z"/>
	</g>
	<g>
		<path class="st1" d="M134.2,53.2c0.2,0,0.5,0,0.7,0c0,0,0,0-0.1,0C134.6,53.1,134.4,53.1,134.2,53.2z"/>
	</g>
	<g>
		<path class="st1" d="M130.2,33.5c0.4,0,0.7-0.1,1.1-0.1C131,33.4,130.6,33.4,130.2,33.5z"/>
	</g>
	<g>
		<path class="st1" d="M121.4,35.2c0.3-0.1,0.6-0.2,0.9-0.2C122,35,121.7,35.1,121.4,35.2z"/>
	</g>
	<g>
		<path class="st1" d="M128.5,53.9c-0.1,0-0.2,0.1-0.3,0.1C128.3,54,128.4,53.9,128.5,53.9z"/>
	</g>
	<g>
		<path class="st1" d="M90.4,70.5c0-0.3,0.1-0.5,0.1-0.8C90.5,70,90.4,70.3,90.4,70.5z"/>
	</g>
	<g>
		<path class="st1" d="M125.7,34.1c0.3-0.1,0.7-0.1,1-0.2C126.4,34,126.1,34,125.7,34.1z"/>
	</g>
	<g>
		<path class="st1" d="M89.9,75.1c0-0.2,0-0.5,0.1-0.7C90,74.6,89.9,74.8,89.9,75.1z"/>
	</g>
	<g>
		<path class="st1" d="M90.1,72.8c0-0.3,0.1-0.5,0.1-0.8C90.2,72.3,90.1,72.5,90.1,72.8z"/>
	</g>
	<g>
		<path class="st1" d="M132.5,33.3c0.4,0,0.8,0,1.1,0C133.3,33.3,132.9,33.3,132.5,33.3z"/>
	</g>
	<g>
		<path class="st1" d="M111.6,76.2c0,0.4,0,0.8,0,1.2C111.5,77,111.5,76.6,111.6,76.2z"/>
	</g>
	<g>
		<path class="st1" d="M132.2,53.3c-0.2,0-0.3,0-0.5,0.1C131.8,53.3,132,53.3,132.2,53.3z"/>
	</g>
	<g>
		<path class="st1" d="M90.8,68.3c0.1-0.2,0.1-0.5,0.2-0.7C90.9,67.8,90.8,68.1,90.8,68.3z"/>
	</g>
	<g>
		<path class="st1" d="M91.3,66.2c0.1-0.2,0.1-0.5,0.2-0.7C91.4,65.7,91.3,65.9,91.3,66.2z"/>
	</g>
	<g>
		<path class="st1" d="M91.9,64.1c0.1-0.2,0.2-0.5,0.3-0.7C92,63.6,92,63.8,91.9,64.1z"/>
	</g>
	<g>
		<path class="st1" d="M111.9,72.6c0,0.1,0,0.3-0.1,0.4C111.9,72.9,111.9,72.8,111.9,72.6z"/>
	</g>
	<g>
		<path class="st1" d="M112.2,71.5C112.2,71.5,112.2,71.5,112.2,71.5C112.2,71.5,112.2,71.5,112.2,71.5z"/>
	</g>
	<g>
		<path class="st1" d="M133.5,53.2c-0.2,0-0.4,0-0.6,0C133.1,53.2,133.3,53.2,133.5,53.2z"/>
	</g>
	<g>
		<path class="st1" d="M111.6,75c0,0.4-0.1,0.7-0.1,1.1C111.6,75.7,111.6,75.3,111.6,75z"/>
	</g>
	<g>
		<path class="st1" d="M128,33.7c0.3-0.1,0.7-0.1,1.1-0.1C128.7,33.6,128.3,33.7,128,33.7z"/>
	</g>
	<g>
		<path class="st1" d="M92.6,62c0.1-0.2,0.2-0.5,0.3-0.7C92.8,61.5,92.7,61.8,92.6,62z"/>
	</g>
	<g>
		<path class="st1" d="M111.8,73.8c0,0.2,0,0.4-0.1,0.6C111.7,74.2,111.7,74,111.8,73.8z"/>
	</g>
	<g>
		<path class="st1" d="M113.3,38.5c0.2-0.1,0.5-0.2,0.7-0.4C113.8,38.2,113.6,38.3,113.3,38.5z"/>
	</g>
	<g>
		<path class="st1" d="M101.5,47.5c0.2-0.2,0.3-0.3,0.5-0.5C101.8,47.2,101.7,47.3,101.5,47.5z"/>
	</g>
	<g>
		<path class="st1" d="M100.1,49.1c0.1-0.2,0.3-0.3,0.5-0.5C100.4,48.7,100.2,48.9,100.1,49.1z"/>
	</g>
	<g>
		<path class="st1" d="M125,55.1C125,55.1,125,55.1,125,55.1L125,55.1C125,55.1,125,55.1,125,55.1z"/>
	</g>
	<g>
		<path class="st1" d="M104.6,44.5c0.2-0.2,0.4-0.3,0.5-0.4C104.9,44.2,104.7,44.4,104.6,44.5z"/>
	</g>
	<g>
		<path class="st1" d="M106.2,43.1c0.2-0.1,0.4-0.3,0.6-0.4C106.6,42.9,106.4,43,106.2,43.1z"/>
	</g>
	<g>
		<path class="st1" d="M97.5,52.5c0.1-0.2,0.3-0.4,0.4-0.5C97.8,52.1,97.6,52.3,97.5,52.5z"/>
	</g>
	<g>
		<path class="st1" d="M103,46c0.2-0.2,0.4-0.3,0.5-0.5C103.3,45.6,103.2,45.8,103,46z"/>
	</g>
	<g>
		<path class="st1" d="M98.8,50.7c0.1-0.2,0.3-0.4,0.4-0.5C99.1,50.4,98.9,50.6,98.8,50.7z"/>
	</g>
	<g>
		<path class="st1" d="M117.3,36.6c0.3-0.1,0.5-0.2,0.8-0.3C117.8,36.4,117.5,36.5,117.3,36.6z"/>
	</g>
	<g>
		<path class="st1" d="M119.3,35.8c0.3-0.1,0.6-0.2,0.9-0.3C119.9,35.7,119.6,35.7,119.3,35.8z"/>
	</g>
	<g>
		<path class="st1" d="M115.3,37.5c0.3-0.1,0.5-0.2,0.8-0.3C115.8,37.3,115.5,37.4,115.3,37.5z"/>
	</g>
	<g>
		<path class="st1" d="M96.4,54.3c0.1-0.2,0.3-0.4,0.4-0.6C96.6,53.9,96.5,54.1,96.4,54.3z"/>
	</g>
	<g>
		<path class="st1" d="M111.5,39.5c0.2-0.1,0.5-0.2,0.7-0.4C111.9,39.2,111.7,39.4,111.5,39.5z"/>
	</g>
	<g>
		<path class="st1" d="M107.9,41.8c0.2-0.1,0.4-0.3,0.6-0.4C108.3,41.6,108.1,41.7,107.9,41.8z"/>
	</g>
	<g>
		<path class="st1" d="M109.6,40.6c0.2-0.1,0.4-0.3,0.6-0.4C110.1,40.4,109.8,40.5,109.6,40.6z"/>
	</g>
</g>
<g>
	<path class="st0" d="M134.7,103.8c-11.3,0-19.2-7-22.1-16.3l-22.1-0.1c3.7,20.8,21.9,36.2,44.1,36.3c22.3,0.1,40.5-15.3,44.3-36.1
		l-22.1-0.1C154,96.9,146.1,103.9,134.7,103.8z"/>
</g>
</svg>
