<?xml version="1.0" encoding="utf-8"?>
<!-- Generator: Adobe Illustrator 22.1.0, SVG Export Plug-In . SVG Version: 6.00 Build 0)  -->
<svg version="1.1" id="Layer_1" xmlns="http://www.w3.org/2000/svg" xmlns:xlink="http://www.w3.org/1999/xlink" x="0px" y="0px"
	 viewBox="0 0 387.3 92.4" style="enable-background:new 0 0 387.3 92.4;" xml:space="preserve">
<style type="text/css">
	.st0{fill:#EF7A06;}
	.st1{fill:#F4970F;}
</style>
<g>
	<path class="st0" d="M348.3,91.6c16.5,0,28.3-7.9,32.3-10.9c0.8-0.6,1-1.8,0.4-2.7l-8.4-12.6c-0.6-1-2-1.2-2.9-0.5
		c-3.1,2.4-10.5,7.1-21.5,7.1c-13.1,0-21.7-9.2-23.5-16.6h-21.1C307.5,76.2,325.6,91.6,348.3,91.6z"/>
</g>
<g>
	<path class="st0" d="M247.1,59.5c0,17.9,12.4,29.9,28.8,29.9c9,0,15.7-3,18.7-4.6c0.9-0.5,1.3-1.6,0.9-2.6l-6.2-13.7
		c-0.5-1-1.7-1.5-2.7-1c-1.6,0.9-4.2,1.9-7.1,1.9c-5.7,0-11-3-11-13.3v-0.7h-21.3L247.1,59.5L247.1,59.5z"/>
</g>
<g>
	<path class="st0" d="M192.6,69.4c-8.2-0.3-14.9-6.2-16.6-14h-20.6c1.9,18.8,17.4,33.6,36.5,34.4l0,0c0.3,0,0.5,0,0.8,0s0.5,0,0.8,0
		l0,0c19.1-0.7,34.6-15.6,36.5-34.4h-20.7C207.5,63.2,200.8,69.1,192.6,69.4z"/>
</g>
<g>
	<path class="st0" d="M1.5,55.4v31.3c0,1.1,0.9,2,2,2h18.9c1.1,0,2-0.9,2-2V55.4H1.5z"/>
</g>
<g>
	<g>
		<path class="st1" d="M234.8,1.5c-13.7,0-24.8,11.1-24.8,24.8v24.4V51h20.3l0,0l0.1-23.4c0-3.1,1.9-5.6,5.7-5.7h10.8
			c0.1,0,0.2,0.1,0.2,0.2v28.6c0,0.1,0.1,0.2,0.2,0.2h20.9c0.1,0,0.2-0.1,0.2-0.2V22.2c0-0.1,0.1-0.2,0.2-0.2h40.1
			c0.2,0,0.2,0.2,0.2,0.3c-3.8,6.7-6,14.6-6,23.1c0,1.8,0.1,3.7,0.3,5.4c0,0.1,0.1,0.2,0.2,0.2h82c1.2,0,2.2-1,2.2-2.2
			c0-1.6,0-2.9,0-3.8c0-25.9-19.4-43.9-42.5-43.9c0,0,0,0-0.1,0l0.3-0.1l-109,0.5H234.8z M345.3,20.5c13.9,0,20.7,9.6,21.1,16.8
			c0,0.1-0.1,0.2-0.2,0.2h-41.3c-0.1,0-0.2-0.1-0.2-0.2C325.5,29.9,331.7,20.5,345.3,20.5z"/>
	</g>
</g>
<g>
	<path class="st1" d="M175.6,50.7V3c0-1.1-0.9-2-2-2h-16.4c-1.1,0-2,0.9-2,2v48h20.4C175.6,50.9,175.6,50.8,175.6,50.7z"/>
</g>
<g>
	<g>
		<path class="st1" d="M79.9,44.1L79.9,44.1L79.9,44.1z"/>
	</g>
	<g>
		<path class="st1" d="M80,42.4c0,0.2,0,0.4-0.1,0.6C80,42.8,80,42.6,80,42.4z"/>
	</g>
	<g>
		<path class="st1" d="M58.1,45.4c0-0.8,0-1.5,0.1-2.3C58.2,43.8,58.1,44.6,58.1,45.4z"/>
	</g>
	<g>
		<path class="st1" d="M80.5,39.5c-0.1,0.4-0.2,0.7-0.2,1.1C80.3,40.2,80.4,39.9,80.5,39.5z"/>
	</g>
	<g>
		<path class="st1" d="M80.7,38.4c-0.1,0.3-0.2,0.7-0.3,1C80.6,39.1,80.6,38.8,80.7,38.4z"/>
	</g>
	<g>
		<path class="st1" d="M58.3,42.3c0-0.5,0.1-1,0.1-1.6C58.3,41.3,58.3,41.8,58.3,42.3z"/>
	</g>
	<g>
		<path class="st1" d="M80.2,41c0,0.2-0.1,0.5-0.1,0.7C80.1,41.5,80.1,41.3,80.2,41z"/>
	</g>
	<g>
		<path class="st1" d="M62,27.3c0.2-0.4,0.4-0.9,0.6-1.3C62.4,26.4,62.2,26.9,62,27.3z"/>
	</g>
	<g>
		<path class="st1" d="M61.2,29.3c0.2-0.4,0.3-0.9,0.5-1.3C61.5,28.4,61.3,28.9,61.2,29.3z"/>
	</g>
	<g>
		<path class="st1" d="M62.9,25.4c0.2-0.4,0.4-0.8,0.7-1.3C63.3,24.5,63.1,25,62.9,25.4z"/>
	</g>
	<g>
		<path class="st1" d="M60.4,31.3c0.1-0.4,0.3-0.9,0.5-1.3C60.7,30.4,60.6,30.9,60.4,31.3z"/>
	</g>
	<g>
		<path class="st1" d="M58.8,37.7c0.1-0.5,0.2-0.9,0.2-1.4C59,36.8,58.9,37.3,58.8,37.7z"/>
	</g>
	<g>
		<path class="st1" d="M59.2,35.6c0.1-0.5,0.2-1,0.3-1.4C59.5,34.6,59.3,35.1,59.2,35.6z"/>
	</g>
	<g>
		<path class="st1" d="M59.8,33.5c0.1-0.5,0.3-0.9,0.4-1.4C60,32.5,59.9,33,59.8,33.5z"/>
	</g>
	<g>
		<path class="st1" d="M91.3,24.2c-0.3,0.2-0.6,0.4-0.9,0.6C90.7,24.5,91,24.3,91.3,24.2z"/>
	</g>
	<g>
		<path class="st1" d="M99.6,1.4c0.4,0,0.8-0.1,1.2-0.1C100.4,1.3,100,1.3,99.6,1.4z"/>
	</g>
	<g>
		<path class="st1" d="M102.5,21.2c-0.2,0-0.5,0-0.7,0C102,21.2,102.2,21.2,102.5,21.2z"/>
	</g>
	<g>
		<path class="st1" d="M103.1,1.2c-0.4,0-0.8,0-1.1,0c0.4,0,0.8,0,1.3,0C103.2,1.2,103.1,1.2,103.1,1.2z"/>
	</g>
	<g>
		<path class="st1" d="M97.3,1.6c0.4,0,0.8-0.1,1.2-0.1C98.1,1.5,97.7,1.6,97.3,1.6z"/>
	</g>
	<g>
		<path class="st1" d="M90.6,2.9c0.4-0.1,0.8-0.2,1.2-0.3C91.4,2.7,91,2.8,90.6,2.9z"/>
	</g>
	<g>
		<path class="st1" d="M92.8,2.4c0.4-0.1,0.8-0.2,1.2-0.3C93.6,2.2,93.2,2.3,92.8,2.4z"/>
	</g>
	<g>
		<path class="st1" d="M95,1.9c0.4-0.1,0.8-0.1,1.2-0.2C95.9,1.8,95.4,1.9,95,1.9z"/>
	</g>
	<g>
		<path class="st1" d="M100,21.3c-0.2,0-0.5,0.1-0.7,0.1C99.5,21.4,99.7,21.4,100,21.3z"/>
	</g>
	<g>
		<path class="st1" d="M96.5,22c-0.3,0.1-0.6,0.2-0.9,0.2C95.9,22.2,96.2,22.1,96.5,22z"/>
	</g>
	<g>
		<path class="st1" d="M95.4,22.3c-0.3,0.1-0.6,0.2-0.9,0.3C94.8,22.5,95.1,22.4,95.4,22.3z"/>
	</g>
	<g>
		<path class="st1" d="M94.3,22.7c-0.3,0.1-0.6,0.2-0.9,0.4C93.7,23,94,22.8,94.3,22.7z"/>
	</g>
	<g>
		<path class="st1" d="M98.8,21.5c-0.3,0-0.5,0.1-0.8,0.1C98.3,21.6,98.5,21.5,98.8,21.5z"/>
	</g>
	<g>
		<path class="st1" d="M92.3,23.6c-0.3,0.2-0.6,0.3-0.9,0.5C91.7,24,92,23.8,92.3,23.6z"/>
	</g>
	<g>
		<path class="st1" d="M97.6,21.7c-0.3,0.1-0.6,0.1-0.8,0.2C97.1,21.8,97.3,21.8,97.6,21.7z"/>
	</g>
	<g>
		<path class="st1" d="M101.2,21.2c-0.2,0-0.5,0-0.7,0.1C100.7,21.2,101,21.2,101.2,21.2z"/>
	</g>
	<g>
		<path class="st1" d="M58.5,40c0.1-0.5,0.1-1,0.2-1.4C58.6,39,58.5,39.5,58.5,40z"/>
	</g>
	<g>
		<path class="st1" d="M80.8,38.3c1.5-5.7,4.8-10.5,9.6-13.6C85.6,27.8,82.3,32.7,80.8,38.3z"/>
	</g>
	<g>
		<path class="st1" d="M64,23.4l-0.1,0.1C64,23.5,64,23.4,64,23.4L64,23.4z"/>
	</g>
	<g>
		<path class="st1" d="M89.7,3.2c-0.2,0.1-0.4,0.1-0.6,0.2l0,0C89.3,3.3,89.5,3.2,89.7,3.2z"/>
	</g>
	<g>
		<path class="st1" d="M92.4,23.6c0.1-0.1,0.3-0.1,0.4-0.2l0,0C92.7,23.4,92.5,23.5,92.4,23.6z"/>
	</g>
	<g>
		<path class="st1" d="M80.4,7.1c0.4-0.2,0.8-0.5,1.2-0.7C81.2,6.7,80.8,6.9,80.4,7.1z"/>
	</g>
	<g>
		<path class="st1" d="M82.4,6.1c0.4-0.2,0.8-0.4,1.2-0.6C83.2,5.7,82.8,5.9,82.4,6.1z"/>
	</g>
	<g>
		<path class="st1" d="M78.6,8.2C79,8,79.4,7.7,79.8,7.5C79.4,7.7,79,8,78.6,8.2z"/>
	</g>
	<g>
		<path class="st1" d="M76.8,9.4c0.4-0.3,0.8-0.5,1.2-0.8C77.5,8.9,77.2,9.2,76.8,9.4z"/>
	</g>
	<g>
		<path class="st1" d="M89.1,3.4L89.1,3.4c-0.2,0.1-0.4,0.1-0.6,0.2C88.7,3.5,88.9,3.4,89.1,3.4z"/>
	</g>
	<g>
		<path class="st1" d="M86.4,4.3c0.4-0.2,0.8-0.3,1.2-0.5C87.2,4,86.8,4.2,86.4,4.3z"/>
	</g>
	<g>
		<path class="st1" d="M92.8,23.4L92.8,23.4c0.2-0.1,0.3-0.2,0.5-0.2C93.1,23.2,93,23.3,92.8,23.4z"/>
	</g>
	<g>
		<path class="st1" d="M64.7,22.3c-0.2,0.4-0.4,0.7-0.6,1.1l0,0C64.2,23,64.4,22.6,64.7,22.3z"/>
	</g>
	<g>
		<path class="st1" d="M84.4,5.1c0.4-0.2,0.8-0.4,1.2-0.5C85.2,4.8,84.8,5,84.4,5.1z"/>
	</g>
	<g>
		<path class="st1" d="M70.5,3.4H52.3c-10.9,0-20.3,2.5-27.9,7.1V4c0-1.1-0.9-2-2-2L3.5,1.9c-1.1,0-2,0.9-2,2V51h20.9l0,0h1.9
			c0.8-18.9,9.5-27.6,28-27.6h4.8c0.7,0,1.4-0.4,1.8-1.1c3.2-6,7.5-11.2,12.8-15.4C73.2,5.8,72.4,3.4,70.5,3.4z"/>
	</g>
	<g>
		<path class="st1" d="M75,10.7c0.4-0.3,0.8-0.6,1.1-0.9C75.8,10.1,75.4,10.4,75,10.7z"/>
	</g>
	<g>
		<path class="st1" d="M71.8,13.5c0.3-0.3,0.7-0.6,1-1C72.5,12.8,72.2,13.2,71.8,13.5z"/>
	</g>
	<g>
		<path class="st1" d="M68.9,16.6c0.3-0.4,0.6-0.7,1-1.1C69.5,15.8,69.2,16.2,68.9,16.6z"/>
	</g>
	<g>
		<path class="st1" d="M66.2,19.9c0.3-0.4,0.6-0.8,0.9-1.2C66.8,19.1,66.5,19.5,66.2,19.9z"/>
	</g>
	<g>
		<path class="st1" d="M70.3,15c0.3-0.3,0.7-0.7,1-1C70.9,14.3,70.6,14.7,70.3,15z"/>
	</g>
	<g>
		<path class="st1" d="M67.5,18.2c0.3-0.4,0.6-0.8,0.9-1.1C68.1,17.4,67.8,17.8,67.5,18.2z"/>
	</g>
	<g>
		<path class="st1" d="M65,21.7c0.3-0.4,0.5-0.8,0.8-1.2C65.5,20.9,65.3,21.3,65,21.7z"/>
	</g>
	<g>
		<path class="st1" d="M73.4,12.1c0.4-0.3,0.7-0.6,1.1-0.9C74.1,11.4,73.7,11.8,73.4,12.1z"/>
	</g>
	<g>
		<path class="st1" d="M92.8,23.4h0.5v-0.2l0,0C93.1,23.2,93,23.3,92.8,23.4z"/>
	</g>
	<g>
		<path class="st1" d="M103.2,1.2c-0.4,0-0.8,0-1.3,0c-0.4,0-0.8,0-1.1,0c-0.4,0-0.8,0.1-1.2,0.1s-0.7,0-1.1,0.1
			c-0.4,0-0.8,0.1-1.2,0.1s-0.7,0.1-1.1,0.1c-0.4,0.1-0.8,0.1-1.2,0.2c-0.3,0.1-0.7,0.1-1,0.2c-0.4,0.1-0.8,0.2-1.2,0.3
			c-0.3,0.1-0.6,0.1-1,0.2c-0.4,0.1-0.8,0.2-1.2,0.3C90.3,2.9,90,3,89.7,3c-0.2,0.1-0.4,0.1-0.6,0.2c-0.2,0.1-0.4,0.1-0.6,0.2
			c-0.3,0.1-0.6,0.2-0.9,0.3c-0.4,0.1-0.8,0.3-1.2,0.5c-0.3,0.1-0.6,0.2-0.8,0.3c-0.4,0.2-0.8,0.3-1.2,0.5c-0.3,0.1-0.5,0.2-0.8,0.3
			c-0.4,0.2-0.8,0.4-1.2,0.6c-0.2,0.1-0.5,0.2-0.7,0.4c-0.4,0.2-0.8,0.4-1.2,0.7c-0.2,0.1-0.5,0.2-0.7,0.4c-0.4,0.2-0.8,0.5-1.2,0.7
			c-0.2,0.1-0.4,0.3-0.6,0.4c-0.4,0.3-0.8,0.5-1.2,0.8c-0.2,0.1-0.4,0.3-0.6,0.4c-0.4,0.3-0.8,0.6-1.1,0.9c-0.2,0.1-0.4,0.3-0.6,0.4
			c-0.4,0.3-0.7,0.6-1.1,0.9c-0.2,0.2-0.4,0.3-0.5,0.4c-0.4,0.3-0.7,0.6-1,1c-0.2,0.2-0.4,0.3-0.5,0.5c-0.3,0.3-0.7,0.7-1,1
			c-0.2,0.2-0.3,0.3-0.5,0.5c-0.3,0.4-0.6,0.7-1,1.1c-0.2,0.2-0.3,0.3-0.5,0.5c-0.3,0.4-0.6,0.7-0.9,1.1c-0.1,0.2-0.3,0.4-0.4,0.5
			c-0.3,0.4-0.6,0.8-0.9,1.2c-0.1,0.2-0.3,0.4-0.4,0.5c-0.3,0.4-0.5,0.8-0.8,1.2c-0.1,0.2-0.3,0.4-0.4,0.6c-0.2,0.4-0.4,0.7-0.6,1.1
			l-0.1,0.1c-0.1,0.2-0.2,0.4-0.4,0.6c-0.2,0.4-0.4,0.8-0.7,1.3c-0.1,0.2-0.2,0.4-0.3,0.6c-0.2,0.4-0.4,0.9-0.6,1.3
			c-0.1,0.2-0.2,0.4-0.3,0.7c-0.2,0.4-0.3,0.9-0.5,1.3c-0.1,0.2-0.2,0.5-0.3,0.7c-0.2,0.4-0.3,0.9-0.5,1.3c-0.1,0.2-0.2,0.5-0.3,0.7
			c-0.1,0.5-0.3,0.9-0.4,1.4c-0.1,0.2-0.1,0.5-0.2,0.7c-0.1,0.5-0.2,0.9-0.3,1.4c-0.1,0.2-0.1,0.5-0.2,0.7c-0.1,0.5-0.2,0.9-0.2,1.4
			c0,0.3-0.1,0.5-0.1,0.8c-0.1,0.5-0.1,1-0.2,1.4c0,0.3-0.1,0.5-0.1,0.8c-0.1,0.5-0.1,1-0.1,1.6c0,0.2,0,0.5-0.1,0.7
			c0,0.8-0.1,1.5-0.1,2.3c0,1.9,0.1,3.8,0.4,5.6h21.9c-0.4-1.8-0.6-3.7-0.6-5.6c0-0.4,0-0.8,0-1.2v-0.1c0-0.4,0-0.7,0.1-1.1
			c0-0.2,0-0.4,0.1-0.6c0-0.2,0-0.4,0.1-0.6c0-0.3,0.1-0.5,0.1-0.7c0-0.1,0-0.3,0.1-0.4c0.1-0.4,0.1-0.7,0.2-1.1c0,0,0,0,0-0.1
			c0.1-0.3,0.2-0.7,0.3-1v-0.1c1.5-5.7,4.8-10.5,9.6-13.6l0,0c0.3-0.2,0.6-0.4,0.9-0.6l0,0c0.3-0.2,0.6-0.3,0.9-0.5c0,0,0,0,0.1,0
			c0.1-0.1,0.3-0.1,0.4-0.2c0.2-0.1,0.3-0.2,0.5-0.2l0,0c0,0,0.1,0,0.1-0.1c0.3-0.1,0.6-0.3,0.9-0.4c0.1,0,0.1-0.1,0.2-0.1
			c0.3-0.1,0.6-0.2,0.9-0.3c0.1,0,0.2-0.1,0.2-0.1c0.3-0.1,0.6-0.2,0.9-0.2c0.1,0,0.2-0.1,0.3-0.1c0.3-0.1,0.5-0.1,0.8-0.2
			c0.1,0,0.3-0.1,0.4-0.1c0.3-0.1,0.5-0.1,0.8-0.1c0.1,0,0.3-0.1,0.4-0.1c0.2,0,0.5-0.1,0.7-0.1s0.3,0,0.5-0.1c0.2,0,0.5,0,0.7-0.1
			c0.2,0,0.4,0,0.6,0c0.2,0,0.5,0,0.7,0s0.4,0,0.6,0c0,0,0,0,0.1,0c14.4,0,23.3,11.3,23.2,24.4c0,1.9-0.2,3.7-0.6,5.5h21.9
			c0.2-1.8,0.4-3.6,0.4-5.4C148.1,20.7,128.3,1.3,103.2,1.2z"/>
	</g>
	<g>
		<path class="st1" d="M92.4,23.6C92.3,23.6,92.3,23.6,92.4,23.6C92.3,23.6,92.3,23.6,92.4,23.6z"/>
	</g>
	<g>
		<path class="st1" d="M94.5,22.6c-0.1,0-0.1,0-0.2,0.1C94.4,22.7,94.4,22.7,94.5,22.6z"/>
	</g>
	<g>
		<path class="st1" d="M63.6,24.1c0.1-0.2,0.2-0.4,0.4-0.6C63.8,23.7,63.7,23.9,63.6,24.1z"/>
	</g>
	<g>
		<path class="st1" d="M62.6,26c0.1-0.2,0.2-0.4,0.3-0.6C62.8,25.6,62.7,25.8,62.6,26z"/>
	</g>
	<g>
		<path class="st1" d="M61.7,28c0.1-0.2,0.2-0.4,0.3-0.7C61.9,27.5,61.8,27.8,61.7,28z"/>
	</g>
	<g>
		<path class="st1" d="M90.4,24.7L90.4,24.7L90.4,24.7z"/>
	</g>
	<g>
		<path class="st1" d="M91.3,24.1L91.3,24.1L91.3,24.1z"/>
	</g>
	<g>
		<path class="st1" d="M91.9,2.6c0.3-0.1,0.6-0.1,1-0.2C92.5,2.4,92.2,2.5,91.9,2.6z"/>
	</g>
	<g>
		<path class="st1" d="M80.8,38.3L80.8,38.3C80.7,38.4,80.7,38.3,80.8,38.3z"/>
	</g>
	<g>
		<path class="st1" d="M99.2,21.4c-0.1,0-0.3,0.1-0.4,0.1C98.9,21.5,99.1,21.4,99.2,21.4z"/>
	</g>
	<g>
		<path class="st1" d="M95.6,22.3c-0.1,0-0.2,0.1-0.2,0.1C95.5,22.3,95.6,22.3,95.6,22.3z"/>
	</g>
	<g>
		<path class="st1" d="M93.3,23.1C93.3,23.1,93.4,23.1,93.3,23.1C93.4,23.1,93.3,23.1,93.3,23.1L93.3,23.1z"/>
	</g>
	<g>
		<path class="st1" d="M98,21.6c-0.1,0-0.3,0.1-0.4,0.1C97.7,21.7,97.9,21.7,98,21.6z"/>
	</g>
	<g>
		<path class="st1" d="M102.5,21.2c0.2,0,0.5,0,0.7,0c0,0,0,0-0.1,0C102.9,21.1,102.7,21.1,102.5,21.2z"/>
	</g>
	<g>
		<path class="st1" d="M98.5,1.5c0.4,0,0.7-0.1,1.1-0.1C99.3,1.4,98.9,1.4,98.5,1.5z"/>
	</g>
	<g>
		<path class="st1" d="M89.7,3.2C90,3.1,90.3,3,90.6,3C90.3,3,90,3.1,89.7,3.2z"/>
	</g>
	<g>
		<path class="st1" d="M96.8,21.9c-0.1,0-0.2,0.1-0.3,0.1C96.6,22,96.7,21.9,96.8,21.9z"/>
	</g>
	<g>
		<path class="st1" d="M58.7,38.5c0-0.3,0.1-0.5,0.1-0.8C58.8,38,58.7,38.3,58.7,38.5z"/>
	</g>
	<g>
		<path class="st1" d="M94,2.1C94.3,2,94.7,2,95,1.9C94.7,2,94.4,2,94,2.1z"/>
	</g>
	<g>
		<path class="st1" d="M58.2,43.1c0-0.2,0-0.5,0.1-0.7C58.3,42.6,58.2,42.8,58.2,43.1z"/>
	</g>
	<g>
		<path class="st1" d="M58.4,40.8c0-0.3,0.1-0.5,0.1-0.8C58.5,40.3,58.4,40.5,58.4,40.8z"/>
	</g>
	<g>
		<path class="st1" d="M100.8,1.3c0.4,0,0.8,0,1.1,0C101.6,1.3,101.2,1.3,100.8,1.3z"/>
	</g>
	<g>
		<path class="st1" d="M79.9,44.2c0,0.4,0,0.8,0,1.2C79.8,45,79.8,44.6,79.9,44.2z"/>
	</g>
	<g>
		<path class="st1" d="M100.5,21.3c-0.2,0-0.3,0-0.5,0.1C100.1,21.3,100.3,21.3,100.5,21.3z"/>
	</g>
	<g>
		<path class="st1" d="M59.1,36.3c0.1-0.2,0.1-0.5,0.2-0.7C59.2,35.8,59.1,36.1,59.1,36.3z"/>
	</g>
	<g>
		<path class="st1" d="M59.6,34.2c0.1-0.2,0.1-0.5,0.2-0.7C59.7,33.7,59.6,33.9,59.6,34.2z"/>
	</g>
	<g>
		<path class="st1" d="M60.2,32.1c0.1-0.2,0.2-0.5,0.3-0.7C60.3,31.6,60.3,31.8,60.2,32.1z"/>
	</g>
	<g>
		<path class="st1" d="M80.2,40.6c0,0.1,0,0.3-0.1,0.4C80.2,40.9,80.2,40.8,80.2,40.6z"/>
	</g>
	<g>
		<path class="st1" d="M80.5,39.5L80.5,39.5L80.5,39.5z"/>
	</g>
	<g>
		<path class="st1" d="M101.8,21.2c-0.2,0-0.4,0-0.6,0C101.4,21.2,101.6,21.2,101.8,21.2z"/>
	</g>
	<g>
		<path class="st1" d="M79.9,43c0,0.4-0.1,0.7-0.1,1.1C79.9,43.7,79.9,43.3,79.9,43z"/>
	</g>
	<g>
		<path class="st1" d="M96.3,1.7c0.3-0.1,0.7-0.1,1.1-0.1C97,1.6,96.6,1.7,96.3,1.7z"/>
	</g>
	<g>
		<path class="st1" d="M60.9,30c0.1-0.2,0.2-0.5,0.3-0.7C61.1,29.5,61,29.8,60.9,30z"/>
	</g>
	<g>
		<path class="st1" d="M80.1,41.8c0,0.2,0,0.4-0.1,0.6C80,42.2,80,42,80.1,41.8z"/>
	</g>
	<g>
		<path class="st1" d="M81.6,6.5c0.2-0.1,0.5-0.2,0.7-0.4C82.1,6.2,81.9,6.3,81.6,6.5z"/>
	</g>
	<g>
		<path class="st1" d="M69.8,15.5c0.2-0.2,0.3-0.3,0.5-0.5C70.1,15.2,70,15.3,69.8,15.5z"/>
	</g>
	<g>
		<path class="st1" d="M68.4,17.1c0.1-0.2,0.3-0.3,0.5-0.5C68.7,16.7,68.5,16.9,68.4,17.1z"/>
	</g>
	<g>
		<path class="st1" d="M93.3,23.1L93.3,23.1L93.3,23.1L93.3,23.1z"/>
	</g>
	<g>
		<path class="st1" d="M72.9,12.5c0.2-0.2,0.4-0.3,0.5-0.4C73.2,12.2,73,12.4,72.9,12.5z"/>
	</g>
	<g>
		<path class="st1" d="M74.5,11.1c0.2-0.1,0.4-0.3,0.6-0.4C74.9,10.9,74.7,11,74.5,11.1z"/>
	</g>
	<g>
		<path class="st1" d="M65.8,20.5c0.1-0.2,0.3-0.4,0.4-0.5C66.1,20.1,65.9,20.3,65.8,20.5z"/>
	</g>
	<g>
		<path class="st1" d="M71.3,14c0.2-0.2,0.4-0.3,0.5-0.5C71.6,13.6,71.5,13.8,71.3,14z"/>
	</g>
	<g>
		<path class="st1" d="M67.1,18.7c0.1-0.2,0.3-0.4,0.4-0.5C67.4,18.4,67.2,18.6,67.1,18.7z"/>
	</g>
	<g>
		<path class="st1" d="M85.6,4.6c0.3-0.1,0.5-0.2,0.8-0.3C86.1,4.4,85.8,4.5,85.6,4.6z"/>
	</g>
	<g>
		<path class="st1" d="M87.6,3.8c0.3-0.1,0.6-0.2,0.9-0.3C88.2,3.7,87.9,3.7,87.6,3.8z"/>
	</g>
	<g>
		<path class="st1" d="M83.6,5.5c0.3-0.1,0.5-0.2,0.8-0.3C84.1,5.3,83.8,5.4,83.6,5.5z"/>
	</g>
	<g>
		<path class="st1" d="M64.7,22.3c0.1-0.2,0.3-0.4,0.4-0.6C64.9,21.9,64.8,22.1,64.7,22.3z"/>
	</g>
	<g>
		<path class="st1" d="M79.8,7.5c0.2-0.1,0.5-0.2,0.7-0.4C80.2,7.2,80,7.4,79.8,7.5z"/>
	</g>
	<g>
		<path class="st1" d="M76.2,9.8c0.2-0.1,0.4-0.3,0.6-0.4C76.6,9.6,76.4,9.7,76.2,9.8z"/>
	</g>
	<g>
		<path class="st1" d="M77.9,8.6c0.2-0.1,0.4-0.3,0.6-0.4C78.4,8.4,78.1,8.5,77.9,8.6z"/>
	</g>
</g>
<g>
	<path class="st0" d="M103,71.8c-11.3,0-19.2-7-22.1-16.3l-22.1-0.1c3.7,20.8,21.9,36.2,44.1,36.3c22.3,0.1,40.5-15.3,44.3-36.1
		l-22.1-0.1C122.3,64.9,114.4,71.9,103,71.8z"/>
</g>
</svg>
