<?xml version="1.0" encoding="utf-8"?>
<!-- Generator: Adobe Illustrator 22.1.0, SVG Export Plug-In . SVG Version: 6.00 Build 0)  -->
<svg version="1.1" id="Layer_1" xmlns="http://www.w3.org/2000/svg" xmlns:xlink="http://www.w3.org/1999/xlink" x="0px" y="0px"
	 viewBox="0 0 387 91.4" style="enable-background:new 0 0 387 91.4;" xml:space="preserve">
<style type="text/css">
	.st0{fill:#F45151;stroke:#FFFFFF;stroke-width:4;stroke-miterlimit:10;}
	.st1{fill:#E52107;}
	.st2{fill:#F45151;}
</style>
<path class="st0" d="M66.2,8.2c0,0,5,4,3,9"/>
<g>
	<path class="st1" d="M347.2,90.8c16.5,0,28.3-7.9,32.3-10.9c0.8-0.6,1-1.8,0.4-2.7l-8.4-12.6c-0.6-1-2-1.2-2.9-0.5
		c-3.1,2.4-10.5,7.1-21.5,7.1c-13.1,0-21.7-9.2-23.5-16.6h-21.1C306.5,75.4,324.5,90.8,347.2,90.8z"/>
</g>
<g>
	<path class="st1" d="M246,58.8c0,17.9,12.4,29.9,28.8,29.9c9,0,15.7-3,18.7-4.6c0.9-0.5,1.3-1.6,0.9-2.6l-6.2-13.7
		c-0.5-1-1.7-1.5-2.7-1c-1.6,0.9-4.2,1.9-7.1,1.9c-5.7,0-11-3-11-13.3v-0.7h-21.3v4.1H246z"/>
</g>
<g>
	<path class="st1" d="M191.6,68.7c-8.2-0.3-14.9-6.2-16.6-14h-20.6c1.9,18.8,17.4,33.6,36.5,34.4l0,0c0.3,0,0.5,0,0.8,0s0.5,0,0.8,0
		l0,0c19.1-0.7,34.6-15.6,36.5-34.4h-20.7C206.4,62.4,199.8,68.3,191.6,68.7z"/>
</g>
<g>
	<path class="st1" d="M0.5,54.7v31.3c0,1.1,0.9,2,2,2h18.9c1.1,0,2-0.9,2-2V54.7H0.5z"/>
</g>
<g>
	<g>
		<path class="st2" d="M233.8,0.8c-13.7,0-24.8,11.1-24.8,24.8v24.4v0.3h20.3l0,0l0.1-23.4c0-3.1,1.9-5.6,5.7-5.7h10.8
			c0.1,0,0.2,0.1,0.2,0.2v28.6c0,0.1,0.1,0.2,0.2,0.2h20.9c0.1,0,0.2-0.1,0.2-0.2V21.5c0-0.1,0.1-0.2,0.2-0.2h40.1
			c0.2,0,0.2,0.2,0.2,0.3c-3.8,6.7-6,14.6-6,23.1c0,1.8,0.1,3.7,0.3,5.4c0,0.1,0.1,0.2,0.2,0.2h82c1.2,0,2.2-1,2.2-2.2
			c0-1.6,0-2.9,0-3.8c0-25.9-19.4-43.9-42.5-43.9c0,0,0,0-0.1,0l0.3-0.1l-109,0.5H233.8z M344.2,19.8c13.9,0,20.7,9.6,21.1,16.8
			c0,0.1-0.1,0.2-0.2,0.2h-41.3c-0.1,0-0.2-0.1-0.2-0.2C324.5,29.2,330.6,19.8,344.2,19.8z"/>
	</g>
</g>
<g>
	<path class="st2" d="M174.6,49.9V2.2c0-1.1-0.9-2-2-2h-16.4c-1.1,0-2,0.9-2,2v48h20.4C174.6,50.2,174.6,50.1,174.6,49.9z"/>
</g>
<g>
	<g>
		<path class="st2" d="M78.8,43.3L78.8,43.3L78.8,43.3z"/>
	</g>
	<g>
		<path class="st2" d="M78.9,41.7c0,0.2,0,0.4-0.1,0.6C78.9,42.1,78.9,41.8,78.9,41.7z"/>
	</g>
	<g>
		<path class="st2" d="M57.1,44.7c0-0.8,0-1.5,0.1-2.3C57.2,43.1,57.1,43.8,57.1,44.7z"/>
	</g>
	<g>
		<path class="st2" d="M79.4,38.8c-0.1,0.4-0.2,0.7-0.2,1.1C79.2,39.4,79.3,39.2,79.4,38.8z"/>
	</g>
	<g>
		<path class="st2" d="M79.7,37.7c-0.1,0.3-0.2,0.7-0.3,1C79.6,38.3,79.6,38.1,79.7,37.7z"/>
	</g>
	<g>
		<path class="st2" d="M57.2,41.6c0-0.5,0.1-1,0.1-1.6C57.2,40.6,57.2,41.1,57.2,41.6z"/>
	</g>
	<g>
		<path class="st2" d="M79.2,40.2c0,0.2-0.1,0.5-0.1,0.7C79.1,40.8,79.1,40.6,79.2,40.2z"/>
	</g>
	<g>
		<path class="st2" d="M60.9,26.5c0.2-0.4,0.4-0.9,0.6-1.3C61.3,25.7,61.2,26.2,60.9,26.5z"/>
	</g>
	<g>
		<path class="st2" d="M60.2,28.5c0.2-0.4,0.3-0.9,0.5-1.3C60.4,27.7,60.2,28.2,60.2,28.5z"/>
	</g>
	<g>
		<path class="st2" d="M61.8,24.7c0.2-0.4,0.4-0.8,0.7-1.3C62.2,23.8,62.1,24.2,61.8,24.7z"/>
	</g>
	<g>
		<path class="st2" d="M59.3,30.5c0.1-0.4,0.3-0.9,0.5-1.3C59.7,29.7,59.6,30.2,59.3,30.5z"/>
	</g>
	<g>
		<path class="st2" d="M57.8,36.9c0.1-0.5,0.2-0.9,0.2-1.4C57.9,36.1,57.8,36.6,57.8,36.9z"/>
	</g>
	<g>
		<path class="st2" d="M58.2,34.8c0.1-0.5,0.2-1,0.3-1.4C58.4,33.8,58.2,34.3,58.2,34.8z"/>
	</g>
	<g>
		<path class="st2" d="M58.8,32.8c0.1-0.5,0.3-0.9,0.4-1.4C58.9,31.8,58.8,32.2,58.8,32.8z"/>
	</g>
	<g>
		<path class="st2" d="M90.2,23.5c-0.3,0.2-0.6,0.4-0.9,0.6C89.7,23.8,89.9,23.5,90.2,23.5z"/>
	</g>
	<g>
		<path class="st2" d="M98.6,0.7c0.4,0,0.8-0.1,1.2-0.1C99.4,0.5,98.9,0.5,98.6,0.7z"/>
	</g>
	<g>
		<path class="st2" d="M101.4,20.5c-0.2,0-0.5,0-0.7,0C100.9,20.5,101.1,20.5,101.4,20.5z"/>
	</g>
	<g>
		<path class="st2" d="M102.1,0.5c-0.4,0-0.8,0-1.1,0c0.4,0,0.8,0,1.3,0C102.1,0.5,102.1,0.5,102.1,0.5z"/>
	</g>
	<g>
		<path class="st2" d="M96.2,0.8c0.4,0,0.8-0.1,1.2-0.1C97.1,0.8,96.7,0.8,96.2,0.8z"/>
	</g>
	<g>
		<path class="st2" d="M89.6,2.2C90,2.1,90.4,2,90.8,1.9C90.3,2,89.9,2,89.6,2.2z"/>
	</g>
	<g>
		<path class="st2" d="M91.8,1.7c0.4-0.1,0.8-0.2,1.2-0.3C92.6,1.5,92.2,1.5,91.8,1.7z"/>
	</g>
	<g>
		<path class="st2" d="M93.9,1.2c0.4-0.1,0.8-0.1,1.2-0.2C94.8,1,94.3,1.2,93.9,1.2z"/>
	</g>
	<g>
		<path class="st2" d="M98.9,20.5c-0.2,0-0.5,0.1-0.7,0.1C98.4,20.7,98.6,20.7,98.9,20.5z"/>
	</g>
	<g>
		<path class="st2" d="M95.4,21.2c-0.3,0.1-0.6,0.2-0.9,0.2C94.8,21.5,95.2,21.3,95.4,21.2z"/>
	</g>
	<g>
		<path class="st2" d="M94.3,21.5c-0.3,0.1-0.6,0.2-0.9,0.3C93.8,21.8,94.1,21.7,94.3,21.5z"/>
	</g>
	<g>
		<path class="st2" d="M93.2,22c-0.3,0.1-0.6,0.2-0.9,0.4C92.7,22.2,92.9,22,93.2,22z"/>
	</g>
	<g>
		<path class="st2" d="M97.8,20.8c-0.3,0-0.5,0.1-0.8,0.1C97.2,20.8,97.4,20.8,97.8,20.8z"/>
	</g>
	<g>
		<path class="st2" d="M91.2,22.8c-0.3,0.2-0.6,0.3-0.9,0.5C90.7,23.2,90.9,23,91.2,22.8z"/>
	</g>
	<g>
		<path class="st2" d="M96.6,21C96.2,21,96,21,95.8,21.2C96.1,21,96.2,21,96.6,21z"/>
	</g>
	<g>
		<path class="st2" d="M100.1,20.5c-0.2,0-0.5,0-0.7,0.1C99.6,20.5,99.9,20.5,100.1,20.5z"/>
	</g>
	<g>
		<path class="st2" d="M57.4,39.2c0.1-0.5,0.1-1,0.2-1.4C57.6,38.2,57.4,38.8,57.4,39.2z"/>
	</g>
	<g>
		<path class="st2" d="M79.8,37.6c1.5-5.7,4.8-10.5,9.6-13.6C84.6,27,81.2,32,79.8,37.6z"/>
	</g>
	<g>
		<path class="st2" d="M62.9,22.7L62.9,22.7C62.9,22.8,62.9,22.7,62.9,22.7L62.9,22.7z"/>
	</g>
	<g>
		<path class="st2" d="M88.7,2.5c-0.2,0.1-0.4,0.1-0.6,0.2l0,0C88.2,2.5,88.4,2.5,88.7,2.5z"/>
	</g>
	<g>
		<path class="st2" d="M91.3,22.8c0.1-0.1,0.3-0.1,0.4-0.2l0,0C91.7,22.7,91.4,22.8,91.3,22.8z"/>
	</g>
	<g>
		<path class="st2" d="M79.3,6.3c0.4-0.2,0.8-0.5,1.2-0.7C80.2,6,79.8,6.2,79.3,6.3z"/>
	</g>
	<g>
		<path class="st2" d="M81.3,5.3c0.4-0.2,0.8-0.4,1.2-0.6C82.2,5,81.8,5.2,81.3,5.3z"/>
	</g>
	<g>
		<path class="st2" d="M77.6,7.5C78,7.2,78.4,7,78.8,6.8C78.3,7,77.9,7.2,77.6,7.5z"/>
	</g>
	<g>
		<path class="st2" d="M75.8,8.7c0.4-0.3,0.8-0.5,1.2-0.8C76.4,8.2,76.2,8.5,75.8,8.7z"/>
	</g>
	<g>
		<path class="st2" d="M88.1,2.7L88.1,2.7c-0.2,0.1-0.4,0.1-0.6,0.2C87.7,2.8,87.8,2.7,88.1,2.7z"/>
	</g>
	<g>
		<path class="st2" d="M85.3,3.5c0.4-0.2,0.8-0.3,1.2-0.5C86.2,3.2,85.8,3.5,85.3,3.5z"/>
	</g>
	<g>
		<path class="st2" d="M91.8,22.7L91.8,22.7c0.2-0.1,0.3-0.2,0.5-0.2C92.1,22.5,91.9,22.5,91.8,22.7z"/>
	</g>
	<g>
		<path class="st2" d="M63.7,21.5c-0.2,0.4-0.4,0.7-0.6,1.1l0,0C63.2,22.2,63.3,21.8,63.7,21.5z"/>
	</g>
	<g>
		<path class="st2" d="M83.3,4.3c0.4-0.2,0.8-0.4,1.2-0.5C84.2,4,83.8,4.2,83.3,4.3z"/>
	</g>
	<g>
		<path class="st2" d="M69.4,2.7H51.2C40.3,2.7,31,5.2,23.3,9.8V3.2c0-1.1-0.9-2-2-2L2.4,1.2c-1.1,0-2,0.9-2,2v47.1h20.9l0,0h1.9
			c0.8-18.9,9.5-27.6,28-27.6h4.8c0.7,0,1.4-0.4,1.8-1.1c3.2-6,7.5-11.2,12.8-15.4C72.2,5,71.3,2.7,69.4,2.7z"/>
	</g>
	<g>
		<path class="st2" d="M73.9,10C74.3,9.7,74.8,9.4,75,9C74.8,9.3,74.3,9.7,73.9,10z"/>
	</g>
	<g>
		<path class="st2" d="M70.8,12.8c0.3-0.3,0.7-0.6,1-1C71.4,12,71.2,12.5,70.8,12.8z"/>
	</g>
	<g>
		<path class="st2" d="M67.8,15.8c0.3-0.4,0.6-0.7,1-1.1C68.4,15,68.2,15.5,67.8,15.8z"/>
	</g>
	<g>
		<path class="st2" d="M65.2,19.2c0.3-0.4,0.6-0.8,0.9-1.2C65.8,18.3,65.4,18.8,65.2,19.2z"/>
	</g>
	<g>
		<path class="st2" d="M69.2,14.2c0.3-0.3,0.7-0.7,1-1C69.8,13.5,69.6,14,69.2,14.2z"/>
	</g>
	<g>
		<path class="st2" d="M66.4,17.5c0.3-0.4,0.6-0.8,0.9-1.1C67.1,16.7,66.8,17,66.4,17.5z"/>
	</g>
	<g>
		<path class="st2" d="M63.9,21c0.3-0.4,0.5-0.8,0.8-1.2C64.4,20.2,64.2,20.5,63.9,21z"/>
	</g>
	<g>
		<path class="st2" d="M72.3,11.3c0.4-0.3,0.7-0.6,1.1-0.9C73.1,10.7,72.7,11,72.3,11.3z"/>
	</g>
	<g>
		<path class="st2" d="M91.8,22.7h0.5v-0.2l0,0C92.1,22.5,91.9,22.5,91.8,22.7z"/>
	</g>
	<g>
		<path class="st2" d="M102.1,0.5c-0.4,0-0.8,0-1.3,0c-0.4,0-0.8,0-1.1,0c-0.4,0-0.8,0.1-1.2,0.1s-0.7,0-1.1,0.1
			c-0.4,0-0.8,0.1-1.2,0.1c-0.4,0-0.7,0.1-1.1,0.1c-0.4,0.1-0.8,0.1-1.2,0.2c-0.3,0.1-0.7,0.1-1,0.2c-0.4,0.1-0.8,0.2-1.2,0.3
			c-0.3,0.1-0.6,0.1-1,0.2c-0.4,0.1-0.8,0.2-1.2,0.3c-0.3,0.1-0.6,0.2-0.9,0.2c-0.2,0.1-0.4,0.1-0.6,0.2c-0.2,0.1-0.4,0.1-0.6,0.2
			c-0.3,0.1-0.6,0.2-0.9,0.3c-0.4,0.1-0.8,0.3-1.2,0.5c-0.3,0.1-0.6,0.2-0.8,0.3c-0.4,0.2-0.8,0.3-1.2,0.5c-0.3,0.1-0.5,0.2-0.8,0.3
			c-0.4,0.2-0.8,0.4-1.2,0.6c-0.2,0.1-0.5,0.2-0.7,0.4c-0.4,0.2-0.8,0.4-1.2,0.7c-0.2,0.1-0.5,0.2-0.7,0.4c-0.4,0.2-0.8,0.5-1.2,0.7
			c-0.2,0.1-0.4,0.3-0.6,0.4c-0.4,0.3-0.8,0.5-1.2,0.8c-0.2,0.1-0.4,0.3-0.6,0.4c-0.4,0.3-0.8,0.6-1.1,0.9c-0.2,0.1-0.4,0.3-0.6,0.4
			c-0.4,0.3-0.7,0.6-1.1,0.9c-0.2,0.2-0.4,0.3-0.5,0.4c-0.4,0.3-0.7,0.6-1,1c-0.2,0.2-0.4,0.3-0.5,0.5c-0.3,0.3-0.7,0.7-1,1
			c-0.2,0.2-0.3,0.3-0.5,0.5c-0.3,0.4-0.6,0.7-1,1.1c-0.2,0.2-0.3,0.3-0.5,0.5c-0.3,0.4-0.6,0.7-0.9,1.1c-0.1,0.2-0.3,0.4-0.4,0.5
			c-0.3,0.4-0.6,0.8-0.9,1.2c-0.1,0.2-0.3,0.4-0.4,0.5c-0.3,0.4-0.5,0.8-0.8,1.2c-0.1,0.2-0.3,0.4-0.4,0.6c-0.2,0.4-0.4,0.7-0.6,1.1
			l-0.1,0.1c-0.1,0.2-0.2,0.4-0.4,0.6c-0.2,0.4-0.4,0.8-0.7,1.3c-0.1,0.2-0.2,0.4-0.3,0.6c-0.2,0.4-0.4,0.9-0.6,1.3
			c-0.1,0.2-0.2,0.4-0.3,0.7c-0.2,0.4-0.3,0.9-0.5,1.3c-0.1,0.2-0.2,0.5-0.3,0.7c-0.2,0.4-0.3,0.9-0.5,1.3c-0.1,0.2-0.2,0.5-0.3,0.7
			c-0.1,0.5-0.3,0.9-0.4,1.4c-0.1,0.2-0.1,0.5-0.2,0.7c-0.1,0.5-0.2,0.9-0.3,1.4c-0.1,0.2-0.1,0.5-0.2,0.7c-0.1,0.5-0.2,0.9-0.2,1.4
			c0,0.3-0.1,0.5-0.1,0.8c-0.1,0.5-0.1,1-0.2,1.4c0,0.3-0.1,0.5-0.1,0.8c-0.1,0.5-0.1,1-0.1,1.6c0,0.2,0,0.5-0.1,0.7
			c0,0.8-0.1,1.5-0.1,2.3c0,1.9,0.1,3.8,0.4,5.6h21.9c-0.4-1.8-0.6-3.7-0.6-5.6c0-0.4,0-0.8,0-1.2v-0.1c0-0.4,0-0.7,0.1-1.1
			c0-0.2,0-0.4,0.1-0.6c0-0.2,0-0.4,0.1-0.6c0-0.3,0.1-0.5,0.1-0.7c0-0.1,0-0.3,0.1-0.4c0.1-0.4,0.1-0.7,0.2-1.1c0,0,0,0,0-0.1
			c0.1-0.3,0.2-0.7,0.3-1v-0.1c1.5-5.7,4.8-10.5,9.6-13.6l0,0c0.3-0.2,0.6-0.4,0.9-0.6l0,0c0.3-0.2,0.6-0.3,0.9-0.5c0,0,0,0,0.1,0
			c0.1-0.1,0.3-0.1,0.4-0.2c0.2-0.1,0.3-0.2,0.5-0.2l0,0c0,0,0.1,0,0.1-0.1c0.3-0.1,0.6-0.3,0.9-0.4c0.1,0,0.1-0.1,0.2-0.1
			c0.3-0.1,0.6-0.2,0.9-0.3c0.1,0,0.2-0.1,0.2-0.1c0.3-0.1,0.6-0.2,0.9-0.2c0.1,0,0.2-0.1,0.3-0.1c0.3-0.1,0.5-0.1,0.8-0.2
			c0.1,0,0.3-0.1,0.4-0.1c0.3-0.1,0.5-0.1,0.8-0.1c0.1,0,0.3-0.1,0.4-0.1c0.2,0,0.5-0.1,0.7-0.1s0.3,0,0.5-0.1c0.2,0,0.5,0,0.7-0.1
			c0.2,0,0.4,0,0.6,0c0.2,0,0.5,0,0.7,0s0.4,0,0.6,0c0,0,0,0,0.1,0c14.4,0,23.3,11.3,23.2,24.4c0,1.9-0.2,3.7-0.6,5.5h21.9
			c0.2-1.8,0.4-3.6,0.4-5.4C147.1,20,127.2,0.5,102.1,0.5z"/>
	</g>
	<g>
		<path class="st2" d="M91.3,22.8C91.2,22.8,91.2,22.8,91.3,22.8C91.2,22.8,91.2,22.8,91.3,22.8z"/>
	</g>
	<g>
		<path class="st2" d="M93.4,21.8c-0.1,0-0.1,0-0.2,0.1C93.3,22,93.3,22,93.4,21.8z"/>
	</g>
	<g>
		<path class="st2" d="M62.6,23.3c0.1-0.2,0.2-0.4,0.4-0.6C62.8,23,62.7,23.2,62.6,23.3z"/>
	</g>
	<g>
		<path class="st2" d="M61.6,25.2c0.1-0.2,0.2-0.4,0.3-0.6C61.8,24.8,61.7,25,61.6,25.2z"/>
	</g>
	<g>
		<path class="st2" d="M60.7,27.2c0.1-0.2,0.2-0.4,0.3-0.7C60.8,26.8,60.8,27,60.7,27.2z"/>
	</g>
	<g>
		<path class="st2" d="M89.3,24L89.3,24L89.3,24z"/>
	</g>
	<g>
		<path class="st2" d="M90.2,23.3L90.2,23.3L90.2,23.3z"/>
	</g>
	<g>
		<path class="st2" d="M90.8,1.8c0.3-0.1,0.6-0.1,1-0.2C91.4,1.7,91.2,1.8,90.8,1.8z"/>
	</g>
	<g>
		<path class="st2" d="M79.8,37.6L79.8,37.6C79.7,37.7,79.7,37.6,79.8,37.6z"/>
	</g>
	<g>
		<path class="st2" d="M98.1,20.7c-0.1,0-0.3,0.1-0.4,0.1C97.9,20.8,98.1,20.7,98.1,20.7z"/>
	</g>
	<g>
		<path class="st2" d="M94.6,21.5c-0.1,0-0.2,0.1-0.2,0.1C94.4,21.5,94.6,21.5,94.6,21.5z"/>
	</g>
	<g>
		<path class="st2" d="M92.2,22.3C92.2,22.3,92.3,22.3,92.2,22.3C92.3,22.3,92.2,22.3,92.2,22.3L92.2,22.3z"/>
	</g>
	<g>
		<path class="st2" d="M96.9,20.8c-0.1,0-0.3,0.1-0.4,0.1C96.7,21,96.8,21,96.9,20.8z"/>
	</g>
	<g>
		<path class="st2" d="M101.4,20.5c0.2,0,0.5,0,0.7,0c0,0,0,0-0.1,0C101.9,20.3,101.6,20.3,101.4,20.5z"/>
	</g>
	<g>
		<path class="st2" d="M97.4,0.8c0.4,0,0.7-0.1,1.1-0.1C98.2,0.7,97.9,0.7,97.4,0.8z"/>
	</g>
	<g>
		<path class="st2" d="M88.7,2.5c0.3-0.1,0.6-0.2,0.9-0.2C89.2,2.2,88.9,2.3,88.7,2.5z"/>
	</g>
	<g>
		<path class="st2" d="M95.8,21.2c-0.1,0-0.2,0.1-0.3,0.1C95.6,21.2,95.7,21.2,95.8,21.2z"/>
	</g>
	<g>
		<path class="st2" d="M57.7,37.8c0-0.3,0.1-0.5,0.1-0.8C57.8,37.2,57.7,37.6,57.7,37.8z"/>
	</g>
	<g>
		<path class="st2" d="M92.9,1.3c0.3-0.1,0.7-0.1,1-0.2C93.7,1.2,93.3,1.2,92.9,1.3z"/>
	</g>
	<g>
		<path class="st2" d="M57.2,42.3c0-0.2,0-0.5,0.1-0.7C57.2,41.8,57.2,42.1,57.2,42.3z"/>
	</g>
	<g>
		<path class="st2" d="M57.3,40.1c0-0.3,0.1-0.5,0.1-0.8C57.4,39.6,57.3,39.8,57.3,40.1z"/>
	</g>
	<g>
		<path class="st2" d="M99.8,0.5c0.4,0,0.8,0,1.1,0C100.6,0.5,100.1,0.5,99.8,0.5z"/>
	</g>
	<g>
		<path class="st2" d="M78.8,43.4c0,0.4,0,0.8,0,1.2C78.8,44.2,78.8,43.8,78.8,43.4z"/>
	</g>
	<g>
		<path class="st2" d="M99.4,20.5c-0.2,0-0.3,0-0.5,0.1C99.1,20.5,99.2,20.5,99.4,20.5z"/>
	</g>
	<g>
		<path class="st2" d="M58.1,35.6c0.1-0.2,0.1-0.5,0.2-0.7C58.2,35.1,58.1,35.3,58.1,35.6z"/>
	</g>
	<g>
		<path class="st2" d="M58.6,33.4c0.1-0.2,0.1-0.5,0.2-0.7C58.7,32.9,58.6,33.2,58.6,33.4z"/>
	</g>
	<g>
		<path class="st2" d="M59.2,31.3c0.1-0.2,0.2-0.5,0.3-0.7C59.2,30.8,59.2,31,59.2,31.3z"/>
	</g>
	<g>
		<path class="st2" d="M79.2,39.8c0,0.1,0,0.3-0.1,0.4C79.2,40.2,79.2,40.1,79.2,39.8z"/>
	</g>
	<g>
		<path class="st2" d="M79.4,38.8L79.4,38.8L79.4,38.8z"/>
	</g>
	<g>
		<path class="st2" d="M100.8,20.5c-0.2,0-0.4,0-0.6,0C100.4,20.5,100.6,20.5,100.8,20.5z"/>
	</g>
	<g>
		<path class="st2" d="M78.8,42.2c0,0.4-0.1,0.7-0.1,1.1C78.8,42.9,78.8,42.6,78.8,42.2z"/>
	</g>
	<g>
		<path class="st2" d="M95.2,1c0.3-0.1,0.7-0.1,1.1-0.1C95.9,0.8,95.6,1,95.2,1z"/>
	</g>
	<g>
		<path class="st2" d="M59.8,29.2c0.1-0.2,0.2-0.5,0.3-0.7C60.1,28.8,59.9,29,59.8,29.2z"/>
	</g>
	<g>
		<path class="st2" d="M79.1,41.1c0,0.2,0,0.4-0.1,0.6C78.9,41.4,78.9,41.2,79.1,41.1z"/>
	</g>
	<g>
		<path class="st2" d="M80.6,5.8c0.2-0.1,0.5-0.2,0.7-0.4C81.1,5.5,80.8,5.5,80.6,5.8z"/>
	</g>
	<g>
		<path class="st2" d="M68.8,14.8c0.2-0.2,0.3-0.3,0.5-0.5C69.1,14.5,68.9,14.5,68.8,14.8z"/>
	</g>
	<g>
		<path class="st2" d="M67.3,16.3c0.1-0.2,0.3-0.3,0.5-0.5C67.7,16,67.4,16.2,67.3,16.3z"/>
	</g>
	<g>
		<path class="st2" d="M92.2,22.3L92.2,22.3L92.2,22.3L92.2,22.3z"/>
	</g>
	<g>
		<path class="st2" d="M71.8,11.8c0.2-0.2,0.4-0.3,0.5-0.4C72.2,11.5,71.9,11.7,71.8,11.8z"/>
	</g>
	<g>
		<path class="st2" d="M73.4,10.3c0.2-0.1,0.4-0.3,0.6-0.4C73.8,10.2,73.7,10.2,73.4,10.3z"/>
	</g>
	<g>
		<path class="st2" d="M64.8,19.8c0.1-0.2,0.3-0.4,0.4-0.5C65.1,19.3,64.8,19.5,64.8,19.8z"/>
	</g>
	<g>
		<path class="st2" d="M70.2,13.2c0.2-0.2,0.4-0.3,0.5-0.5C70.6,12.8,70.4,13,70.2,13.2z"/>
	</g>
	<g>
		<path class="st2" d="M66.1,18c0.1-0.2,0.3-0.4,0.4-0.5C66.3,17.7,66.2,17.8,66.1,18z"/>
	</g>
	<g>
		<path class="st2" d="M84.6,3.8c0.3-0.1,0.5-0.2,0.8-0.3C85.1,3.7,84.8,3.8,84.6,3.8z"/>
	</g>
	<g>
		<path class="st2" d="M86.6,3c0.3-0.1,0.6-0.2,0.9-0.3C87.2,3,86.8,3,86.6,3z"/>
	</g>
	<g>
		<path class="st2" d="M82.6,4.8c0.3-0.1,0.5-0.2,0.8-0.3C83.1,4.5,82.8,4.7,82.6,4.8z"/>
	</g>
	<g>
		<path class="st2" d="M63.7,21.5c0.1-0.2,0.3-0.4,0.4-0.6C63.8,21.2,63.8,21.3,63.7,21.5z"/>
	</g>
	<g>
		<path class="st2" d="M78.8,6.8c0.2-0.1,0.5-0.2,0.7-0.4C79.2,6.5,78.9,6.7,78.8,6.8z"/>
	</g>
	<g>
		<path class="st2" d="M75.2,9c0.2-0.1,0.4-0.3,0.6-0.4C75.6,8.8,75.3,9,75.2,9z"/>
	</g>
	<g>
		<path class="st2" d="M76.8,7.8c0.2-0.1,0.4-0.3,0.6-0.4C77.3,7.7,77.1,7.8,76.8,7.8z"/>
	</g>
</g>
<g>
	<path class="st1" d="M101.9,71.1c-11.3,0-19.2-7-22.1-16.3l-22.1-0.1c3.7,20.8,21.9,36.2,44.1,36.3c22.3,0.1,40.5-15.3,44.3-36.1
		l-22.1-0.1C121.2,64.2,113.4,71.2,101.9,71.1z"/>
</g>
</svg>
