<?xml version="1.0" encoding="utf-8"?>
<!-- Generator: Adobe Illustrator 22.1.0, SVG Export Plug-In . SVG Version: 6.00 Build 0)  -->
<svg version="1.1" id="Layer_1" xmlns="http://www.w3.org/2000/svg" xmlns:xlink="http://www.w3.org/1999/xlink" x="0px" y="0px"
	 viewBox="0 0 388.3 91.4" style="enable-background:new 0 0 388.3 91.4;" xml:space="preserve">
<style type="text/css">
	.st0{fill:#4D4D4D;}
	.st1{fill:#808080;}
</style>
<g>
	<path class="st0" d="M347.3,90.3c16.5,0,28.3-7.9,32.3-10.9c0.8-0.6,1-1.8,0.4-2.7l-8.4-12.6c-0.6-1-2-1.2-2.9-0.5
		c-3.1,2.4-10.5,7.1-21.5,7.1c-13.1,0-21.7-9.2-23.5-16.6h-21.1C306.5,74.9,324.6,90.3,347.3,90.3z"/>
</g>
<g>
	<path class="st0" d="M246.1,58.2c0,17.9,12.4,29.9,28.8,29.9c9,0,15.7-3,18.7-4.6c0.9-0.5,1.3-1.6,0.9-2.6l-6.2-13.7
		c-0.5-1-1.7-1.5-2.7-1c-1.6,0.9-4.2,1.9-7.1,1.9c-5.7,0-11-3-11-13.3v-0.7h-21.3L246.1,58.2L246.1,58.2z"/>
</g>
<g>
	<path class="st0" d="M191.6,68.1c-8.2-0.3-14.9-6.2-16.6-14h-20.6c1.9,18.8,17.4,33.6,36.5,34.4l0,0c0.3,0,0.5,0,0.8,0s0.5,0,0.8,0
		l0,0c19.1-0.7,34.6-15.6,36.5-34.4h-20.7C206.5,61.9,199.8,67.8,191.6,68.1z"/>
</g>
<g>
	<path class="st0" d="M0.5,54.1v31.3c0,1.1,0.9,2,2,2h18.9c1.1,0,2-0.9,2-2V54.1H0.5z"/>
</g>
<g>
	<g>
		<path class="st1" d="M233.8,0.2C220.1,0.2,209,11.3,209,25v24.4v0.3h20.3l0,0l0.1-23.4c0-3.1,1.9-5.6,5.7-5.7h10.8
			c0.1,0,0.2,0.1,0.2,0.2v28.6c0,0.1,0.1,0.2,0.2,0.2h20.9c0.1,0,0.2-0.1,0.2-0.2V20.9c0-0.1,0.1-0.2,0.2-0.2h40.1
			c0.2,0,0.2,0.2,0.2,0.3c-3.8,6.7-6,14.6-6,23.1c0,1.8,0.1,3.7,0.3,5.4c0,0.1,0.1,0.2,0.2,0.2h82c1.2,0,2.2-1,2.2-2.2
			c0-1.6,0-2.9,0-3.8c0-25.9-19.4-43.9-42.5-43.9c0,0,0,0-0.1,0l0.3-0.1l-109,0.5H233.8z M344.3,19.2c13.9,0,20.7,9.6,21.1,16.8
			c0,0.1-0.1,0.2-0.2,0.2h-41.3c-0.1,0-0.2-0.1-0.2-0.2C324.5,28.6,330.7,19.2,344.3,19.2z"/>
	</g>
</g>
<g>
	<path class="st1" d="M174.6,49.4V1.7c0-1.1-0.9-2-2-2h-16.4c-1.1,0-2,0.9-2,2v48h20.4C174.6,49.6,174.6,49.5,174.6,49.4z"/>
</g>
<g>
	<g>
		<path class="st1" d="M78.9,42.8L78.9,42.8L78.9,42.8z"/>
	</g>
	<g>
		<path class="st1" d="M79,41.1c0,0.2,0,0.4-0.1,0.6C79,41.5,79,41.3,79,41.1z"/>
	</g>
	<g>
		<path class="st1" d="M57.1,44.1c0-0.8,0-1.5,0.1-2.3C57.2,42.5,57.1,43.3,57.1,44.1z"/>
	</g>
	<g>
		<path class="st1" d="M79.5,38.2c-0.1,0.4-0.2,0.7-0.2,1.1C79.3,38.9,79.4,38.6,79.5,38.2z"/>
	</g>
	<g>
		<path class="st1" d="M79.7,37.1c-0.1,0.3-0.2,0.7-0.3,1C79.6,37.8,79.6,37.5,79.7,37.1z"/>
	</g>
	<g>
		<path class="st1" d="M57.3,41c0-0.5,0.1-1,0.1-1.6C57.3,40,57.3,40.5,57.3,41z"/>
	</g>
	<g>
		<path class="st1" d="M79.2,39.7c0,0.2-0.1,0.5-0.1,0.7C79.1,40.2,79.1,40,79.2,39.7z"/>
	</g>
	<g>
		<path class="st1" d="M61,26c0.2-0.4,0.4-0.9,0.6-1.3C61.4,25.1,61.2,25.6,61,26z"/>
	</g>
	<g>
		<path class="st1" d="M60.2,28c0.2-0.4,0.3-0.9,0.5-1.3C60.5,27.1,60.3,27.6,60.2,28z"/>
	</g>
	<g>
		<path class="st1" d="M61.9,24.1c0.2-0.4,0.4-0.8,0.7-1.3C62.3,23.2,62.1,23.7,61.9,24.1z"/>
	</g>
	<g>
		<path class="st1" d="M59.4,30c0.1-0.4,0.3-0.9,0.5-1.3C59.7,29.1,59.6,29.6,59.4,30z"/>
	</g>
	<g>
		<path class="st1" d="M57.8,36.4c0.1-0.5,0.2-0.9,0.2-1.4C58,35.5,57.9,36,57.8,36.4z"/>
	</g>
	<g>
		<path class="st1" d="M58.2,34.3c0.1-0.5,0.2-1,0.3-1.4C58.5,33.3,58.3,33.8,58.2,34.3z"/>
	</g>
	<g>
		<path class="st1" d="M58.8,32.2c0.1-0.5,0.3-0.9,0.4-1.4C59,31.2,58.9,31.7,58.8,32.2z"/>
	</g>
	<g>
		<path class="st1" d="M90.3,22.9c-0.3,0.2-0.6,0.4-0.9,0.6C89.7,23.2,90,23,90.3,22.9z"/>
	</g>
	<g>
		<path class="st1" d="M98.6,0.1C99,0.1,99.4,0,99.8,0C99.4,0,99,0,98.6,0.1z"/>
	</g>
	<g>
		<path class="st1" d="M101.5,19.9c-0.2,0-0.5,0-0.7,0C101,19.9,101.2,19.9,101.5,19.9z"/>
	</g>
	<g>
		<path class="st1" d="M102.1-0.1c-0.4,0-0.8,0-1.1,0c0.4,0,0.8,0,1.3,0C102.2-0.1,102.1-0.1,102.1-0.1z"/>
	</g>
	<g>
		<path class="st1" d="M96.3,0.3c0.4,0,0.8-0.1,1.2-0.1C97.1,0.2,96.7,0.3,96.3,0.3z"/>
	</g>
	<g>
		<path class="st1" d="M89.6,1.6c0.4-0.1,0.8-0.2,1.2-0.3C90.4,1.4,90,1.5,89.6,1.6z"/>
	</g>
	<g>
		<path class="st1" d="M91.8,1.1C92.2,1,92.6,0.9,93,0.8C92.6,0.9,92.2,1,91.8,1.1z"/>
	</g>
	<g>
		<path class="st1" d="M94,0.6c0.4-0.1,0.8-0.1,1.2-0.2C94.9,0.5,94.4,0.6,94,0.6z"/>
	</g>
	<g>
		<path class="st1" d="M99,20c-0.2,0-0.5,0.1-0.7,0.1C98.5,20.1,98.7,20.1,99,20z"/>
	</g>
	<g>
		<path class="st1" d="M95.5,20.7c-0.3,0.1-0.6,0.2-0.9,0.2C94.9,20.9,95.2,20.8,95.5,20.7z"/>
	</g>
	<g>
		<path class="st1" d="M94.4,21c-0.3,0.1-0.6,0.2-0.9,0.3C93.8,21.2,94.1,21.1,94.4,21z"/>
	</g>
	<g>
		<path class="st1" d="M93.3,21.4c-0.3,0.1-0.6,0.2-0.9,0.4C92.7,21.7,93,21.5,93.3,21.4z"/>
	</g>
	<g>
		<path class="st1" d="M97.8,20.2c-0.3,0-0.5,0.1-0.8,0.1C97.3,20.3,97.5,20.2,97.8,20.2z"/>
	</g>
	<g>
		<path class="st1" d="M91.3,22.3c-0.3,0.2-0.6,0.3-0.9,0.5C90.7,22.7,91,22.5,91.3,22.3z"/>
	</g>
	<g>
		<path class="st1" d="M96.6,20.4c-0.3,0.1-0.6,0.1-0.8,0.2C96.1,20.5,96.3,20.5,96.6,20.4z"/>
	</g>
	<g>
		<path class="st1" d="M100.2,19.9c-0.2,0-0.5,0-0.7,0.1C99.7,19.9,100,19.9,100.2,19.9z"/>
	</g>
	<g>
		<path class="st1" d="M57.5,38.7c0.1-0.5,0.1-1,0.2-1.4C57.6,37.7,57.5,38.2,57.5,38.7z"/>
	</g>
	<g>
		<path class="st1" d="M79.8,37c1.5-5.7,4.8-10.5,9.6-13.6C84.6,26.5,81.3,31.4,79.8,37z"/>
	</g>
	<g>
		<path class="st1" d="M63,22.1L63,22.1C63,22.2,63,22.1,63,22.1L63,22.1z"/>
	</g>
	<g>
		<path class="st1" d="M88.7,1.9C88.5,2,88.3,2,88.1,2.1l0,0C88.3,2,88.5,1.9,88.7,1.9z"/>
	</g>
	<g>
		<path class="st1" d="M91.4,22.3c0.1-0.1,0.3-0.1,0.4-0.2l0,0C91.7,22.1,91.5,22.2,91.4,22.3z"/>
	</g>
	<g>
		<path class="st1" d="M79.4,5.8c0.4-0.2,0.8-0.5,1.2-0.7C80.2,5.4,79.8,5.6,79.4,5.8z"/>
	</g>
	<g>
		<path class="st1" d="M81.4,4.8c0.4-0.2,0.8-0.4,1.2-0.6C82.2,4.4,81.8,4.6,81.4,4.8z"/>
	</g>
	<g>
		<path class="st1" d="M77.6,6.9c0.4-0.2,0.8-0.5,1.2-0.7C78.4,6.4,78,6.7,77.6,6.9z"/>
	</g>
	<g>
		<path class="st1" d="M75.8,8.1c0.4-0.3,0.8-0.5,1.2-0.8C76.5,7.6,76.2,7.9,75.8,8.1z"/>
	</g>
	<g>
		<path class="st1" d="M88.1,2.1L88.1,2.1c-0.2,0.1-0.4,0.1-0.6,0.2C87.7,2.2,87.9,2.1,88.1,2.1z"/>
	</g>
	<g>
		<path class="st1" d="M85.4,3c0.4-0.2,0.8-0.3,1.2-0.5C86.2,2.7,85.8,2.9,85.4,3z"/>
	</g>
	<g>
		<path class="st1" d="M91.8,22.1L91.8,22.1c0.2-0.1,0.3-0.2,0.5-0.2C92.1,21.9,92,22,91.8,22.1z"/>
	</g>
	<g>
		<path class="st1" d="M63.7,21c-0.2,0.4-0.4,0.7-0.6,1.1l0,0C63.2,21.7,63.4,21.3,63.7,21z"/>
	</g>
	<g>
		<path class="st1" d="M83.4,3.8c0.4-0.2,0.8-0.4,1.2-0.5C84.2,3.5,83.8,3.7,83.4,3.8z"/>
	</g>
	<g>
		<path class="st1" d="M69.5,2.1H51.3C40.4,2.1,31,4.6,23.4,9.2V2.7c0-1.1-0.9-2-2-2L2.5,0.6c-1.1,0-2,0.9-2,2v47.1h20.9l0,0h1.9
			c0.8-18.9,9.5-27.6,28-27.6h4.8c0.7,0,1.4-0.4,1.8-1.1c3.2-6,7.5-11.2,12.8-15.4C72.2,4.5,71.4,2.1,69.5,2.1z"/>
	</g>
	<g>
		<path class="st1" d="M74,9.4c0.4-0.3,0.8-0.6,1.1-0.9C74.8,8.8,74.4,9.1,74,9.4z"/>
	</g>
	<g>
		<path class="st1" d="M70.8,12.2c0.3-0.3,0.7-0.6,1-1C71.5,11.5,71.2,11.9,70.8,12.2z"/>
	</g>
	<g>
		<path class="st1" d="M67.9,15.3c0.3-0.4,0.6-0.7,1-1.1C68.5,14.5,68.2,14.9,67.9,15.3z"/>
	</g>
	<g>
		<path class="st1" d="M65.2,18.6c0.3-0.4,0.6-0.8,0.9-1.2C65.8,17.8,65.5,18.2,65.2,18.6z"/>
	</g>
	<g>
		<path class="st1" d="M69.3,13.7c0.3-0.3,0.7-0.7,1-1C69.9,13,69.6,13.4,69.3,13.7z"/>
	</g>
	<g>
		<path class="st1" d="M66.5,16.9c0.3-0.4,0.6-0.8,0.9-1.1C67.1,16.1,66.8,16.5,66.5,16.9z"/>
	</g>
	<g>
		<path class="st1" d="M64,20.4c0.3-0.4,0.5-0.8,0.8-1.2C64.5,19.6,64.3,20,64,20.4z"/>
	</g>
	<g>
		<path class="st1" d="M72.4,10.8c0.4-0.3,0.7-0.6,1.1-0.9C73.1,10.1,72.7,10.5,72.4,10.8z"/>
	</g>
	<g>
		<path class="st1" d="M91.8,22.1h0.5v-0.2l0,0C92.1,21.9,92,22,91.8,22.1z"/>
	</g>
	<g>
		<path class="st1" d="M102.2-0.1c-0.4,0-0.8,0-1.3,0c-0.4,0-0.8,0-1.1,0C99.4-0.1,99,0,98.6,0s-0.7,0-1.1,0.1
			c-0.4,0-0.8,0.1-1.2,0.1s-0.7,0.1-1.1,0.1c-0.4,0.1-0.8,0.1-1.2,0.2c-0.3,0.1-0.7,0.1-1,0.2c-0.4,0.1-0.8,0.2-1.2,0.3
			c-0.3,0.1-0.6,0.1-1,0.2c-0.4,0.1-0.8,0.2-1.2,0.3c-0.3,0.1-0.6,0.2-0.9,0.2c-0.2,0.1-0.4,0.1-0.6,0.2C87.9,2,87.7,2,87.5,2.1
			c-0.3,0.1-0.6,0.2-0.9,0.3c-0.4,0.1-0.8,0.3-1.2,0.5c-0.3,0.1-0.6,0.2-0.8,0.3c-0.4,0.2-0.8,0.3-1.2,0.5c-0.3,0.1-0.5,0.2-0.8,0.3
			c-0.4,0.2-0.8,0.4-1.2,0.6c-0.2,0.1-0.5,0.2-0.7,0.4c-0.4,0.2-0.8,0.4-1.2,0.7c-0.2,0.1-0.5,0.2-0.7,0.4c-0.4,0.2-0.8,0.5-1.2,0.7
			c-0.2,0.1-0.4,0.3-0.6,0.4c-0.4,0.3-0.8,0.5-1.2,0.8c-0.2,0.1-0.4,0.3-0.6,0.4c-0.4,0.3-0.8,0.6-1.1,0.9c-0.2,0.1-0.4,0.3-0.6,0.4
			c-0.4,0.3-0.7,0.6-1.1,0.9c-0.2,0.2-0.4,0.3-0.5,0.4c-0.4,0.3-0.7,0.6-1,1c-0.2,0.2-0.4,0.3-0.5,0.5c-0.3,0.3-0.7,0.7-1,1
			c-0.2,0.2-0.3,0.3-0.5,0.5c-0.3,0.4-0.6,0.7-1,1.1c-0.2,0.2-0.3,0.3-0.5,0.5c-0.3,0.4-0.6,0.7-0.9,1.1c-0.1,0.2-0.3,0.4-0.4,0.5
			c-0.3,0.4-0.6,0.8-0.9,1.2c-0.1,0.2-0.3,0.4-0.4,0.5c-0.3,0.4-0.5,0.8-0.8,1.2c-0.1,0.2-0.3,0.4-0.4,0.6c-0.2,0.4-0.4,0.7-0.6,1.1
			l-0.1,0.1c-0.1,0.2-0.2,0.4-0.4,0.6c-0.2,0.4-0.4,0.8-0.7,1.3c-0.1,0.2-0.2,0.4-0.3,0.6c-0.2,0.4-0.4,0.9-0.6,1.3
			c-0.1,0.2-0.2,0.4-0.3,0.7c-0.2,0.4-0.3,0.9-0.5,1.3c-0.1,0.2-0.2,0.5-0.3,0.7c-0.2,0.4-0.3,0.9-0.5,1.3c-0.1,0.2-0.2,0.5-0.3,0.7
			c-0.1,0.5-0.3,0.9-0.4,1.4c-0.1,0.2-0.1,0.5-0.2,0.7c-0.1,0.5-0.2,0.9-0.3,1.4c-0.1,0.2-0.1,0.5-0.2,0.7c-0.1,0.5-0.2,0.9-0.2,1.4
			c0,0.3-0.1,0.5-0.1,0.8c-0.1,0.5-0.1,1-0.2,1.4c0,0.3-0.1,0.5-0.1,0.8c-0.1,0.5-0.1,1-0.1,1.6c0,0.2,0,0.5-0.1,0.7
			c0,0.8-0.1,1.5-0.1,2.3c0,1.9,0.1,3.8,0.4,5.6h21.9c-0.4-1.8-0.6-3.7-0.6-5.6c0-0.4,0-0.8,0-1.2v-0.1c0-0.4,0-0.7,0.1-1.1
			c0-0.2,0-0.4,0.1-0.6c0-0.2,0-0.4,0.1-0.6c0-0.3,0.1-0.5,0.1-0.7c0-0.1,0-0.3,0.1-0.4c0.1-0.4,0.1-0.7,0.2-1.1c0,0,0,0,0-0.1
			c0.1-0.3,0.2-0.7,0.3-1v-0.1c1.5-5.7,4.8-10.5,9.6-13.6l0,0c0.3-0.2,0.6-0.4,0.9-0.6l0,0c0.3-0.2,0.6-0.3,0.9-0.5c0,0,0,0,0.1,0
			c0.1-0.1,0.3-0.1,0.4-0.2c0.2-0.1,0.3-0.2,0.5-0.2l0,0c0,0,0.1,0,0.1-0.1c0.3-0.1,0.6-0.3,0.9-0.4c0.1,0,0.1-0.1,0.2-0.1
			c0.3-0.1,0.6-0.2,0.9-0.3c0.1,0,0.2-0.1,0.2-0.1c0.3-0.1,0.6-0.2,0.9-0.2c0.1,0,0.2-0.1,0.3-0.1c0.3-0.1,0.5-0.1,0.8-0.2
			c0.1,0,0.3-0.1,0.4-0.1c0.3-0.1,0.5-0.1,0.8-0.1c0.1,0,0.3-0.1,0.4-0.1c0.2,0,0.5-0.1,0.7-0.1s0.3,0,0.5-0.1c0.2,0,0.5,0,0.7-0.1
			c0.2,0,0.4,0,0.6,0c0.2,0,0.5,0,0.7,0s0.4,0,0.6,0c0,0,0,0,0.1,0c14.4,0,23.3,11.3,23.2,24.4c0,1.9-0.2,3.7-0.6,5.5h21.9
			c0.2-1.8,0.4-3.6,0.4-5.4C147.1,19.4,127.3,0,102.2-0.1z"/>
	</g>
	<g>
		<path class="st1" d="M91.4,22.3C91.3,22.3,91.3,22.3,91.4,22.3C91.3,22.3,91.3,22.3,91.4,22.3z"/>
	</g>
	<g>
		<path class="st1" d="M93.5,21.3c-0.1,0-0.1,0-0.2,0.1C93.4,21.4,93.4,21.4,93.5,21.3z"/>
	</g>
	<g>
		<path class="st1" d="M62.6,22.8c0.1-0.2,0.2-0.4,0.4-0.6C62.8,22.4,62.7,22.6,62.6,22.8z"/>
	</g>
	<g>
		<path class="st1" d="M61.6,24.7c0.1-0.2,0.2-0.4,0.3-0.6C61.8,24.3,61.7,24.5,61.6,24.7z"/>
	</g>
	<g>
		<path class="st1" d="M60.7,26.7c0.1-0.2,0.2-0.4,0.3-0.7C60.9,26.2,60.8,26.5,60.7,26.7z"/>
	</g>
	<g>
		<path class="st1" d="M89.4,23.4L89.4,23.4L89.4,23.4z"/>
	</g>
	<g>
		<path class="st1" d="M90.3,22.8L90.3,22.8L90.3,22.8z"/>
	</g>
	<g>
		<path class="st1" d="M90.9,1.3c0.3-0.1,0.6-0.1,1-0.2C91.5,1.1,91.2,1.2,90.9,1.3z"/>
	</g>
	<g>
		<path class="st1" d="M79.8,37L79.8,37C79.7,37.1,79.7,37,79.8,37z"/>
	</g>
	<g>
		<path class="st1" d="M98.2,20.1c-0.1,0-0.3,0.1-0.4,0.1C97.9,20.2,98.1,20.1,98.2,20.1z"/>
	</g>
	<g>
		<path class="st1" d="M94.6,21c-0.1,0-0.2,0.1-0.2,0.1C94.5,21,94.6,21,94.6,21z"/>
	</g>
	<g>
		<path class="st1" d="M92.3,21.8C92.3,21.8,92.4,21.8,92.3,21.8C92.4,21.8,92.3,21.8,92.3,21.8L92.3,21.8z"/>
	</g>
	<g>
		<path class="st1" d="M97,20.3c-0.1,0-0.3,0.1-0.4,0.1C96.7,20.4,96.9,20.4,97,20.3z"/>
	</g>
	<g>
		<path class="st1" d="M101.5,19.9c0.2,0,0.5,0,0.7,0c0,0,0,0-0.1,0C101.9,19.8,101.7,19.8,101.5,19.9z"/>
	</g>
	<g>
		<path class="st1" d="M97.5,0.2c0.4,0,0.7-0.1,1.1-0.1C98.3,0.1,97.9,0.1,97.5,0.2z"/>
	</g>
	<g>
		<path class="st1" d="M88.7,1.9c0.3-0.1,0.6-0.2,0.9-0.2C89.3,1.7,89,1.8,88.7,1.9z"/>
	</g>
	<g>
		<path class="st1" d="M95.8,20.6c-0.1,0-0.2,0.1-0.3,0.1C95.6,20.7,95.7,20.6,95.8,20.6z"/>
	</g>
	<g>
		<path class="st1" d="M57.7,37.2c0-0.3,0.1-0.5,0.1-0.8C57.8,36.7,57.7,37,57.7,37.2z"/>
	</g>
	<g>
		<path class="st1" d="M93,0.8c0.3-0.1,0.7-0.1,1-0.2C93.7,0.7,93.4,0.7,93,0.8z"/>
	</g>
	<g>
		<path class="st1" d="M57.2,41.8c0-0.2,0-0.5,0.1-0.7C57.3,41.3,57.2,41.5,57.2,41.8z"/>
	</g>
	<g>
		<path class="st1" d="M57.4,39.5c0-0.3,0.1-0.5,0.1-0.8C57.5,39,57.4,39.2,57.4,39.5z"/>
	</g>
	<g>
		<path class="st1" d="M99.8,0c0.4,0,0.8,0,1.1,0C100.6,0,100.2,0,99.8,0z"/>
	</g>
	<g>
		<path class="st1" d="M78.9,42.9c0,0.4,0,0.8,0,1.2C78.8,43.7,78.8,43.3,78.9,42.9z"/>
	</g>
	<g>
		<path class="st1" d="M99.5,20c-0.2,0-0.3,0-0.5,0.1C99.1,20,99.3,20,99.5,20z"/>
	</g>
	<g>
		<path class="st1" d="M58.1,35c0.1-0.2,0.1-0.5,0.2-0.7C58.2,34.5,58.1,34.8,58.1,35z"/>
	</g>
	<g>
		<path class="st1" d="M58.6,32.9c0.1-0.2,0.1-0.5,0.2-0.7C58.7,32.4,58.6,32.6,58.6,32.9z"/>
	</g>
	<g>
		<path class="st1" d="M59.2,30.8c0.1-0.2,0.2-0.5,0.3-0.7C59.3,30.3,59.3,30.5,59.2,30.8z"/>
	</g>
	<g>
		<path class="st1" d="M79.2,39.3c0,0.1,0,0.3-0.1,0.4C79.2,39.6,79.2,39.5,79.2,39.3z"/>
	</g>
	<g>
		<path class="st1" d="M79.5,38.2L79.5,38.2L79.5,38.2z"/>
	</g>
	<g>
		<path class="st1" d="M100.8,19.9c-0.2,0-0.4,0-0.6,0C100.4,19.9,100.6,19.9,100.8,19.9z"/>
	</g>
	<g>
		<path class="st1" d="M78.9,41.7c0,0.4-0.1,0.7-0.1,1.1C78.9,42.4,78.9,42,78.9,41.7z"/>
	</g>
	<g>
		<path class="st1" d="M95.3,0.4c0.3-0.1,0.7-0.1,1.1-0.1C96,0.3,95.6,0.4,95.3,0.4z"/>
	</g>
	<g>
		<path class="st1" d="M59.9,28.7c0.1-0.2,0.2-0.5,0.3-0.7C60.1,28.2,60,28.5,59.9,28.7z"/>
	</g>
	<g>
		<path class="st1" d="M79.1,40.5c0,0.2,0,0.4-0.1,0.6C79,40.9,79,40.7,79.1,40.5z"/>
	</g>
	<g>
		<path class="st1" d="M80.6,5.2c0.2-0.1,0.5-0.2,0.7-0.4C81.1,4.9,80.9,5,80.6,5.2z"/>
	</g>
	<g>
		<path class="st1" d="M68.8,14.2c0.2-0.2,0.3-0.3,0.5-0.5C69.1,13.9,69,14,68.8,14.2z"/>
	</g>
	<g>
		<path class="st1" d="M67.4,15.8c0.1-0.2,0.3-0.3,0.5-0.5C67.7,15.4,67.5,15.6,67.4,15.8z"/>
	</g>
	<g>
		<path class="st1" d="M92.3,21.8L92.3,21.8L92.3,21.8L92.3,21.8z"/>
	</g>
	<g>
		<path class="st1" d="M71.9,11.2c0.2-0.2,0.4-0.3,0.5-0.4C72.2,10.9,72,11.1,71.9,11.2z"/>
	</g>
	<g>
		<path class="st1" d="M73.5,9.8c0.2-0.1,0.4-0.3,0.6-0.4C73.9,9.6,73.7,9.7,73.5,9.8z"/>
	</g>
	<g>
		<path class="st1" d="M64.8,19.2c0.1-0.2,0.3-0.4,0.4-0.5C65.1,18.8,64.9,19,64.8,19.2z"/>
	</g>
	<g>
		<path class="st1" d="M70.3,12.7c0.2-0.2,0.4-0.3,0.5-0.5C70.6,12.3,70.5,12.5,70.3,12.7z"/>
	</g>
	<g>
		<path class="st1" d="M66.1,17.4c0.1-0.2,0.3-0.4,0.4-0.5C66.4,17.1,66.2,17.3,66.1,17.4z"/>
	</g>
	<g>
		<path class="st1" d="M84.6,3.3c0.3-0.1,0.5-0.2,0.8-0.3C85.1,3.1,84.8,3.2,84.6,3.3z"/>
	</g>
	<g>
		<path class="st1" d="M86.6,2.5c0.3-0.1,0.6-0.2,0.9-0.3C87.2,2.4,86.9,2.4,86.6,2.5z"/>
	</g>
	<g>
		<path class="st1" d="M82.6,4.2c0.3-0.1,0.5-0.2,0.8-0.3C83.1,4,82.8,4.1,82.6,4.2z"/>
	</g>
	<g>
		<path class="st1" d="M63.7,21c0.1-0.2,0.3-0.4,0.4-0.6C63.9,20.6,63.8,20.8,63.7,21z"/>
	</g>
	<g>
		<path class="st1" d="M78.8,6.2C79,6.1,79.3,6,79.5,5.8C79.2,5.9,79,6.1,78.8,6.2z"/>
	</g>
	<g>
		<path class="st1" d="M75.2,8.5c0.2-0.1,0.4-0.3,0.6-0.4C75.6,8.3,75.4,8.4,75.2,8.5z"/>
	</g>
	<g>
		<path class="st1" d="M76.9,7.3c0.2-0.1,0.4-0.3,0.6-0.4C77.4,7.1,77.1,7.2,76.9,7.3z"/>
	</g>
</g>
<g>
	<path class="st0" d="M102,70.5c-11.3,0-19.2-7-22.1-16.3l-22.1-0.1c3.7,20.8,21.9,36.2,44.1,36.3c22.3,0.1,40.5-15.3,44.3-36.1
		l-22.1-0.1C121.3,63.6,113.4,70.6,102,70.5z"/>
</g>
</svg>
