<?xml version="1.0" encoding="utf-8"?>
<!-- Generator: Adobe Illustrator 22.0.1, SVG Export Plug-In . SVG Version: 6.00 Build 0)  -->
<svg version="1.1" id="Layer_1" xmlns="http://www.w3.org/2000/svg" xmlns:xlink="http://www.w3.org/1999/xlink" x="0px" y="0px"
	 viewBox="0 0 436 145.7" style="enable-background:new 0 0 436 145.7;" xml:space="preserve">
<style type="text/css">
	.st0{fill:#5E9913;}
	.st1{fill:#ABD807;}
</style>
<g>
	<path class="st0" d="M380,125.6c16.5,0,28.3-7.9,32.3-10.9c0.8-0.6,1-1.8,0.4-2.7l-8.4-12.6c-0.6-1-2-1.2-2.9-0.5
		c-3.1,2.4-10.5,7.1-21.5,7.1c-13.1,0-21.7-9.2-23.5-16.6h-21.1C339.2,110.2,357.3,125.6,380,125.6z"/>
</g>
<g>
	<path class="st0" d="M278.8,93.5c0,17.9,12.4,29.9,28.8,29.9c9,0,15.7-3,18.7-4.6c0.9-0.5,1.3-1.6,0.9-2.6l-6.2-13.7
		c-0.5-1-1.7-1.5-2.7-1c-1.6,0.9-4.2,1.9-7.1,1.9c-5.7,0-11-3-11-13.3v-0.7h-21.3V93.5z"/>
</g>
<g>
	<path class="st0" d="M224.3,103.4c-8.2-0.3-14.9-6.2-16.6-14h-20.6c1.9,18.8,17.4,33.6,36.5,34.4v0c0.3,0,0.5,0,0.8,0
		c0.3,0,0.5,0,0.8,0v0c19.1-0.7,34.6-15.6,36.5-34.4h-20.7C239.2,97.2,232.5,103.1,224.3,103.4z"/>
</g>
<g>
	<path class="st0" d="M33.2,89.4v31.3c0,1.1,0.9,2,2,2h18.9c1.1,0,2-0.9,2-2V89.4H33.2z"/>
</g>
<g>
	<g>
		<path class="st1" d="M266.5,35.5c-13.7,0-24.8,11.1-24.8,24.8v24.4l0,0.3H262l0,0l0.1-23.4c0-3.1,1.9-5.6,5.7-5.7h10.8
			c0.1,0,0.2,0.1,0.2,0.2v28.6c0,0.1,0.1,0.2,0.2,0.2h20.9c0.1,0,0.2-0.1,0.2-0.2V56.2c0-0.1,0.1-0.2,0.2-0.2h40.1
			c0.2,0,0.2,0.2,0.2,0.3c-3.8,6.7-6,14.6-6,23.1c0,1.8,0.1,3.7,0.3,5.4c0,0.1,0.1,0.2,0.2,0.2l82,0c1.2,0,2.2-1,2.2-2.2
			c0-1.6,0-2.9,0-3.8c0-25.9-19.4-43.9-42.5-43.9c0,0,0,0-0.1,0L377,35l-109,0.5H266.5z M377,54.5c13.9,0,20.7,9.6,21.1,16.8
			c0,0.1-0.1,0.2-0.2,0.2h-41.3c-0.1,0-0.2-0.1-0.2-0.2C357.2,63.9,363.4,54.5,377,54.5z"/>
	</g>
</g>
<g>
	<path class="st1" d="M207.3,84.7V37c0-1.1-0.9-2-2-2h-16.4c-1.1,0-2,0.9-2,2v48h20.4C207.3,84.9,207.3,84.8,207.3,84.7z"/>
</g>
<g>
	<g>
		<path class="st1" d="M111.6,78.1c0,0,0,0.1,0,0.1C111.6,78.2,111.6,78.1,111.6,78.1z"/>
	</g>
	<g>
		<path class="st1" d="M111.7,76.4c0,0.2,0,0.4-0.1,0.6C111.7,76.8,111.7,76.6,111.7,76.4z"/>
	</g>
	<g>
		<path class="st1" d="M89.8,79.4c0-0.8,0-1.5,0.1-2.3C89.9,77.8,89.8,78.6,89.8,79.4z"/>
	</g>
	<g>
		<path class="st1" d="M112.2,73.5c-0.1,0.4-0.2,0.7-0.2,1.1C112,74.2,112.1,73.9,112.2,73.5z"/>
	</g>
	<g>
		<path class="st1" d="M112.4,72.4c-0.1,0.3-0.2,0.7-0.3,1C112.3,73.1,112.3,72.8,112.4,72.4z"/>
	</g>
	<g>
		<path class="st1" d="M90,76.3c0-0.5,0.1-1,0.1-1.6C90,75.3,90,75.8,90,76.3z"/>
	</g>
	<g>
		<path class="st1" d="M111.9,75c0,0.2-0.1,0.5-0.1,0.7C111.8,75.5,111.8,75.3,111.9,75z"/>
	</g>
	<g>
		<path class="st1" d="M93.7,61.3c0.2-0.4,0.4-0.9,0.6-1.3C94.1,60.4,93.9,60.9,93.7,61.3z"/>
	</g>
	<g>
		<path class="st1" d="M92.9,63.3c0.2-0.4,0.3-0.9,0.5-1.3C93.2,62.4,93,62.9,92.9,63.3z"/>
	</g>
	<g>
		<path class="st1" d="M94.6,59.4c0.2-0.4,0.4-0.8,0.7-1.3C95,58.5,94.8,59,94.6,59.4z"/>
	</g>
	<g>
		<path class="st1" d="M92.1,65.3c0.1-0.4,0.3-0.9,0.5-1.3C92.4,64.4,92.3,64.9,92.1,65.3z"/>
	</g>
	<g>
		<path class="st1" d="M90.5,71.7c0.1-0.5,0.2-0.9,0.2-1.4C90.7,70.8,90.6,71.3,90.5,71.7z"/>
	</g>
	<g>
		<path class="st1" d="M90.9,69.6c0.1-0.5,0.2-1,0.3-1.4C91.2,68.6,91,69.1,90.9,69.6z"/>
	</g>
	<g>
		<path class="st1" d="M91.5,67.5c0.1-0.5,0.3-0.9,0.4-1.4C91.7,66.5,91.6,67,91.5,67.5z"/>
	</g>
	<g>
		<path class="st1" d="M123,58.2c-0.3,0.2-0.6,0.4-0.9,0.6C122.4,58.5,122.7,58.3,123,58.2z"/>
	</g>
	<g>
		<path class="st1" d="M131.3,35.4c0.4,0,0.8-0.1,1.2-0.1C132.1,35.3,131.7,35.3,131.3,35.4z"/>
	</g>
	<g>
		<path class="st1" d="M134.2,55.2c-0.2,0-0.5,0-0.7,0C133.7,55.2,133.9,55.2,134.2,55.2z"/>
	</g>
	<g>
		<path class="st1" d="M134.8,35.2c-0.4,0-0.8,0-1.1,0c0.4,0,0.8,0,1.3,0C134.9,35.2,134.8,35.2,134.8,35.2z"/>
	</g>
	<g>
		<path class="st1" d="M129,35.6c0.4,0,0.8-0.1,1.2-0.1C129.8,35.5,129.4,35.6,129,35.6z"/>
	</g>
	<g>
		<path class="st1" d="M122.3,36.9c0.4-0.1,0.8-0.2,1.2-0.3C123.1,36.7,122.7,36.8,122.3,36.9z"/>
	</g>
	<g>
		<path class="st1" d="M124.5,36.4c0.4-0.1,0.8-0.2,1.2-0.3C125.3,36.2,124.9,36.3,124.5,36.4z"/>
	</g>
	<g>
		<path class="st1" d="M126.7,35.9c0.4-0.1,0.8-0.1,1.2-0.2C127.6,35.8,127.1,35.9,126.7,35.9z"/>
	</g>
	<g>
		<path class="st1" d="M131.7,55.3c-0.2,0-0.5,0.1-0.7,0.1C131.2,55.4,131.4,55.4,131.7,55.3z"/>
	</g>
	<g>
		<path class="st1" d="M128.2,56c-0.3,0.1-0.6,0.2-0.9,0.2C127.6,56.2,127.9,56.1,128.2,56z"/>
	</g>
	<g>
		<path class="st1" d="M127.1,56.3c-0.3,0.1-0.6,0.2-0.9,0.3C126.5,56.5,126.8,56.4,127.1,56.3z"/>
	</g>
	<g>
		<path class="st1" d="M126,56.7c-0.3,0.1-0.6,0.2-0.9,0.4C125.4,57,125.7,56.8,126,56.7z"/>
	</g>
	<g>
		<path class="st1" d="M130.5,55.5c-0.3,0-0.5,0.1-0.8,0.1C130,55.6,130.2,55.5,130.5,55.5z"/>
	</g>
	<g>
		<path class="st1" d="M124,57.6c-0.3,0.2-0.6,0.3-0.9,0.5C123.4,58,123.7,57.8,124,57.6z"/>
	</g>
	<g>
		<path class="st1" d="M129.3,55.7c-0.3,0.1-0.6,0.1-0.8,0.2C128.8,55.8,129,55.8,129.3,55.7z"/>
	</g>
	<g>
		<path class="st1" d="M132.9,55.2c-0.2,0-0.5,0-0.7,0.1C132.4,55.2,132.7,55.2,132.9,55.2z"/>
	</g>
	<g>
		<path class="st1" d="M90.2,74c0.1-0.5,0.1-1,0.2-1.4C90.3,73,90.2,73.5,90.2,74z"/>
	</g>
	<g>
		<path class="st1" d="M112.5,72.3c1.5-5.7,4.8-10.5,9.6-13.6C117.3,61.8,114,66.7,112.5,72.3z"/>
	</g>
	<g>
		<path class="st1" d="M95.7,57.4c0,0-0.1,0.1-0.1,0.1C95.7,57.5,95.7,57.4,95.7,57.4L95.7,57.4z"/>
	</g>
	<g>
		<path class="st1" d="M121.4,37.2c-0.2,0.1-0.4,0.1-0.6,0.2h0C121,37.3,121.2,37.2,121.4,37.2z"/>
	</g>
	<g>
		<path class="st1" d="M124.1,57.6c0.1-0.1,0.3-0.1,0.4-0.2h0C124.4,57.4,124.2,57.5,124.1,57.6z"/>
	</g>
	<g>
		<path class="st1" d="M112.1,41.1c0.4-0.2,0.8-0.5,1.2-0.7C112.9,40.7,112.5,40.9,112.1,41.1z"/>
	</g>
	<g>
		<path class="st1" d="M114.1,40.1c0.4-0.2,0.8-0.4,1.2-0.6C114.9,39.7,114.5,39.9,114.1,40.1z"/>
	</g>
	<g>
		<path class="st1" d="M110.3,42.2c0.4-0.2,0.8-0.5,1.2-0.7C111.1,41.7,110.7,42,110.3,42.2z"/>
	</g>
	<g>
		<path class="st1" d="M108.5,43.4c0.4-0.3,0.8-0.5,1.2-0.8C109.2,42.9,108.9,43.2,108.5,43.4z"/>
	</g>
	<g>
		<path class="st1" d="M120.8,37.4L120.8,37.4c-0.2,0.1-0.4,0.1-0.6,0.2C120.4,37.5,120.6,37.4,120.8,37.4z"/>
	</g>
	<g>
		<path class="st1" d="M118.1,38.3c0.4-0.2,0.8-0.3,1.2-0.5C118.9,38,118.5,38.2,118.1,38.3z"/>
	</g>
	<g>
		<path class="st1" d="M124.5,57.4L124.5,57.4c0.2-0.1,0.3-0.2,0.5-0.2C124.8,57.2,124.7,57.3,124.5,57.4z"/>
	</g>
	<g>
		<path class="st1" d="M96.4,56.3c-0.2,0.4-0.4,0.7-0.6,1.1h0C95.9,57,96.1,56.6,96.4,56.3z"/>
	</g>
	<g>
		<path class="st1" d="M116.1,39.1c0.4-0.2,0.8-0.4,1.2-0.5C116.9,38.8,116.5,39,116.1,39.1z"/>
	</g>
	<g>
		<path class="st1" d="M102.2,37.4H84c-10.9,0-20.3,2.5-27.9,7.1V38c0-1.1-0.9-2-2-2l-18.9-0.1c-1.1,0-2,0.9-2,2V85h20.9v0l1.9,0
			c0.8-18.9,9.5-27.6,28-27.6h4.8c0.7,0,1.4-0.4,1.8-1.1c3.2-6,7.5-11.2,12.8-15.4C104.9,39.8,104.1,37.4,102.2,37.4z"/>
	</g>
	<g>
		<path class="st1" d="M106.7,44.7c0.4-0.3,0.8-0.6,1.1-0.9C107.5,44.1,107.1,44.4,106.7,44.7z"/>
	</g>
	<g>
		<path class="st1" d="M103.5,47.5c0.3-0.3,0.7-0.6,1-1C104.2,46.8,103.9,47.2,103.5,47.5z"/>
	</g>
	<g>
		<path class="st1" d="M100.6,50.6c0.3-0.4,0.6-0.7,1-1.1C101.2,49.8,100.9,50.2,100.6,50.6z"/>
	</g>
	<g>
		<path class="st1" d="M97.9,53.9c0.3-0.4,0.6-0.8,0.9-1.2C98.5,53.1,98.2,53.5,97.9,53.9z"/>
	</g>
	<g>
		<path class="st1" d="M102,49c0.3-0.3,0.7-0.7,1-1C102.6,48.3,102.3,48.7,102,49z"/>
	</g>
	<g>
		<path class="st1" d="M99.2,52.2c0.3-0.4,0.6-0.8,0.9-1.1C99.8,51.4,99.5,51.8,99.2,52.2z"/>
	</g>
	<g>
		<path class="st1" d="M96.7,55.7c0.3-0.4,0.5-0.8,0.8-1.2C97.2,54.9,97,55.3,96.7,55.7z"/>
	</g>
	<g>
		<path class="st1" d="M105.1,46.1c0.4-0.3,0.7-0.6,1.1-0.9C105.8,45.4,105.4,45.8,105.1,46.1z"/>
	</g>
	<g>
		<path class="st1" d="M124.5,57.4h0.5v-0.2c0,0,0,0,0,0C124.8,57.2,124.7,57.3,124.5,57.4z"/>
	</g>
	<g>
		<path class="st1" d="M134.9,35.2c-0.4,0-0.8,0-1.3,0c-0.4,0-0.8,0-1.1,0c-0.4,0-0.8,0.1-1.2,0.1c-0.4,0-0.7,0-1.1,0.1
			c-0.4,0-0.8,0.1-1.2,0.1c-0.4,0-0.7,0.1-1.1,0.1c-0.4,0.1-0.8,0.1-1.2,0.2c-0.3,0.1-0.7,0.1-1,0.2c-0.4,0.1-0.8,0.2-1.2,0.3
			c-0.3,0.1-0.6,0.1-1,0.2c-0.4,0.1-0.8,0.2-1.2,0.3c-0.3,0.1-0.6,0.2-0.9,0.2c-0.2,0.1-0.4,0.1-0.6,0.2c-0.2,0.1-0.4,0.1-0.6,0.2
			c-0.3,0.1-0.6,0.2-0.9,0.3c-0.4,0.1-0.8,0.3-1.2,0.5c-0.3,0.1-0.6,0.2-0.8,0.3c-0.4,0.2-0.8,0.3-1.2,0.5c-0.3,0.1-0.5,0.2-0.8,0.3
			c-0.4,0.2-0.8,0.4-1.2,0.6c-0.2,0.1-0.5,0.2-0.7,0.4c-0.4,0.2-0.8,0.4-1.2,0.7c-0.2,0.1-0.5,0.2-0.7,0.4c-0.4,0.2-0.8,0.5-1.2,0.7
			c-0.2,0.1-0.4,0.3-0.6,0.4c-0.4,0.3-0.8,0.5-1.2,0.8c-0.2,0.1-0.4,0.3-0.6,0.4c-0.4,0.3-0.8,0.6-1.1,0.9c-0.2,0.1-0.4,0.3-0.6,0.4
			c-0.4,0.3-0.7,0.6-1.1,0.9c-0.2,0.2-0.4,0.3-0.5,0.4c-0.4,0.3-0.7,0.6-1,1c-0.2,0.2-0.4,0.3-0.5,0.5c-0.3,0.3-0.7,0.7-1,1
			c-0.2,0.2-0.3,0.3-0.5,0.5c-0.3,0.4-0.6,0.7-1,1.1c-0.2,0.2-0.3,0.3-0.5,0.5c-0.3,0.4-0.6,0.7-0.9,1.1c-0.1,0.2-0.3,0.4-0.4,0.5
			c-0.3,0.4-0.6,0.8-0.9,1.2c-0.1,0.2-0.3,0.4-0.4,0.5c-0.3,0.4-0.5,0.8-0.8,1.2c-0.1,0.2-0.3,0.4-0.4,0.6c-0.2,0.4-0.4,0.7-0.6,1.1
			c0,0-0.1,0.1-0.1,0.1c-0.1,0.2-0.2,0.4-0.4,0.6c-0.2,0.4-0.4,0.8-0.7,1.3c-0.1,0.2-0.2,0.4-0.3,0.6c-0.2,0.4-0.4,0.9-0.6,1.3
			c-0.1,0.2-0.2,0.4-0.3,0.7c-0.2,0.4-0.3,0.9-0.5,1.3c-0.1,0.2-0.2,0.5-0.3,0.7c-0.2,0.4-0.3,0.9-0.5,1.3c-0.1,0.2-0.2,0.5-0.3,0.7
			c-0.1,0.5-0.3,0.9-0.4,1.4c-0.1,0.2-0.1,0.5-0.2,0.7c-0.1,0.5-0.2,0.9-0.3,1.4c-0.1,0.2-0.1,0.5-0.2,0.7c-0.1,0.5-0.2,0.9-0.2,1.4
			c0,0.3-0.1,0.5-0.1,0.8c-0.1,0.5-0.1,1-0.2,1.4c0,0.3-0.1,0.5-0.1,0.8c-0.1,0.5-0.1,1-0.1,1.6c0,0.2,0,0.5-0.1,0.7
			c0,0.8-0.1,1.5-0.1,2.3c0,1.9,0.1,3.8,0.4,5.6h21.9c-0.4-1.8-0.6-3.7-0.6-5.6c0-0.4,0-0.8,0-1.2c0,0,0-0.1,0-0.1
			c0-0.4,0-0.7,0.1-1.1c0-0.2,0-0.4,0.1-0.6c0-0.2,0-0.4,0.1-0.6c0-0.3,0.1-0.5,0.1-0.7c0-0.1,0-0.3,0.1-0.4
			c0.1-0.4,0.1-0.7,0.2-1.1c0,0,0,0,0-0.1c0.1-0.3,0.2-0.7,0.3-1c0,0,0-0.1,0-0.1c1.5-5.7,4.8-10.5,9.6-13.6c0,0,0,0,0,0
			c0.3-0.2,0.6-0.4,0.9-0.6c0,0,0,0,0,0c0.3-0.2,0.6-0.3,0.9-0.5c0,0,0,0,0.1,0c0.1-0.1,0.3-0.1,0.4-0.2c0.2-0.1,0.3-0.2,0.5-0.2
			c0,0,0,0,0,0c0,0,0.1,0,0.1-0.1c0.3-0.1,0.6-0.3,0.9-0.4c0.1,0,0.1-0.1,0.2-0.1c0.3-0.1,0.6-0.2,0.9-0.3c0.1,0,0.2-0.1,0.2-0.1
			c0.3-0.1,0.6-0.2,0.9-0.2c0.1,0,0.2-0.1,0.3-0.1c0.3-0.1,0.5-0.1,0.8-0.2c0.1,0,0.3-0.1,0.4-0.1c0.3-0.1,0.5-0.1,0.8-0.1
			c0.1,0,0.3-0.1,0.4-0.1c0.2,0,0.5-0.1,0.7-0.1c0.2,0,0.3,0,0.5-0.1c0.2,0,0.5,0,0.7-0.1c0.2,0,0.4,0,0.6,0c0.2,0,0.5,0,0.7,0
			c0.2,0,0.4,0,0.6,0c0,0,0,0,0.1,0c14.4,0,23.3,11.3,23.2,24.4c0,1.9-0.2,3.7-0.6,5.5h21.9c0.2-1.8,0.4-3.6,0.4-5.4
			C179.8,54.7,160,35.3,134.9,35.2z"/>
	</g>
	<g>
		<path class="st1" d="M124.1,57.6C124,57.6,124,57.6,124.1,57.6C124,57.6,124,57.6,124.1,57.6z"/>
	</g>
	<g>
		<path class="st1" d="M126.2,56.6c-0.1,0-0.1,0-0.2,0.1C126.1,56.7,126.1,56.7,126.2,56.6z"/>
	</g>
	<g>
		<path class="st1" d="M95.3,58.1c0.1-0.2,0.2-0.4,0.4-0.6C95.5,57.7,95.4,57.9,95.3,58.1z"/>
	</g>
	<g>
		<path class="st1" d="M94.3,60c0.1-0.2,0.2-0.4,0.3-0.6C94.5,59.6,94.4,59.8,94.3,60z"/>
	</g>
	<g>
		<path class="st1" d="M93.4,62c0.1-0.2,0.2-0.4,0.3-0.7C93.6,61.5,93.5,61.8,93.4,62z"/>
	</g>
	<g>
		<path class="st1" d="M122.1,58.7C122.1,58.7,122.1,58.7,122.1,58.7C122.1,58.7,122.1,58.7,122.1,58.7z"/>
	</g>
	<g>
		<path class="st1" d="M123,58.1C123,58.1,123,58.1,123,58.1C123,58.1,123,58.1,123,58.1z"/>
	</g>
	<g>
		<path class="st1" d="M123.6,36.6c0.3-0.1,0.6-0.1,1-0.2C124.2,36.4,123.9,36.5,123.6,36.6z"/>
	</g>
	<g>
		<path class="st1" d="M112.5,72.3c0,0,0,0.1,0,0.1C112.4,72.4,112.4,72.3,112.5,72.3z"/>
	</g>
	<g>
		<path class="st1" d="M130.9,55.4c-0.1,0-0.3,0.1-0.4,0.1C130.6,55.5,130.8,55.4,130.9,55.4z"/>
	</g>
	<g>
		<path class="st1" d="M127.3,56.3c-0.1,0-0.2,0.1-0.2,0.1C127.2,56.3,127.3,56.3,127.3,56.3z"/>
	</g>
	<g>
		<path class="st1" d="M125,57.1c0,0,0.1,0,0.1-0.1C125.1,57.1,125,57.1,125,57.1L125,57.1z"/>
	</g>
	<g>
		<path class="st1" d="M129.7,55.6c-0.1,0-0.3,0.1-0.4,0.1C129.4,55.7,129.6,55.7,129.7,55.6z"/>
	</g>
	<g>
		<path class="st1" d="M134.2,55.2c0.2,0,0.5,0,0.7,0c0,0,0,0-0.1,0C134.6,55.1,134.4,55.1,134.2,55.2z"/>
	</g>
	<g>
		<path class="st1" d="M130.2,35.5c0.4,0,0.7-0.1,1.1-0.1C131,35.4,130.6,35.4,130.2,35.5z"/>
	</g>
	<g>
		<path class="st1" d="M121.4,37.2c0.3-0.1,0.6-0.2,0.9-0.2C122,37,121.7,37.1,121.4,37.2z"/>
	</g>
	<g>
		<path class="st1" d="M128.5,55.9c-0.1,0-0.2,0.1-0.3,0.1C128.3,56,128.4,55.9,128.5,55.9z"/>
	</g>
	<g>
		<path class="st1" d="M90.4,72.5c0-0.3,0.1-0.5,0.1-0.8C90.5,72,90.4,72.3,90.4,72.5z"/>
	</g>
	<g>
		<path class="st1" d="M125.7,36.1c0.3-0.1,0.7-0.1,1-0.2C126.4,36,126.1,36,125.7,36.1z"/>
	</g>
	<g>
		<path class="st1" d="M89.9,77.1c0-0.2,0-0.5,0.1-0.7C90,76.6,89.9,76.8,89.9,77.1z"/>
	</g>
	<g>
		<path class="st1" d="M90.1,74.8c0-0.3,0.1-0.5,0.1-0.8C90.2,74.3,90.1,74.5,90.1,74.8z"/>
	</g>
	<g>
		<path class="st1" d="M132.5,35.3c0.4,0,0.8,0,1.1,0C133.3,35.3,132.9,35.3,132.5,35.3z"/>
	</g>
	<g>
		<path class="st1" d="M111.6,78.2c0,0.4,0,0.8,0,1.2C111.5,79,111.5,78.6,111.6,78.2z"/>
	</g>
	<g>
		<path class="st1" d="M132.2,55.3c-0.2,0-0.3,0-0.5,0.1C131.8,55.3,132,55.3,132.2,55.3z"/>
	</g>
	<g>
		<path class="st1" d="M90.8,70.3c0.1-0.2,0.1-0.5,0.2-0.7C90.9,69.8,90.8,70.1,90.8,70.3z"/>
	</g>
	<g>
		<path class="st1" d="M91.3,68.2c0.1-0.2,0.1-0.5,0.2-0.7C91.4,67.7,91.3,67.9,91.3,68.2z"/>
	</g>
	<g>
		<path class="st1" d="M91.9,66.1c0.1-0.2,0.2-0.5,0.3-0.7C92,65.6,92,65.8,91.9,66.1z"/>
	</g>
	<g>
		<path class="st1" d="M111.9,74.6c0,0.1,0,0.3-0.1,0.4C111.9,74.9,111.9,74.8,111.9,74.6z"/>
	</g>
	<g>
		<path class="st1" d="M112.2,73.5C112.2,73.5,112.2,73.5,112.2,73.5C112.2,73.5,112.2,73.5,112.2,73.5z"/>
	</g>
	<g>
		<path class="st1" d="M133.5,55.2c-0.2,0-0.4,0-0.6,0C133.1,55.2,133.3,55.2,133.5,55.2z"/>
	</g>
	<g>
		<path class="st1" d="M111.6,77c0,0.4-0.1,0.7-0.1,1.1C111.6,77.7,111.6,77.3,111.6,77z"/>
	</g>
	<g>
		<path class="st1" d="M128,35.7c0.3-0.1,0.7-0.1,1.1-0.1C128.7,35.6,128.3,35.7,128,35.7z"/>
	</g>
	<g>
		<path class="st1" d="M92.6,64c0.1-0.2,0.2-0.5,0.3-0.7C92.8,63.5,92.7,63.8,92.6,64z"/>
	</g>
	<g>
		<path class="st1" d="M111.8,75.8c0,0.2,0,0.4-0.1,0.6C111.7,76.2,111.7,76,111.8,75.8z"/>
	</g>
	<g>
		<path class="st1" d="M113.3,40.5c0.2-0.1,0.5-0.2,0.7-0.4C113.8,40.2,113.6,40.3,113.3,40.5z"/>
	</g>
	<g>
		<path class="st1" d="M101.5,49.5c0.2-0.2,0.3-0.3,0.5-0.5C101.8,49.2,101.7,49.3,101.5,49.5z"/>
	</g>
	<g>
		<path class="st1" d="M100.1,51.1c0.1-0.2,0.3-0.3,0.5-0.5C100.4,50.7,100.2,50.9,100.1,51.1z"/>
	</g>
	<g>
		<path class="st1" d="M125,57.1C125,57.1,125,57.1,125,57.1L125,57.1C125,57.1,125,57.1,125,57.1z"/>
	</g>
	<g>
		<path class="st1" d="M104.6,46.5c0.2-0.2,0.4-0.3,0.5-0.4C104.9,46.2,104.7,46.4,104.6,46.5z"/>
	</g>
	<g>
		<path class="st1" d="M106.2,45.1c0.2-0.1,0.4-0.3,0.6-0.4C106.6,44.9,106.4,45,106.2,45.1z"/>
	</g>
	<g>
		<path class="st1" d="M97.5,54.5c0.1-0.2,0.3-0.4,0.4-0.5C97.8,54.1,97.6,54.3,97.5,54.5z"/>
	</g>
	<g>
		<path class="st1" d="M103,48c0.2-0.2,0.4-0.3,0.5-0.5C103.3,47.6,103.2,47.8,103,48z"/>
	</g>
	<g>
		<path class="st1" d="M98.8,52.7c0.1-0.2,0.3-0.4,0.4-0.5C99.1,52.4,98.9,52.6,98.8,52.7z"/>
	</g>
	<g>
		<path class="st1" d="M117.3,38.6c0.3-0.1,0.5-0.2,0.8-0.3C117.8,38.4,117.5,38.5,117.3,38.6z"/>
	</g>
	<g>
		<path class="st1" d="M119.3,37.8c0.3-0.1,0.6-0.2,0.9-0.3C119.9,37.7,119.6,37.7,119.3,37.8z"/>
	</g>
	<g>
		<path class="st1" d="M115.3,39.5c0.3-0.1,0.5-0.2,0.8-0.3C115.8,39.3,115.5,39.4,115.3,39.5z"/>
	</g>
	<g>
		<path class="st1" d="M96.4,56.3c0.1-0.2,0.3-0.4,0.4-0.6C96.6,55.9,96.5,56.1,96.4,56.3z"/>
	</g>
	<g>
		<path class="st1" d="M111.5,41.5c0.2-0.1,0.5-0.2,0.7-0.4C111.9,41.2,111.7,41.4,111.5,41.5z"/>
	</g>
	<g>
		<path class="st1" d="M107.9,43.8c0.2-0.1,0.4-0.3,0.6-0.4C108.3,43.6,108.1,43.7,107.9,43.8z"/>
	</g>
	<g>
		<path class="st1" d="M109.6,42.6c0.2-0.1,0.4-0.3,0.6-0.4C110.1,42.4,109.8,42.5,109.6,42.6z"/>
	</g>
</g>
<g>
	<path class="st0" d="M134.7,105.8c-11.3,0-19.2-7-22.1-16.3l-22.1-0.1c3.7,20.8,21.9,36.2,44.1,36.3c22.3,0.1,40.5-15.3,44.3-36.1
		l-22.1-0.1C154,98.9,146.1,105.9,134.7,105.8z"/>
</g>
</svg>
