<?xml version="1.0" encoding="utf-8"?>
<!-- Generator: Adobe Illustrator 22.0.1, SVG Export Plug-In . SVG Version: 6.00 Build 0)  -->
<svg version="1.1" id="Layer_1" xmlns="http://www.w3.org/2000/svg" xmlns:xlink="http://www.w3.org/1999/xlink" x="0px" y="0px"
	 viewBox="0 0 436 145.7" style="enable-background:new 0 0 436 145.7;" xml:space="preserve">
<style type="text/css">
	.st0{fill:#2065B0;}
	.st1{fill:#00B6FF;}
	.st2{fill:#00B5FF;}
</style>
<g>
	<path class="st0" d="M375,119.3c16.5,0,28.3-7.9,32.3-10.9c0.8-0.6,1-1.8,0.4-2.7l-8.4-12.6c-0.6-1-2-1.2-2.9-0.5
		c-3.1,2.4-10.5,7.1-21.5,7.1c-13.1,0-21.7-9.2-23.5-16.6h-21.1C334.2,103.9,352.3,119.3,375,119.3z"/>
</g>
<g>
	<path class="st0" d="M273.8,87.2c0,17.9,12.4,29.9,28.8,29.9c9,0,15.7-3,18.7-4.6c0.9-0.5,1.3-1.6,0.9-2.6L316,96.2
		c-0.5-1-1.7-1.5-2.7-1c-1.6,0.9-4.2,1.9-7.1,1.9c-5.7,0-11-3-11-13.3v-0.7h-21.3V87.2z"/>
</g>
<g>
	<path class="st0" d="M219.3,97.1c-8.2-0.3-14.9-6.2-16.6-14h-20.6c1.9,18.8,17.4,33.6,36.5,34.4v0c0.3,0,0.5,0,0.8,0
		c0.3,0,0.5,0,0.8,0v0c19.1-0.7,34.6-15.6,36.5-34.4h-20.7C234.2,90.9,227.5,96.7,219.3,97.1z"/>
</g>
<g>
	<path class="st0" d="M28.2,83.1v31.3c0,1.1,0.9,2,2,2h18.9c1.1,0,2-0.9,2-2V83.1H28.2z"/>
</g>
<g>
	<g>
		<path class="st1" d="M261.5,29.2c-13.7,0-24.8,11.1-24.8,24.8v24.4l0,0.3H257l0,0l0.1-23.4c0-3.1,1.9-5.6,5.7-5.7h10.8
			c0.1,0,0.2,0.1,0.2,0.2v28.6c0,0.1,0.1,0.2,0.2,0.2h20.9c0.1,0,0.2-0.1,0.2-0.2V49.8c0-0.1,0.1-0.2,0.2-0.2l40.1,0
			c0.2,0,0.2,0.2,0.2,0.3c-3.8,6.7-6,14.6-6,23.1c0,1.8,0.1,3.7,0.3,5.4c0,0.1,0.1,0.2,0.2,0.2l82,0c1.2,0,2.2-1,2.2-2.2
			c0-1.6,0-2.9,0-3.8c0-25.9-19.4-43.9-42.5-43.9c0,0,0,0-0.1,0l0.1-0.2l-109,0.5H261.5z M372,48.2c13.9,0,20.7,9.6,21.1,16.8
			c0,0.1-0.1,0.2-0.2,0.2h-41.3c-0.1,0-0.2-0.1-0.2-0.2C352.2,57.6,358.4,48.2,372,48.2z"/>
	</g>
</g>
<g>
	<path class="st1" d="M202.3,78.4V30.7c0-1.1-0.9-2-2-2h-16.4c-1.1,0-2,0.9-2,2v48h20.4C202.3,78.6,202.3,78.5,202.3,78.4z"/>
</g>
<g>
	<g>
		<path class="st2" d="M106.6,71.7c0,0,0,0.1,0,0.1C106.6,71.8,106.6,71.8,106.6,71.7z"/>
	</g>
	<g>
		<path class="st2" d="M106.7,70.1c0,0.2,0,0.4-0.1,0.6C106.7,70.5,106.7,70.3,106.7,70.1z"/>
	</g>
	<g>
		<path class="st2" d="M84.8,73c0-0.8,0-1.5,0.1-2.3C84.9,71.5,84.8,72.3,84.8,73z"/>
	</g>
	<g>
		<path class="st2" d="M107.2,67.2c-0.1,0.4-0.2,0.7-0.2,1.1C107,67.9,107.1,67.5,107.2,67.2z"/>
	</g>
	<g>
		<path class="st2" d="M107.4,66.1c-0.1,0.3-0.2,0.7-0.3,1C107.3,66.8,107.3,66.4,107.4,66.1z"/>
	</g>
	<g>
		<path class="st2" d="M85,70c0-0.5,0.1-1,0.1-1.6C85,69,85,69.5,85,70z"/>
	</g>
	<g>
		<path class="st2" d="M106.9,68.7c0,0.2-0.1,0.5-0.1,0.7C106.8,69.2,106.8,69,106.9,68.7z"/>
	</g>
	<g>
		<path class="st1" d="M88.7,55c0.2-0.4,0.4-0.9,0.6-1.3C89.1,54.1,88.9,54.5,88.7,55z"/>
	</g>
	<g>
		<path class="st1" d="M87.9,57c0.2-0.4,0.3-0.9,0.5-1.3C88.2,56.1,88,56.5,87.9,57z"/>
	</g>
	<g>
		<path class="st1" d="M89.6,53c0.2-0.4,0.4-0.8,0.7-1.3C90,52.2,89.8,52.6,89.6,53z"/>
	</g>
	<g>
		<path class="st1" d="M87.1,59c0.1-0.4,0.3-0.9,0.5-1.3C87.4,58.1,87.3,58.6,87.1,59z"/>
	</g>
	<g>
		<path class="st1" d="M85.5,65.4c0.1-0.5,0.2-0.9,0.2-1.4C85.7,64.5,85.6,64.9,85.5,65.4z"/>
	</g>
	<g>
		<path class="st1" d="M85.9,63.3c0.1-0.5,0.2-1,0.3-1.4C86.2,62.3,86,62.8,85.9,63.3z"/>
	</g>
	<g>
		<path class="st1" d="M86.5,61.1c0.1-0.5,0.3-0.9,0.4-1.4C86.7,60.2,86.6,60.7,86.5,61.1z"/>
	</g>
	<g>
		<path class="st1" d="M118,51.8c-0.3,0.2-0.6,0.4-0.9,0.6C117.4,52.2,117.7,52,118,51.8z"/>
	</g>
	<g>
		<path class="st1" d="M126.3,29c0.4,0,0.8-0.1,1.2-0.1C127.1,29,126.7,29,126.3,29z"/>
	</g>
	<g>
		<path class="st1" d="M129.2,48.8c-0.2,0-0.5,0-0.7,0C128.7,48.8,128.9,48.8,129.2,48.8z"/>
	</g>
	<g>
		<path class="st1" d="M129.8,28.9c-0.4,0-0.8,0-1.1,0c0.4,0,0.8,0,1.3,0C129.9,28.9,129.8,28.9,129.8,28.9z"/>
	</g>
	<g>
		<path class="st1" d="M124,29.3c0.4,0,0.8-0.1,1.2-0.1C124.8,29.2,124.4,29.2,124,29.3z"/>
	</g>
	<g>
		<path class="st1" d="M117.3,30.6c0.4-0.1,0.8-0.2,1.2-0.3C118.1,30.4,117.7,30.5,117.3,30.6z"/>
	</g>
	<g>
		<path class="st1" d="M119.5,30c0.4-0.1,0.8-0.2,1.2-0.3C120.3,29.9,119.9,30,119.5,30z"/>
	</g>
	<g>
		<path class="st1" d="M121.7,29.6c0.4-0.1,0.8-0.1,1.2-0.2C122.6,29.5,122.1,29.5,121.7,29.6z"/>
	</g>
	<g>
		<path class="st1" d="M126.7,49c-0.2,0-0.5,0.1-0.7,0.1C126.2,49.1,126.4,49,126.7,49z"/>
	</g>
	<g>
		<path class="st1" d="M123.2,49.7c-0.3,0.1-0.6,0.2-0.9,0.2C122.6,49.8,122.9,49.8,123.2,49.7z"/>
	</g>
	<g>
		<path class="st1" d="M122.1,50c-0.3,0.1-0.6,0.2-0.9,0.3C121.5,50.2,121.8,50.1,122.1,50z"/>
	</g>
	<g>
		<path class="st1" d="M121,50.4c-0.3,0.1-0.6,0.2-0.9,0.4C120.4,50.6,120.7,50.5,121,50.4z"/>
	</g>
	<g>
		<path class="st1" d="M125.5,49.2c-0.3,0-0.5,0.1-0.8,0.1C125,49.3,125.2,49.2,125.5,49.2z"/>
	</g>
	<g>
		<path class="st1" d="M119,51.3c-0.3,0.2-0.6,0.3-0.9,0.5C118.4,51.6,118.7,51.4,119,51.3z"/>
	</g>
	<g>
		<path class="st1" d="M124.3,49.4c-0.3,0.1-0.6,0.1-0.8,0.2C123.8,49.5,124,49.5,124.3,49.4z"/>
	</g>
	<g>
		<path class="st1" d="M127.9,48.9c-0.2,0-0.5,0-0.7,0.1C127.4,48.9,127.7,48.9,127.9,48.9z"/>
	</g>
	<g>
		<path class="st2" d="M85.2,67.7c0.1-0.5,0.1-1,0.2-1.4C85.3,66.7,85.2,67.2,85.2,67.7z"/>
	</g>
	<g>
		<path class="st1" d="M107.5,66c1.5-5.7,4.8-10.5,9.6-13.6C112.3,55.5,109,60.3,107.5,66z"/>
	</g>
	<g>
		<path class="st1" d="M90.7,51c0,0-0.1,0.1-0.1,0.1C90.7,51.1,90.7,51.1,90.7,51L90.7,51z"/>
	</g>
	<g>
		<path class="st1" d="M116.4,30.8c-0.2,0.1-0.4,0.1-0.6,0.2h0C116,31,116.2,30.9,116.4,30.8z"/>
	</g>
	<g>
		<path class="st1" d="M119.1,51.2c0.1-0.1,0.3-0.1,0.4-0.2h0C119.4,51.1,119.2,51.2,119.1,51.2z"/>
	</g>
	<g>
		<path class="st1" d="M107.1,34.8c0.4-0.2,0.8-0.5,1.2-0.7C107.9,34.3,107.5,34.6,107.1,34.8z"/>
	</g>
	<g>
		<path class="st1" d="M109.1,33.8c0.4-0.2,0.8-0.4,1.2-0.6C109.9,33.3,109.5,33.6,109.1,33.8z"/>
	</g>
	<g>
		<path class="st1" d="M105.3,35.9c0.4-0.2,0.8-0.5,1.2-0.7C106.1,35.4,105.7,35.7,105.3,35.9z"/>
	</g>
	<g>
		<path class="st1" d="M103.5,37.1c0.4-0.3,0.8-0.5,1.2-0.8C104.2,36.6,103.9,36.8,103.5,37.1z"/>
	</g>
	<g>
		<path class="st1" d="M115.8,31L115.8,31c-0.2,0.1-0.4,0.1-0.6,0.2C115.4,31.2,115.6,31.1,115.8,31z"/>
	</g>
	<g>
		<path class="st1" d="M113.1,32c0.4-0.2,0.8-0.3,1.2-0.5C113.9,31.7,113.5,31.8,113.1,32z"/>
	</g>
	<g>
		<path class="st1" d="M119.5,51L119.5,51c0.2-0.1,0.3-0.2,0.5-0.2C119.8,50.9,119.7,51,119.5,51z"/>
	</g>
	<g>
		<path class="st1" d="M91.4,49.9c-0.2,0.4-0.4,0.7-0.6,1.1h0C90.9,50.7,91.1,50.3,91.4,49.9z"/>
	</g>
	<g>
		<path class="st1" d="M111.1,32.8c0.4-0.2,0.8-0.4,1.2-0.5C111.9,32.5,111.5,32.6,111.1,32.8z"/>
	</g>
	<g>
		<path class="st1" d="M97.2,31H79c-10.9,0-20.3,2.5-27.9,7.1v-6.5c0-1.1-0.9-2-2-2l-18.9-0.1c-1.1,0-2,0.9-2,2v47.1h20.9v0l1.9,0
			C51.8,59.8,60.5,51,79,51h4.8c0.7,0,1.4-0.4,1.8-1.1c3.2-6,7.5-11.2,12.8-15.4C99.9,33.4,99.1,31,97.2,31z"/>
	</g>
	<g>
		<path class="st1" d="M101.7,38.4c0.4-0.3,0.8-0.6,1.1-0.9C102.5,37.8,102.1,38.1,101.7,38.4z"/>
	</g>
	<g>
		<path class="st1" d="M98.5,41.1c0.3-0.3,0.7-0.6,1-1C99.2,40.5,98.9,40.8,98.5,41.1z"/>
	</g>
	<g>
		<path class="st1" d="M95.6,44.2c0.3-0.4,0.6-0.7,1-1.1C96.2,43.5,95.9,43.9,95.6,44.2z"/>
	</g>
	<g>
		<path class="st1" d="M92.9,47.6c0.3-0.4,0.6-0.8,0.9-1.2C93.5,46.8,93.2,47.2,92.9,47.6z"/>
	</g>
	<g>
		<path class="st1" d="M97,42.7c0.3-0.3,0.7-0.7,1-1C97.6,42,97.3,42.3,97,42.7z"/>
	</g>
	<g>
		<path class="st1" d="M94.2,45.9c0.3-0.4,0.6-0.8,0.9-1.1C94.8,45.1,94.5,45.5,94.2,45.9z"/>
	</g>
	<g>
		<path class="st1" d="M91.7,49.4c0.3-0.4,0.5-0.8,0.8-1.2C92.2,48.5,92,48.9,91.7,49.4z"/>
	</g>
	<g>
		<path class="st1" d="M100.1,39.7c0.4-0.3,0.7-0.6,1.1-0.9C100.8,39.1,100.4,39.4,100.1,39.7z"/>
	</g>
	<g>
		<path class="st1" d="M119.5,51h0.5v-0.2c0,0,0,0,0,0C119.8,50.9,119.7,51,119.5,51z"/>
	</g>
	<g>
		<path class="st1" d="M129.9,28.9c-0.4,0-0.8,0-1.3,0c-0.4,0-0.8,0-1.1,0c-0.4,0-0.8,0.1-1.2,0.1c-0.4,0-0.7,0-1.1,0.1
			c-0.4,0-0.8,0.1-1.2,0.1c-0.4,0-0.7,0.1-1.1,0.1c-0.4,0.1-0.8,0.1-1.2,0.2c-0.3,0.1-0.7,0.1-1,0.2c-0.4,0.1-0.8,0.2-1.2,0.3
			c-0.3,0.1-0.6,0.1-1,0.2c-0.4,0.1-0.8,0.2-1.2,0.3c-0.3,0.1-0.6,0.2-0.9,0.2c-0.2,0.1-0.4,0.1-0.6,0.2c-0.2,0.1-0.4,0.1-0.6,0.2
			c-0.3,0.1-0.6,0.2-0.9,0.3c-0.4,0.1-0.8,0.3-1.2,0.5c-0.3,0.1-0.6,0.2-0.8,0.3c-0.4,0.2-0.8,0.3-1.2,0.5c-0.3,0.1-0.5,0.2-0.8,0.3
			c-0.4,0.2-0.8,0.4-1.2,0.6c-0.2,0.1-0.5,0.2-0.7,0.4c-0.4,0.2-0.8,0.4-1.2,0.7c-0.2,0.1-0.5,0.2-0.7,0.4c-0.4,0.2-0.8,0.5-1.2,0.7
			c-0.2,0.1-0.4,0.3-0.6,0.4c-0.4,0.3-0.8,0.5-1.2,0.8c-0.2,0.1-0.4,0.3-0.6,0.4c-0.4,0.3-0.8,0.6-1.1,0.9c-0.2,0.1-0.4,0.3-0.6,0.4
			c-0.4,0.3-0.7,0.6-1.1,0.9c-0.2,0.2-0.4,0.3-0.5,0.4c-0.4,0.3-0.7,0.6-1,1c-0.2,0.2-0.4,0.3-0.5,0.5c-0.3,0.3-0.7,0.7-1,1
			c-0.2,0.2-0.3,0.3-0.5,0.5c-0.3,0.4-0.6,0.7-1,1.1c-0.2,0.2-0.3,0.3-0.5,0.5c-0.3,0.4-0.6,0.7-0.9,1.1c-0.1,0.2-0.3,0.4-0.4,0.5
			c-0.3,0.4-0.6,0.8-0.9,1.2c-0.1,0.2-0.3,0.4-0.4,0.5c-0.3,0.4-0.5,0.8-0.8,1.2c-0.1,0.2-0.3,0.4-0.4,0.6c-0.2,0.4-0.4,0.7-0.6,1.1
			c0,0-0.1,0.1-0.1,0.1c-0.1,0.2-0.2,0.4-0.4,0.6c-0.2,0.4-0.4,0.8-0.7,1.3c-0.1,0.2-0.2,0.4-0.3,0.6c-0.2,0.4-0.4,0.9-0.6,1.3
			c-0.1,0.2-0.2,0.4-0.3,0.7c-0.2,0.4-0.3,0.9-0.5,1.3c-0.1,0.2-0.2,0.5-0.3,0.7c-0.2,0.4-0.3,0.9-0.5,1.3c-0.1,0.2-0.2,0.5-0.3,0.7
			c-0.1,0.5-0.3,0.9-0.4,1.4c-0.1,0.2-0.1,0.5-0.2,0.7c-0.1,0.5-0.2,0.9-0.3,1.4c-0.1,0.2-0.1,0.5-0.2,0.7c-0.1,0.5-0.2,0.9-0.2,1.4
			c0,0.3-0.1,0.5-0.1,0.8c-0.1,0.5-0.1,1-0.2,1.4c0,0.3-0.1,0.5-0.1,0.8C85,69,85,69.5,85,70c0,0.2,0,0.5-0.1,0.7
			c0,0.8-0.1,1.5-0.1,2.3c0,1.9,0.1,3.8,0.4,5.6h21.9c-0.4-1.8-0.6-3.7-0.6-5.6c0-0.4,0-0.8,0-1.2c0,0,0-0.1,0-0.1
			c0-0.4,0-0.7,0.1-1.1c0-0.2,0-0.4,0.1-0.6c0-0.2,0-0.4,0.1-0.6c0-0.3,0.1-0.5,0.1-0.7c0-0.1,0-0.3,0.1-0.4
			c0.1-0.4,0.1-0.7,0.2-1.1c0,0,0,0,0-0.1c0.1-0.3,0.2-0.7,0.3-1c0,0,0-0.1,0-0.1c1.5-5.7,4.8-10.5,9.6-13.6c0,0,0,0,0,0
			c0.3-0.2,0.6-0.4,0.9-0.6c0,0,0,0,0,0c0.3-0.2,0.6-0.3,0.9-0.5c0,0,0,0,0.1,0c0.1-0.1,0.3-0.1,0.4-0.2c0.2-0.1,0.3-0.2,0.5-0.2
			c0,0,0,0,0,0c0,0,0.1,0,0.1-0.1c0.3-0.1,0.6-0.3,0.9-0.4c0.1,0,0.1-0.1,0.2-0.1c0.3-0.1,0.6-0.2,0.9-0.3c0.1,0,0.2-0.1,0.2-0.1
			c0.3-0.1,0.6-0.2,0.9-0.2c0.1,0,0.2-0.1,0.3-0.1c0.3-0.1,0.5-0.1,0.8-0.2c0.1,0,0.3-0.1,0.4-0.1c0.3-0.1,0.5-0.1,0.8-0.1
			c0.1,0,0.3-0.1,0.4-0.1c0.2,0,0.5-0.1,0.7-0.1c0.2,0,0.3,0,0.5-0.1c0.2,0,0.5,0,0.7-0.1c0.2,0,0.4,0,0.6,0c0.2,0,0.5,0,0.7,0
			c0.2,0,0.4,0,0.6,0c0,0,0,0,0.1,0c14.4,0,23.3,11.3,23.2,24.4c0,1.9-0.2,3.7-0.6,5.5h21.9c0.2-1.8,0.4-3.6,0.4-5.4
			C174.8,48.4,155,29,129.9,28.9z"/>
	</g>
	<g>
		<path class="st1" d="M119.1,51.2C119,51.3,119,51.3,119.1,51.2C119,51.3,119,51.3,119.1,51.2z"/>
	</g>
	<g>
		<path class="st1" d="M121.2,50.3c-0.1,0-0.1,0-0.2,0.1C121.1,50.4,121.1,50.3,121.2,50.3z"/>
	</g>
	<g>
		<path class="st1" d="M90.3,51.8c0.1-0.2,0.2-0.4,0.4-0.6C90.5,51.4,90.4,51.6,90.3,51.8z"/>
	</g>
	<g>
		<path class="st1" d="M89.3,53.7c0.1-0.2,0.2-0.4,0.3-0.6C89.5,53.3,89.4,53.5,89.3,53.7z"/>
	</g>
	<g>
		<path class="st1" d="M88.4,55.7c0.1-0.2,0.2-0.4,0.3-0.7C88.6,55.2,88.5,55.4,88.4,55.7z"/>
	</g>
	<g>
		<path class="st1" d="M117.1,52.4C117.1,52.4,117.1,52.4,117.1,52.4C117.1,52.4,117.1,52.4,117.1,52.4z"/>
	</g>
	<g>
		<path class="st1" d="M118,51.8C118,51.8,118,51.8,118,51.8C118,51.8,118,51.8,118,51.8z"/>
	</g>
	<g>
		<path class="st1" d="M118.6,30.3c0.3-0.1,0.6-0.1,1-0.2C119.2,30.1,118.9,30.2,118.6,30.3z"/>
	</g>
	<g>
		<path class="st2" d="M107.5,66c0,0,0,0.1,0,0.1C107.4,66.1,107.4,66,107.5,66z"/>
	</g>
	<g>
		<path class="st1" d="M125.9,49.1c-0.1,0-0.3,0.1-0.4,0.1C125.6,49.1,125.8,49.1,125.9,49.1z"/>
	</g>
	<g>
		<path class="st1" d="M122.3,49.9c-0.1,0-0.2,0.1-0.2,0.1C122.2,50,122.3,49.9,122.3,49.9z"/>
	</g>
	<g>
		<path class="st1" d="M120,50.8c0,0,0.1,0,0.1-0.1C120.1,50.8,120,50.8,120,50.8L120,50.8z"/>
	</g>
	<g>
		<path class="st1" d="M124.7,49.3c-0.1,0-0.3,0.1-0.4,0.1C124.4,49.4,124.6,49.3,124.7,49.3z"/>
	</g>
	<g>
		<path class="st1" d="M129.2,48.8c0.2,0,0.5,0,0.7,0c0,0,0,0-0.1,0C129.6,48.8,129.4,48.8,129.2,48.8z"/>
	</g>
	<g>
		<path class="st1" d="M125.2,29.1c0.4,0,0.7-0.1,1.1-0.1C126,29.1,125.6,29.1,125.2,29.1z"/>
	</g>
	<g>
		<path class="st1" d="M116.4,30.8c0.3-0.1,0.6-0.2,0.9-0.2C117,30.7,116.7,30.7,116.4,30.8z"/>
	</g>
	<g>
		<path class="st1" d="M123.5,49.6c-0.1,0-0.2,0.1-0.3,0.1C123.3,49.6,123.4,49.6,123.5,49.6z"/>
	</g>
	<g>
		<path class="st2" d="M85.4,66.2c0-0.3,0.1-0.5,0.1-0.8C85.5,65.7,85.4,65.9,85.4,66.2z"/>
	</g>
	<g>
		<path class="st1" d="M120.7,29.8c0.3-0.1,0.7-0.1,1-0.2C121.4,29.7,121.1,29.7,120.7,29.8z"/>
	</g>
	<g>
		<path class="st2" d="M84.9,70.7c0-0.2,0-0.5,0.1-0.7C85,70.2,84.9,70.5,84.9,70.7z"/>
	</g>
	<g>
		<path class="st2" d="M85.1,68.4c0-0.3,0.1-0.5,0.1-0.8C85.2,67.9,85.1,68.2,85.1,68.4z"/>
	</g>
	<g>
		<path class="st1" d="M127.5,29c0.4,0,0.8,0,1.1,0C128.3,28.9,127.9,28.9,127.5,29z"/>
	</g>
	<g>
		<path class="st2" d="M106.6,71.9c0,0.4,0,0.8,0,1.2C106.5,72.7,106.5,72.3,106.6,71.9z"/>
	</g>
	<g>
		<path class="st1" d="M127.2,48.9c-0.2,0-0.3,0-0.5,0.1C126.8,49,127,48.9,127.2,48.9z"/>
	</g>
	<g>
		<path class="st1" d="M85.8,64c0.1-0.2,0.1-0.5,0.2-0.7C85.9,63.5,85.8,63.8,85.8,64z"/>
	</g>
	<g>
		<path class="st1" d="M86.3,61.8c0.1-0.2,0.1-0.5,0.2-0.7C86.4,61.4,86.3,61.6,86.3,61.8z"/>
	</g>
	<g>
		<path class="st1" d="M86.9,59.7c0.1-0.2,0.2-0.5,0.3-0.7C87,59.2,87,59.5,86.9,59.7z"/>
	</g>
	<g>
		<path class="st2" d="M106.9,68.3c0,0.1,0,0.3-0.1,0.4C106.9,68.6,106.9,68.4,106.9,68.3z"/>
	</g>
	<g>
		<path class="st2" d="M107.2,67.1C107.2,67.1,107.2,67.2,107.2,67.1C107.2,67.2,107.2,67.1,107.2,67.1z"/>
	</g>
	<g>
		<path class="st1" d="M128.5,48.8c-0.2,0-0.4,0-0.6,0C128.1,48.9,128.3,48.8,128.5,48.8z"/>
	</g>
	<g>
		<path class="st2" d="M106.6,70.7c0,0.4-0.1,0.7-0.1,1.1C106.6,71.4,106.6,71,106.6,70.7z"/>
	</g>
	<g>
		<path class="st1" d="M123,29.4c0.3-0.1,0.7-0.1,1.1-0.1C123.7,29.3,123.3,29.3,123,29.4z"/>
	</g>
	<g>
		<path class="st1" d="M87.6,57.7c0.1-0.2,0.2-0.5,0.3-0.7C87.8,57.2,87.7,57.4,87.6,57.7z"/>
	</g>
	<g>
		<path class="st2" d="M106.8,69.5c0,0.2,0,0.4-0.1,0.6C106.7,69.9,106.7,69.7,106.8,69.5z"/>
	</g>
	<g>
		<path class="st1" d="M108.3,34.1c0.2-0.1,0.5-0.2,0.7-0.4C108.8,33.9,108.6,34,108.3,34.1z"/>
	</g>
	<g>
		<path class="st1" d="M96.5,43.2c0.2-0.2,0.3-0.3,0.5-0.5C96.8,42.8,96.7,43,96.5,43.2z"/>
	</g>
	<g>
		<path class="st1" d="M95.1,44.8c0.1-0.2,0.3-0.3,0.5-0.5C95.4,44.4,95.2,44.6,95.1,44.8z"/>
	</g>
	<g>
		<path class="st1" d="M120,50.8C120,50.8,120,50.8,120,50.8L120,50.8C120,50.8,120,50.8,120,50.8z"/>
	</g>
	<g>
		<path class="st1" d="M99.6,40.2c0.2-0.2,0.4-0.3,0.5-0.4C99.9,39.9,99.7,40,99.6,40.2z"/>
	</g>
	<g>
		<path class="st1" d="M101.2,38.8c0.2-0.1,0.4-0.3,0.6-0.4C101.6,38.5,101.4,38.7,101.2,38.8z"/>
	</g>
	<g>
		<path class="st1" d="M92.5,48.1c0.1-0.2,0.3-0.4,0.4-0.5C92.8,47.8,92.6,48,92.5,48.1z"/>
	</g>
	<g>
		<path class="st1" d="M98,41.6c0.2-0.2,0.4-0.3,0.5-0.5C98.3,41.3,98.2,41.5,98,41.6z"/>
	</g>
	<g>
		<path class="st1" d="M93.8,46.4c0.1-0.2,0.3-0.4,0.4-0.5C94.1,46.1,93.9,46.2,93.8,46.4z"/>
	</g>
	<g>
		<path class="st1" d="M112.3,32.3c0.3-0.1,0.5-0.2,0.8-0.3C112.8,32.1,112.5,32.2,112.3,32.3z"/>
	</g>
	<g>
		<path class="st1" d="M114.3,31.5c0.3-0.1,0.6-0.2,0.9-0.3C114.9,31.3,114.6,31.4,114.3,31.5z"/>
	</g>
	<g>
		<path class="st1" d="M110.3,33.2c0.3-0.1,0.5-0.2,0.8-0.3C110.8,32.9,110.5,33,110.3,33.2z"/>
	</g>
	<g>
		<path class="st1" d="M91.4,49.9c0.1-0.2,0.3-0.4,0.4-0.6C91.6,49.5,91.5,49.7,91.4,49.9z"/>
	</g>
	<g>
		<path class="st1" d="M106.5,35.2c0.2-0.1,0.5-0.2,0.7-0.4C106.9,34.9,106.7,35,106.5,35.2z"/>
	</g>
	<g>
		<path class="st1" d="M102.9,37.5c0.2-0.1,0.4-0.3,0.6-0.4C103.3,37.2,103.1,37.4,102.9,37.5z"/>
	</g>
	<g>
		<path class="st1" d="M104.6,36.3c0.2-0.1,0.4-0.3,0.6-0.4C105.1,36,104.8,36.2,104.6,36.3z"/>
	</g>
</g>
<g>
	<path class="st0" d="M129.7,99.5c-11.3,0-19.2-7-22.1-16.3l-22.1-0.1c3.7,20.8,21.9,36.2,44.1,36.3c22.3,0.1,40.5-15.3,44.3-36.1
		l-22.1-0.1C149,92.6,141.1,99.5,129.7,99.5z"/>
</g>
</svg>
