<?xml version="1.0" encoding="utf-8"?>
<!-- Generator: Adobe Illustrator 22.0.1, SVG Export Plug-In . SVG Version: 6.00 Build 0)  -->
<svg version="1.1" id="Layer_1" xmlns="http://www.w3.org/2000/svg" xmlns:xlink="http://www.w3.org/1999/xlink" x="0px" y="0px"
	 viewBox="0 0 436 145.7" style="enable-background:new 0 0 436 145.7;" xml:space="preserve">
<style type="text/css">
	.st0{fill:#F45151;stroke:#FFFFFF;stroke-width:4;stroke-miterlimit:10;}
	.st1{fill:#E52107;}
	.st2{fill:#F45151;}
</style>
<path class="st0" d="M97,40c0,0,5,4,3,9"/>
<g>
	<path class="st1" d="M378,122.6c16.5,0,28.3-7.9,32.3-10.9c0.8-0.6,1-1.8,0.4-2.7l-8.4-12.6c-0.6-1-2-1.2-2.9-0.5
		c-3.1,2.4-10.5,7.1-21.5,7.1c-13.1,0-21.7-9.2-23.5-16.6h-21.1C337.2,107.2,355.3,122.6,378,122.6z"/>
</g>
<g>
	<path class="st1" d="M276.8,90.5c0,17.9,12.4,29.9,28.8,29.9c9,0,15.7-3,18.7-4.6c0.9-0.5,1.3-1.6,0.9-2.6L319,99.5
		c-0.5-1-1.7-1.5-2.7-1c-1.6,0.9-4.2,1.9-7.1,1.9c-5.7,0-11-3-11-13.3v-0.7h-21.3V90.5z"/>
</g>
<g>
	<path class="st1" d="M222.3,100.4c-8.2-0.3-14.9-6.2-16.6-14h-20.6c1.9,18.8,17.4,33.6,36.5,34.4v0c0.3,0,0.5,0,0.8,0
		c0.3,0,0.5,0,0.8,0v0c19.1-0.7,34.6-15.6,36.5-34.4h-20.7C237.2,94.2,230.5,100.1,222.3,100.4z"/>
</g>
<g>
	<path class="st1" d="M31.2,86.4v31.3c0,1.1,0.9,2,2,2h18.9c1.1,0,2-0.9,2-2V86.4H31.2z"/>
</g>
<g>
	<g>
		<path class="st2" d="M264.5,32.5c-13.7,0-24.8,11.1-24.8,24.8v24.4l0,0.3H260l0,0l0.1-23.4c0-3.1,1.9-5.6,5.7-5.7h10.8
			c0.1,0,0.2,0.1,0.2,0.2v28.6c0,0.1,0.1,0.2,0.2,0.2h20.9c0.1,0,0.2-0.1,0.2-0.2V53.2c0-0.1,0.1-0.2,0.2-0.2h40.1
			c0.2,0,0.2,0.2,0.2,0.3c-3.8,6.7-6,14.6-6,23.1c0,1.8,0.1,3.7,0.3,5.4c0,0.1,0.1,0.2,0.2,0.2l82,0c1.2,0,2.2-1,2.2-2.2
			c0-1.6,0-2.9,0-3.8c0-25.9-19.4-43.9-42.5-43.9c0,0,0,0-0.1,0L375,32l-109,0.5H264.5z M375,51.5c13.9,0,20.7,9.6,21.1,16.8
			c0,0.1-0.1,0.2-0.2,0.2h-41.3c-0.1,0-0.2-0.1-0.2-0.2C355.2,60.9,361.4,51.5,375,51.5z"/>
	</g>
</g>
<g>
	<path class="st2" d="M205.3,81.7V34c0-1.1-0.9-2-2-2h-16.4c-1.1,0-2,0.9-2,2v48h20.4C205.3,81.9,205.3,81.8,205.3,81.7z"/>
</g>
<g>
	<g>
		<path class="st2" d="M109.6,75.1c0,0,0,0.1,0,0.1C109.6,75.2,109.6,75.1,109.6,75.1z"/>
	</g>
	<g>
		<path class="st2" d="M109.7,73.4c0,0.2,0,0.4-0.1,0.6C109.7,73.8,109.7,73.6,109.7,73.4z"/>
	</g>
	<g>
		<path class="st2" d="M87.8,76.4c0-0.8,0-1.5,0.1-2.3C87.9,74.8,87.8,75.6,87.8,76.4z"/>
	</g>
	<g>
		<path class="st2" d="M110.2,70.5c-0.1,0.4-0.2,0.7-0.2,1.1C110,71.2,110.1,70.9,110.2,70.5z"/>
	</g>
	<g>
		<path class="st2" d="M110.4,69.4c-0.1,0.3-0.2,0.7-0.3,1C110.3,70.1,110.3,69.8,110.4,69.4z"/>
	</g>
	<g>
		<path class="st2" d="M88,73.3c0-0.5,0.1-1,0.1-1.6C88,72.3,88,72.8,88,73.3z"/>
	</g>
	<g>
		<path class="st2" d="M109.9,72c0,0.2-0.1,0.5-0.1,0.7C109.8,72.5,109.8,72.3,109.9,72z"/>
	</g>
	<g>
		<path class="st2" d="M91.7,58.3c0.2-0.4,0.4-0.9,0.6-1.3C92.1,57.4,91.9,57.9,91.7,58.3z"/>
	</g>
	<g>
		<path class="st2" d="M90.9,60.3c0.2-0.4,0.3-0.9,0.5-1.3C91.2,59.4,91,59.9,90.9,60.3z"/>
	</g>
	<g>
		<path class="st2" d="M92.6,56.4c0.2-0.4,0.4-0.8,0.7-1.3C93,55.5,92.8,56,92.6,56.4z"/>
	</g>
	<g>
		<path class="st2" d="M90.1,62.3c0.1-0.4,0.3-0.9,0.5-1.3C90.4,61.4,90.3,61.9,90.1,62.3z"/>
	</g>
	<g>
		<path class="st2" d="M88.5,68.7c0.1-0.5,0.2-0.9,0.2-1.4C88.7,67.8,88.6,68.3,88.5,68.7z"/>
	</g>
	<g>
		<path class="st2" d="M88.9,66.6c0.1-0.5,0.2-1,0.3-1.4C89.2,65.6,89,66.1,88.9,66.6z"/>
	</g>
	<g>
		<path class="st2" d="M89.5,64.5c0.1-0.5,0.3-0.9,0.4-1.4C89.7,63.5,89.6,64,89.5,64.5z"/>
	</g>
	<g>
		<path class="st2" d="M121,55.2c-0.3,0.2-0.6,0.4-0.9,0.6C120.4,55.5,120.7,55.3,121,55.2z"/>
	</g>
	<g>
		<path class="st2" d="M129.3,32.4c0.4,0,0.8-0.1,1.2-0.1C130.1,32.3,129.7,32.3,129.3,32.4z"/>
	</g>
	<g>
		<path class="st2" d="M132.2,52.2c-0.2,0-0.5,0-0.7,0C131.7,52.2,131.9,52.2,132.2,52.2z"/>
	</g>
	<g>
		<path class="st2" d="M132.8,32.2c-0.4,0-0.8,0-1.1,0c0.4,0,0.8,0,1.3,0C132.9,32.2,132.8,32.2,132.8,32.2z"/>
	</g>
	<g>
		<path class="st2" d="M127,32.6c0.4,0,0.8-0.1,1.2-0.1C127.8,32.5,127.4,32.6,127,32.6z"/>
	</g>
	<g>
		<path class="st2" d="M120.3,33.9c0.4-0.1,0.8-0.2,1.2-0.3C121.1,33.7,120.7,33.8,120.3,33.9z"/>
	</g>
	<g>
		<path class="st2" d="M122.5,33.4c0.4-0.1,0.8-0.2,1.2-0.3C123.3,33.2,122.9,33.3,122.5,33.4z"/>
	</g>
	<g>
		<path class="st2" d="M124.7,32.9c0.4-0.1,0.8-0.1,1.2-0.2C125.6,32.8,125.1,32.9,124.7,32.9z"/>
	</g>
	<g>
		<path class="st2" d="M129.7,52.3c-0.2,0-0.5,0.1-0.7,0.1C129.2,52.4,129.4,52.4,129.7,52.3z"/>
	</g>
	<g>
		<path class="st2" d="M126.2,53c-0.3,0.1-0.6,0.2-0.9,0.2C125.6,53.2,125.9,53.1,126.2,53z"/>
	</g>
	<g>
		<path class="st2" d="M125.1,53.3c-0.3,0.1-0.6,0.2-0.9,0.3C124.5,53.5,124.8,53.4,125.1,53.3z"/>
	</g>
	<g>
		<path class="st2" d="M124,53.7c-0.3,0.1-0.6,0.2-0.9,0.4C123.4,54,123.7,53.8,124,53.7z"/>
	</g>
	<g>
		<path class="st2" d="M128.5,52.5c-0.3,0-0.5,0.1-0.8,0.1C128,52.6,128.2,52.5,128.5,52.5z"/>
	</g>
	<g>
		<path class="st2" d="M122,54.6c-0.3,0.2-0.6,0.3-0.9,0.5C121.4,55,121.7,54.8,122,54.6z"/>
	</g>
	<g>
		<path class="st2" d="M127.3,52.7c-0.3,0.1-0.6,0.1-0.8,0.2C126.8,52.8,127,52.8,127.3,52.7z"/>
	</g>
	<g>
		<path class="st2" d="M130.9,52.2c-0.2,0-0.5,0-0.7,0.1C130.4,52.2,130.7,52.2,130.9,52.2z"/>
	</g>
	<g>
		<path class="st2" d="M88.2,71c0.1-0.5,0.1-1,0.2-1.4C88.3,70,88.2,70.5,88.2,71z"/>
	</g>
	<g>
		<path class="st2" d="M110.5,69.3c1.5-5.7,4.8-10.5,9.6-13.6C115.3,58.8,112,63.7,110.5,69.3z"/>
	</g>
	<g>
		<path class="st2" d="M93.7,54.4c0,0-0.1,0.1-0.1,0.1C93.7,54.5,93.7,54.4,93.7,54.4L93.7,54.4z"/>
	</g>
	<g>
		<path class="st2" d="M119.4,34.2c-0.2,0.1-0.4,0.1-0.6,0.2h0C119,34.3,119.2,34.2,119.4,34.2z"/>
	</g>
	<g>
		<path class="st2" d="M122.1,54.6c0.1-0.1,0.3-0.1,0.4-0.2h0C122.4,54.4,122.2,54.5,122.1,54.6z"/>
	</g>
	<g>
		<path class="st2" d="M110.1,38.1c0.4-0.2,0.8-0.5,1.2-0.7C110.9,37.7,110.5,37.9,110.1,38.1z"/>
	</g>
	<g>
		<path class="st2" d="M112.1,37.1c0.4-0.2,0.8-0.4,1.2-0.6C112.9,36.7,112.5,36.9,112.1,37.1z"/>
	</g>
	<g>
		<path class="st2" d="M108.3,39.2c0.4-0.2,0.8-0.5,1.2-0.7C109.1,38.7,108.7,39,108.3,39.2z"/>
	</g>
	<g>
		<path class="st2" d="M106.5,40.4c0.4-0.3,0.8-0.5,1.2-0.8C107.2,39.9,106.9,40.2,106.5,40.4z"/>
	</g>
	<g>
		<path class="st2" d="M118.8,34.4L118.8,34.4c-0.2,0.1-0.4,0.1-0.6,0.2C118.4,34.5,118.6,34.4,118.8,34.4z"/>
	</g>
	<g>
		<path class="st2" d="M116.1,35.3c0.4-0.2,0.8-0.3,1.2-0.5C116.9,35,116.5,35.2,116.1,35.3z"/>
	</g>
	<g>
		<path class="st2" d="M122.5,54.4L122.5,54.4c0.2-0.1,0.3-0.2,0.5-0.2C122.8,54.2,122.7,54.3,122.5,54.4z"/>
	</g>
	<g>
		<path class="st2" d="M94.4,53.3c-0.2,0.4-0.4,0.7-0.6,1.1h0C93.9,54,94.1,53.6,94.4,53.3z"/>
	</g>
	<g>
		<path class="st2" d="M114.1,36.1c0.4-0.2,0.8-0.4,1.2-0.5C114.9,35.8,114.5,36,114.1,36.1z"/>
	</g>
	<g>
		<path class="st2" d="M100.2,34.4H82c-10.9,0-20.3,2.5-27.9,7.1V35c0-1.1-0.9-2-2-2l-18.9-0.1c-1.1,0-2,0.9-2,2V82h20.9v0l1.9,0
			c0.8-18.9,9.5-27.6,28-27.6h4.8c0.7,0,1.4-0.4,1.8-1.1c3.2-6,7.5-11.2,12.8-15.4C102.9,36.8,102.1,34.4,100.2,34.4z"/>
	</g>
	<g>
		<path class="st2" d="M104.7,41.7c0.4-0.3,0.8-0.6,1.1-0.9C105.5,41.1,105.1,41.4,104.7,41.7z"/>
	</g>
	<g>
		<path class="st2" d="M101.5,44.5c0.3-0.3,0.7-0.6,1-1C102.2,43.8,101.9,44.2,101.5,44.5z"/>
	</g>
	<g>
		<path class="st2" d="M98.6,47.6c0.3-0.4,0.6-0.7,1-1.1C99.2,46.8,98.9,47.2,98.6,47.6z"/>
	</g>
	<g>
		<path class="st2" d="M95.9,50.9c0.3-0.4,0.6-0.8,0.9-1.2C96.5,50.1,96.2,50.5,95.9,50.9z"/>
	</g>
	<g>
		<path class="st2" d="M100,46c0.3-0.3,0.7-0.7,1-1C100.6,45.3,100.3,45.7,100,46z"/>
	</g>
	<g>
		<path class="st2" d="M97.2,49.2c0.3-0.4,0.6-0.8,0.9-1.1C97.8,48.4,97.5,48.8,97.2,49.2z"/>
	</g>
	<g>
		<path class="st2" d="M94.7,52.7c0.3-0.4,0.5-0.8,0.8-1.2C95.2,51.9,95,52.3,94.7,52.7z"/>
	</g>
	<g>
		<path class="st2" d="M103.1,43.1c0.4-0.3,0.7-0.6,1.1-0.9C103.8,42.4,103.4,42.8,103.1,43.1z"/>
	</g>
	<g>
		<path class="st2" d="M122.5,54.4h0.5v-0.2c0,0,0,0,0,0C122.8,54.2,122.7,54.3,122.5,54.4z"/>
	</g>
	<g>
		<path class="st2" d="M132.9,32.2c-0.4,0-0.8,0-1.3,0c-0.4,0-0.8,0-1.1,0c-0.4,0-0.8,0.1-1.2,0.1c-0.4,0-0.7,0-1.1,0.1
			c-0.4,0-0.8,0.1-1.2,0.1c-0.4,0-0.7,0.1-1.1,0.1c-0.4,0.1-0.8,0.1-1.2,0.2c-0.3,0.1-0.7,0.1-1,0.2c-0.4,0.1-0.8,0.2-1.2,0.3
			c-0.3,0.1-0.6,0.1-1,0.2c-0.4,0.1-0.8,0.2-1.2,0.3c-0.3,0.1-0.6,0.2-0.9,0.2c-0.2,0.1-0.4,0.1-0.6,0.2c-0.2,0.1-0.4,0.1-0.6,0.2
			c-0.3,0.1-0.6,0.2-0.9,0.3c-0.4,0.1-0.8,0.3-1.2,0.5c-0.3,0.1-0.6,0.2-0.8,0.3c-0.4,0.2-0.8,0.3-1.2,0.5c-0.3,0.1-0.5,0.2-0.8,0.3
			c-0.4,0.2-0.8,0.4-1.2,0.6c-0.2,0.1-0.5,0.2-0.7,0.4c-0.4,0.2-0.8,0.4-1.2,0.7c-0.2,0.1-0.5,0.2-0.7,0.4c-0.4,0.2-0.8,0.5-1.2,0.7
			c-0.2,0.1-0.4,0.3-0.6,0.4c-0.4,0.3-0.8,0.5-1.2,0.8c-0.2,0.1-0.4,0.3-0.6,0.4c-0.4,0.3-0.8,0.6-1.1,0.9c-0.2,0.1-0.4,0.3-0.6,0.4
			c-0.4,0.3-0.7,0.6-1.1,0.9c-0.2,0.2-0.4,0.3-0.5,0.4c-0.4,0.3-0.7,0.6-1,1c-0.2,0.2-0.4,0.3-0.5,0.5c-0.3,0.3-0.7,0.7-1,1
			c-0.2,0.2-0.3,0.3-0.5,0.5c-0.3,0.4-0.6,0.7-1,1.1c-0.2,0.2-0.3,0.3-0.5,0.5c-0.3,0.4-0.6,0.7-0.9,1.1c-0.1,0.2-0.3,0.4-0.4,0.5
			c-0.3,0.4-0.6,0.8-0.9,1.2c-0.1,0.2-0.3,0.4-0.4,0.5c-0.3,0.4-0.5,0.8-0.8,1.2c-0.1,0.2-0.3,0.4-0.4,0.6c-0.2,0.4-0.4,0.7-0.6,1.1
			c0,0-0.1,0.1-0.1,0.1c-0.1,0.2-0.2,0.4-0.4,0.6c-0.2,0.4-0.4,0.8-0.7,1.3c-0.1,0.2-0.2,0.4-0.3,0.6c-0.2,0.4-0.4,0.9-0.6,1.3
			c-0.1,0.2-0.2,0.4-0.3,0.7c-0.2,0.4-0.3,0.9-0.5,1.3c-0.1,0.2-0.2,0.5-0.3,0.7c-0.2,0.4-0.3,0.9-0.5,1.3c-0.1,0.2-0.2,0.5-0.3,0.7
			c-0.1,0.5-0.3,0.9-0.4,1.4c-0.1,0.2-0.1,0.5-0.2,0.7c-0.1,0.5-0.2,0.9-0.3,1.4c-0.1,0.2-0.1,0.5-0.2,0.7c-0.1,0.5-0.2,0.9-0.2,1.4
			c0,0.3-0.1,0.5-0.1,0.8c-0.1,0.5-0.1,1-0.2,1.4c0,0.3-0.1,0.5-0.1,0.8c-0.1,0.5-0.1,1-0.1,1.6c0,0.2,0,0.5-0.1,0.7
			c0,0.8-0.1,1.5-0.1,2.3c0,1.9,0.1,3.8,0.4,5.6h21.9c-0.4-1.8-0.6-3.7-0.6-5.6c0-0.4,0-0.8,0-1.2c0,0,0-0.1,0-0.1
			c0-0.4,0-0.7,0.1-1.1c0-0.2,0-0.4,0.1-0.6c0-0.2,0-0.4,0.1-0.6c0-0.3,0.1-0.5,0.1-0.7c0-0.1,0-0.3,0.1-0.4
			c0.1-0.4,0.1-0.7,0.2-1.1c0,0,0,0,0-0.1c0.1-0.3,0.2-0.7,0.3-1c0,0,0-0.1,0-0.1c1.5-5.7,4.8-10.5,9.6-13.6c0,0,0,0,0,0
			c0.3-0.2,0.6-0.4,0.9-0.6c0,0,0,0,0,0c0.3-0.2,0.6-0.3,0.9-0.5c0,0,0,0,0.1,0c0.1-0.1,0.3-0.1,0.4-0.2c0.2-0.1,0.3-0.2,0.5-0.2
			c0,0,0,0,0,0c0,0,0.1,0,0.1-0.1c0.3-0.1,0.6-0.3,0.9-0.4c0.1,0,0.1-0.1,0.2-0.1c0.3-0.1,0.6-0.2,0.9-0.3c0.1,0,0.2-0.1,0.2-0.1
			c0.3-0.1,0.6-0.2,0.9-0.2c0.1,0,0.2-0.1,0.3-0.1c0.3-0.1,0.5-0.1,0.8-0.2c0.1,0,0.3-0.1,0.4-0.1c0.3-0.1,0.5-0.1,0.8-0.1
			c0.1,0,0.3-0.1,0.4-0.1c0.2,0,0.5-0.1,0.7-0.1c0.2,0,0.3,0,0.5-0.1c0.2,0,0.5,0,0.7-0.1c0.2,0,0.4,0,0.6,0c0.2,0,0.5,0,0.7,0
			c0.2,0,0.4,0,0.6,0c0,0,0,0,0.1,0c14.4,0,23.3,11.3,23.2,24.4c0,1.9-0.2,3.7-0.6,5.5h21.9c0.2-1.8,0.4-3.6,0.4-5.4
			C177.8,51.7,158,32.3,132.9,32.2z"/>
	</g>
	<g>
		<path class="st2" d="M122.1,54.6C122,54.6,122,54.6,122.1,54.6C122,54.6,122,54.6,122.1,54.6z"/>
	</g>
	<g>
		<path class="st2" d="M124.2,53.6c-0.1,0-0.1,0-0.2,0.1C124.1,53.7,124.1,53.7,124.2,53.6z"/>
	</g>
	<g>
		<path class="st2" d="M93.3,55.1c0.1-0.2,0.2-0.4,0.4-0.6C93.5,54.7,93.4,54.9,93.3,55.1z"/>
	</g>
	<g>
		<path class="st2" d="M92.3,57c0.1-0.2,0.2-0.4,0.3-0.6C92.5,56.6,92.4,56.8,92.3,57z"/>
	</g>
	<g>
		<path class="st2" d="M91.4,59c0.1-0.2,0.2-0.4,0.3-0.7C91.6,58.5,91.5,58.8,91.4,59z"/>
	</g>
	<g>
		<path class="st2" d="M120.1,55.7C120.1,55.7,120.1,55.7,120.1,55.7C120.1,55.7,120.1,55.7,120.1,55.7z"/>
	</g>
	<g>
		<path class="st2" d="M121,55.1C121,55.1,121,55.1,121,55.1C121,55.1,121,55.1,121,55.1z"/>
	</g>
	<g>
		<path class="st2" d="M121.6,33.6c0.3-0.1,0.6-0.1,1-0.2C122.2,33.4,121.9,33.5,121.6,33.6z"/>
	</g>
	<g>
		<path class="st2" d="M110.5,69.3c0,0,0,0.1,0,0.1C110.4,69.4,110.4,69.3,110.5,69.3z"/>
	</g>
	<g>
		<path class="st2" d="M128.9,52.4c-0.1,0-0.3,0.1-0.4,0.1C128.6,52.5,128.8,52.4,128.9,52.4z"/>
	</g>
	<g>
		<path class="st2" d="M125.3,53.3c-0.1,0-0.2,0.1-0.2,0.1C125.2,53.3,125.3,53.3,125.3,53.3z"/>
	</g>
	<g>
		<path class="st2" d="M123,54.1c0,0,0.1,0,0.1-0.1C123.1,54.1,123,54.1,123,54.1L123,54.1z"/>
	</g>
	<g>
		<path class="st2" d="M127.7,52.6c-0.1,0-0.3,0.1-0.4,0.1C127.4,52.7,127.6,52.7,127.7,52.6z"/>
	</g>
	<g>
		<path class="st2" d="M132.2,52.2c0.2,0,0.5,0,0.7,0c0,0,0,0-0.1,0C132.6,52.1,132.4,52.1,132.2,52.2z"/>
	</g>
	<g>
		<path class="st2" d="M128.2,32.5c0.4,0,0.7-0.1,1.1-0.1C129,32.4,128.6,32.4,128.2,32.5z"/>
	</g>
	<g>
		<path class="st2" d="M119.4,34.2c0.3-0.1,0.6-0.2,0.9-0.2C120,34,119.7,34.1,119.4,34.2z"/>
	</g>
	<g>
		<path class="st2" d="M126.5,52.9c-0.1,0-0.2,0.1-0.3,0.1C126.3,53,126.4,52.9,126.5,52.9z"/>
	</g>
	<g>
		<path class="st2" d="M88.4,69.5c0-0.3,0.1-0.5,0.1-0.8C88.5,69,88.4,69.3,88.4,69.5z"/>
	</g>
	<g>
		<path class="st2" d="M123.7,33.1c0.3-0.1,0.7-0.1,1-0.2C124.4,33,124.1,33,123.7,33.1z"/>
	</g>
	<g>
		<path class="st2" d="M87.9,74.1c0-0.2,0-0.5,0.1-0.7C88,73.6,87.9,73.8,87.9,74.1z"/>
	</g>
	<g>
		<path class="st2" d="M88.1,71.8c0-0.3,0.1-0.5,0.1-0.8C88.2,71.3,88.1,71.5,88.1,71.8z"/>
	</g>
	<g>
		<path class="st2" d="M130.5,32.3c0.4,0,0.8,0,1.1,0C131.3,32.3,130.9,32.3,130.5,32.3z"/>
	</g>
	<g>
		<path class="st2" d="M109.6,75.2c0,0.4,0,0.8,0,1.2C109.5,76,109.5,75.6,109.6,75.2z"/>
	</g>
	<g>
		<path class="st2" d="M130.2,52.3c-0.2,0-0.3,0-0.5,0.1C129.8,52.3,130,52.3,130.2,52.3z"/>
	</g>
	<g>
		<path class="st2" d="M88.8,67.3c0.1-0.2,0.1-0.5,0.2-0.7C88.9,66.8,88.8,67.1,88.8,67.3z"/>
	</g>
	<g>
		<path class="st2" d="M89.3,65.2c0.1-0.2,0.1-0.5,0.2-0.7C89.4,64.7,89.3,64.9,89.3,65.2z"/>
	</g>
	<g>
		<path class="st2" d="M89.9,63.1c0.1-0.2,0.2-0.5,0.3-0.7C90,62.6,90,62.8,89.9,63.1z"/>
	</g>
	<g>
		<path class="st2" d="M109.9,71.6c0,0.1,0,0.3-0.1,0.4C109.9,71.9,109.9,71.8,109.9,71.6z"/>
	</g>
	<g>
		<path class="st2" d="M110.2,70.5C110.2,70.5,110.2,70.5,110.2,70.5C110.2,70.5,110.2,70.5,110.2,70.5z"/>
	</g>
	<g>
		<path class="st2" d="M131.5,52.2c-0.2,0-0.4,0-0.6,0C131.1,52.2,131.3,52.2,131.5,52.2z"/>
	</g>
	<g>
		<path class="st2" d="M109.6,74c0,0.4-0.1,0.7-0.1,1.1C109.6,74.7,109.6,74.3,109.6,74z"/>
	</g>
	<g>
		<path class="st2" d="M126,32.7c0.3-0.1,0.7-0.1,1.1-0.1C126.7,32.6,126.3,32.7,126,32.7z"/>
	</g>
	<g>
		<path class="st2" d="M90.6,61c0.1-0.2,0.2-0.5,0.3-0.7C90.8,60.5,90.7,60.8,90.6,61z"/>
	</g>
	<g>
		<path class="st2" d="M109.8,72.8c0,0.2,0,0.4-0.1,0.6C109.7,73.2,109.7,73,109.8,72.8z"/>
	</g>
	<g>
		<path class="st2" d="M111.3,37.5c0.2-0.1,0.5-0.2,0.7-0.4C111.8,37.2,111.6,37.3,111.3,37.5z"/>
	</g>
	<g>
		<path class="st2" d="M99.5,46.5c0.2-0.2,0.3-0.3,0.5-0.5C99.8,46.2,99.7,46.3,99.5,46.5z"/>
	</g>
	<g>
		<path class="st2" d="M98.1,48.1c0.1-0.2,0.3-0.3,0.5-0.5C98.4,47.7,98.2,47.9,98.1,48.1z"/>
	</g>
	<g>
		<path class="st2" d="M123,54.1C123,54.1,123,54.1,123,54.1L123,54.1C123,54.1,123,54.1,123,54.1z"/>
	</g>
	<g>
		<path class="st2" d="M102.6,43.5c0.2-0.2,0.4-0.3,0.5-0.4C102.9,43.2,102.7,43.4,102.6,43.5z"/>
	</g>
	<g>
		<path class="st2" d="M104.2,42.1c0.2-0.1,0.4-0.3,0.6-0.4C104.6,41.9,104.4,42,104.2,42.1z"/>
	</g>
	<g>
		<path class="st2" d="M95.5,51.5c0.1-0.2,0.3-0.4,0.4-0.5C95.8,51.1,95.6,51.3,95.5,51.5z"/>
	</g>
	<g>
		<path class="st2" d="M101,45c0.2-0.2,0.4-0.3,0.5-0.5C101.3,44.6,101.2,44.8,101,45z"/>
	</g>
	<g>
		<path class="st2" d="M96.8,49.7c0.1-0.2,0.3-0.4,0.4-0.5C97.1,49.4,96.9,49.6,96.8,49.7z"/>
	</g>
	<g>
		<path class="st2" d="M115.3,35.6c0.3-0.1,0.5-0.2,0.8-0.3C115.8,35.4,115.5,35.5,115.3,35.6z"/>
	</g>
	<g>
		<path class="st2" d="M117.3,34.8c0.3-0.1,0.6-0.2,0.9-0.3C117.9,34.7,117.6,34.7,117.3,34.8z"/>
	</g>
	<g>
		<path class="st2" d="M113.3,36.5c0.3-0.1,0.5-0.2,0.8-0.3C113.8,36.3,113.5,36.4,113.3,36.5z"/>
	</g>
	<g>
		<path class="st2" d="M94.4,53.3c0.1-0.2,0.3-0.4,0.4-0.6C94.6,52.9,94.5,53.1,94.4,53.3z"/>
	</g>
	<g>
		<path class="st2" d="M109.5,38.5c0.2-0.1,0.5-0.2,0.7-0.4C109.9,38.2,109.7,38.4,109.5,38.5z"/>
	</g>
	<g>
		<path class="st2" d="M105.9,40.8c0.2-0.1,0.4-0.3,0.6-0.4C106.3,40.6,106.1,40.7,105.9,40.8z"/>
	</g>
	<g>
		<path class="st2" d="M107.6,39.6c0.2-0.1,0.4-0.3,0.6-0.4C108.1,39.4,107.8,39.5,107.6,39.6z"/>
	</g>
</g>
<g>
	<path class="st1" d="M132.7,102.8c-11.3,0-19.2-7-22.1-16.3l-22.1-0.1c3.7,20.8,21.9,36.2,44.1,36.3c22.3,0.1,40.5-15.3,44.3-36.1
		l-22.1-0.1C152,95.9,144.1,102.9,132.7,102.8z"/>
</g>
</svg>
