<?xml version="1.0" encoding="utf-8"?>
<!-- Generator: Adobe Illustrator 22.1.0, SVG Export Plug-In . SVG Version: 6.00 Build 0)  -->
<svg version="1.1" id="Layer_1" xmlns="http://www.w3.org/2000/svg" xmlns:xlink="http://www.w3.org/1999/xlink" x="0px" y="0px"
	 viewBox="0 0 389.5 92.7" style="enable-background:new 0 0 389.5 92.7;" xml:space="preserve">
<style type="text/css">
	.st0{fill:#2065B0;}
	.st1{fill:#00B6FF;}
	.st2{fill:#00B5FF;}
</style>
<g>
	<path class="st0" d="M347.5,91.3c16.5,0,28.3-7.9,32.3-10.9c0.8-0.6,1-1.8,0.4-2.7l-8.4-12.6c-0.6-1-2-1.2-2.9-0.5
		c-3.1,2.4-10.5,7.1-21.5,7.1c-13.1,0-21.7-9.2-23.5-16.6h-21.1C306.7,75.9,324.8,91.3,347.5,91.3z"/>
</g>
<g>
	<path class="st0" d="M246.3,59.2c0,17.9,12.4,29.9,28.8,29.9c9,0,15.7-3,18.7-4.6c0.9-0.5,1.3-1.6,0.9-2.6l-6.2-13.7
		c-0.5-1-1.7-1.5-2.7-1c-1.6,0.9-4.2,1.9-7.1,1.9c-5.7,0-11-3-11-13.3v-0.7h-21.3v4.1H246.3z"/>
</g>
<g>
	<path class="st0" d="M191.8,69.1c-8.2-0.3-14.9-6.2-16.6-14h-20.6c1.9,18.8,17.4,33.6,36.5,34.4l0,0c0.3,0,0.5,0,0.8,0s0.5,0,0.8,0
		l0,0c19.1-0.7,34.6-15.6,36.5-34.4h-20.7C206.7,62.9,200,68.7,191.8,69.1z"/>
</g>
<g>
	<path class="st0" d="M0.7,55.1v31.3c0,1.1,0.9,2,2,2h18.9c1.1,0,2-0.9,2-2V55.1H0.7z"/>
</g>
<g>
	<g>
		<path class="st1" d="M234,1.2c-13.7,0-24.8,11.1-24.8,24.8v24.4v0.3h20.3l0,0l0.1-23.4c0-3.1,1.9-5.6,5.7-5.7h10.8
			c0.1,0,0.2,0.1,0.2,0.2v28.6c0,0.1,0.1,0.2,0.2,0.2h20.9c0.1,0,0.2-0.1,0.2-0.2V21.8c0-0.1,0.1-0.2,0.2-0.2h40.1
			c0.2,0,0.2,0.2,0.2,0.3c-3.8,6.7-6,14.6-6,23.1c0,1.8,0.1,3.7,0.3,5.4c0,0.1,0.1,0.2,0.2,0.2h82c1.2,0,2.2-1,2.2-2.2
			c0-1.6,0-2.9,0-3.8c0-25.9-19.4-43.9-42.5-43.9c0,0,0,0-0.1,0l0.1-0.2L235.3,1H234V1.2z M344.5,20.2c13.9,0,20.7,9.6,21.1,16.8
			c0,0.1-0.1,0.2-0.2,0.2h-41.3c-0.1,0-0.2-0.1-0.2-0.2C324.7,29.6,330.9,20.2,344.5,20.2z"/>
	</g>
</g>
<g>
	<path class="st1" d="M174.8,50.4V2.7c0-1.1-0.9-2-2-2h-16.4c-1.1,0-2,0.9-2,2v48h20.4C174.8,50.6,174.8,50.5,174.8,50.4z"/>
</g>
<g>
	<g>
		<path class="st2" d="M79.1,43.7L79.1,43.7C79.1,43.8,79.1,43.8,79.1,43.7z"/>
	</g>
	<g>
		<path class="st2" d="M79.2,42.1c0,0.2,0,0.4-0.1,0.6C79.2,42.5,79.2,42.3,79.2,42.1z"/>
	</g>
	<g>
		<path class="st2" d="M57.3,45c0-0.8,0-1.5,0.1-2.3C57.4,43.5,57.3,44.3,57.3,45z"/>
	</g>
	<g>
		<path class="st2" d="M79.7,39.2c-0.1,0.4-0.2,0.7-0.2,1.1C79.5,39.9,79.6,39.5,79.7,39.2z"/>
	</g>
	<g>
		<path class="st2" d="M79.9,38.1c-0.1,0.3-0.2,0.7-0.3,1C79.8,38.8,79.8,38.4,79.9,38.1z"/>
	</g>
	<g>
		<path class="st2" d="M57.5,42c0-0.5,0.1-1,0.1-1.6C57.5,41,57.5,41.5,57.5,42z"/>
	</g>
	<g>
		<path class="st2" d="M79.4,40.7c0,0.2-0.1,0.5-0.1,0.7C79.3,41.2,79.3,41,79.4,40.7z"/>
	</g>
	<g>
		<path class="st1" d="M61.2,27c0.2-0.4,0.4-0.9,0.6-1.3C61.6,26.1,61.4,26.5,61.2,27z"/>
	</g>
	<g>
		<path class="st1" d="M60.4,29c0.2-0.4,0.3-0.9,0.5-1.3C60.7,28.1,60.5,28.5,60.4,29z"/>
	</g>
	<g>
		<path class="st1" d="M62.1,25c0.2-0.4,0.4-0.8,0.7-1.3C62.5,24.2,62.3,24.6,62.1,25z"/>
	</g>
	<g>
		<path class="st1" d="M59.6,31c0.1-0.4,0.3-0.9,0.5-1.3C59.9,30.1,59.8,30.6,59.6,31z"/>
	</g>
	<g>
		<path class="st1" d="M58,37.4c0.1-0.5,0.2-0.9,0.2-1.4C58.2,36.5,58.1,36.9,58,37.4z"/>
	</g>
	<g>
		<path class="st1" d="M58.4,35.3c0.1-0.5,0.2-1,0.3-1.4C58.7,34.3,58.5,34.8,58.4,35.3z"/>
	</g>
	<g>
		<path class="st1" d="M59,33.1c0.1-0.5,0.3-0.9,0.4-1.4C59.2,32.2,59.1,32.7,59,33.1z"/>
	</g>
	<g>
		<path class="st1" d="M90.5,23.8c-0.3,0.2-0.6,0.4-0.9,0.6C89.9,24.2,90.2,24,90.5,23.8z"/>
	</g>
	<g>
		<path class="st1" d="M98.8,1c0.4,0,0.8-0.1,1.2-0.1C99.6,1,99.2,1,98.8,1z"/>
	</g>
	<g>
		<path class="st1" d="M101.7,20.8c-0.2,0-0.5,0-0.7,0C101.2,20.8,101.4,20.8,101.7,20.8z"/>
	</g>
	<g>
		<path class="st1" d="M102.3,0.9c-0.4,0-0.8,0-1.1,0c0.4,0,0.8,0,1.3,0C102.4,0.9,102.3,0.9,102.3,0.9z"/>
	</g>
	<g>
		<path class="st1" d="M96.5,1.3c0.4,0,0.8-0.1,1.2-0.1C97.3,1.2,96.9,1.2,96.5,1.3z"/>
	</g>
	<g>
		<path class="st1" d="M89.8,2.6c0.4-0.1,0.8-0.2,1.2-0.3C90.6,2.4,90.2,2.5,89.8,2.6z"/>
	</g>
	<g>
		<path class="st1" d="M92,2c0.4-0.1,0.8-0.2,1.2-0.3C92.8,1.9,92.4,2,92,2z"/>
	</g>
	<g>
		<path class="st1" d="M94.2,1.6c0.4-0.1,0.8-0.1,1.2-0.2C95.1,1.5,94.6,1.5,94.2,1.6z"/>
	</g>
	<g>
		<path class="st1" d="M99.2,21c-0.2,0-0.5,0.1-0.7,0.1C98.7,21.1,98.9,21,99.2,21z"/>
	</g>
	<g>
		<path class="st1" d="M95.7,21.7c-0.3,0.1-0.6,0.2-0.9,0.2C95.1,21.8,95.4,21.8,95.7,21.7z"/>
	</g>
	<g>
		<path class="st1" d="M94.6,22c-0.3,0.1-0.6,0.2-0.9,0.3C94,22.2,94.3,22.1,94.6,22z"/>
	</g>
	<g>
		<path class="st1" d="M93.5,22.4c-0.3,0.1-0.6,0.2-0.9,0.4C92.9,22.6,93.2,22.5,93.5,22.4z"/>
	</g>
	<g>
		<path class="st1" d="M98,21.2c-0.3,0-0.5,0.1-0.8,0.1C97.5,21.3,97.7,21.2,98,21.2z"/>
	</g>
	<g>
		<path class="st1" d="M91.5,23.3c-0.3,0.2-0.6,0.3-0.9,0.5C90.9,23.6,91.2,23.4,91.5,23.3z"/>
	</g>
	<g>
		<path class="st1" d="M96.8,21.4c-0.3,0.1-0.6,0.1-0.8,0.2C96.3,21.5,96.5,21.5,96.8,21.4z"/>
	</g>
	<g>
		<path class="st1" d="M100.4,20.9c-0.2,0-0.5,0-0.7,0.1C99.9,20.9,100.2,20.9,100.4,20.9z"/>
	</g>
	<g>
		<path class="st2" d="M57.7,39.7c0.1-0.5,0.1-1,0.2-1.4C57.8,38.7,57.7,39.2,57.7,39.7z"/>
	</g>
	<g>
		<path class="st1" d="M80,38c1.5-5.7,4.8-10.5,9.6-13.6C84.8,27.5,81.5,32.3,80,38z"/>
	</g>
	<g>
		<path class="st1" d="M63.2,23L63.2,23C63.2,23.1,63.2,23.1,63.2,23L63.2,23z"/>
	</g>
	<g>
		<path class="st1" d="M88.9,2.8c-0.2,0.1-0.4,0.1-0.6,0.2l0,0C88.5,3,88.7,2.9,88.9,2.8z"/>
	</g>
	<g>
		<path class="st1" d="M91.6,23.2c0.1-0.1,0.3-0.1,0.4-0.2l0,0C91.9,23.1,91.7,23.2,91.6,23.2z"/>
	</g>
	<g>
		<path class="st1" d="M79.6,6.8c0.4-0.2,0.8-0.5,1.2-0.7C80.4,6.3,80,6.6,79.6,6.8z"/>
	</g>
	<g>
		<path class="st1" d="M81.6,5.8c0.4-0.2,0.8-0.4,1.2-0.6C82.4,5.3,82,5.6,81.6,5.8z"/>
	</g>
	<g>
		<path class="st1" d="M77.8,7.9c0.4-0.2,0.8-0.5,1.2-0.7C78.6,7.4,78.2,7.7,77.8,7.9z"/>
	</g>
	<g>
		<path class="st1" d="M76,9.1c0.4-0.3,0.8-0.5,1.2-0.8C76.7,8.6,76.4,8.8,76,9.1z"/>
	</g>
	<g>
		<path class="st1" d="M88.3,3L88.3,3c-0.2,0.1-0.4,0.1-0.6,0.2C87.9,3.2,88.1,3.1,88.3,3z"/>
	</g>
	<g>
		<path class="st1" d="M85.6,4c0.4-0.2,0.8-0.3,1.2-0.5C86.4,3.7,86,3.8,85.6,4z"/>
	</g>
	<g>
		<path class="st1" d="M92,23L92,23c0.2-0.1,0.3-0.2,0.5-0.2C92.3,22.9,92.2,23,92,23z"/>
	</g>
	<g>
		<path class="st1" d="M63.9,21.9c-0.2,0.4-0.4,0.7-0.6,1.1l0,0C63.4,22.7,63.6,22.3,63.9,21.9z"/>
	</g>
	<g>
		<path class="st1" d="M83.6,4.8c0.4-0.2,0.8-0.4,1.2-0.5C84.4,4.5,84,4.6,83.6,4.8z"/>
	</g>
	<g>
		<path class="st1" d="M69.7,3H51.5c-10.9,0-20.3,2.5-27.9,7.1V3.6c0-1.1-0.9-2-2-2L2.7,1.5c-1.1,0-2,0.9-2,2v47.1h20.9l0,0h1.9
			C24.3,31.8,33,23,51.5,23h4.8c0.7,0,1.4-0.4,1.8-1.1c3.2-6,7.5-11.2,12.8-15.4C72.4,5.4,71.6,3,69.7,3z"/>
	</g>
	<g>
		<path class="st1" d="M74.2,10.4c0.4-0.3,0.8-0.6,1.1-0.9C75,9.8,74.6,10.1,74.2,10.4z"/>
	</g>
	<g>
		<path class="st1" d="M71,13.1c0.3-0.3,0.7-0.6,1-1C71.7,12.5,71.4,12.8,71,13.1z"/>
	</g>
	<g>
		<path class="st1" d="M68.1,16.2c0.3-0.4,0.6-0.7,1-1.1C68.7,15.5,68.4,15.9,68.1,16.2z"/>
	</g>
	<g>
		<path class="st1" d="M65.4,19.6c0.3-0.4,0.6-0.8,0.9-1.2C66,18.8,65.7,19.2,65.4,19.6z"/>
	</g>
	<g>
		<path class="st1" d="M69.5,14.7c0.3-0.3,0.7-0.7,1-1C70.1,14,69.8,14.3,69.5,14.7z"/>
	</g>
	<g>
		<path class="st1" d="M66.7,17.9c0.3-0.4,0.6-0.8,0.9-1.1C67.3,17.1,67,17.5,66.7,17.9z"/>
	</g>
	<g>
		<path class="st1" d="M64.2,21.4c0.3-0.4,0.5-0.8,0.8-1.2C64.7,20.5,64.5,20.9,64.2,21.4z"/>
	</g>
	<g>
		<path class="st1" d="M72.6,11.7c0.4-0.3,0.7-0.6,1.1-0.9C73.3,11.1,72.9,11.4,72.6,11.7z"/>
	</g>
	<g>
		<path class="st1" d="M92,23h0.5v-0.2l0,0C92.3,22.9,92.2,23,92,23z"/>
	</g>
	<g>
		<path class="st1" d="M102.4,0.9c-0.4,0-0.8,0-1.3,0c-0.4,0-0.8,0-1.1,0c-0.4,0-0.8,0.1-1.2,0.1c-0.4,0-0.7,0-1.1,0.1
			c-0.4,0-0.8,0.1-1.2,0.1c-0.4,0-0.7,0.1-1.1,0.1c-0.4,0.1-0.8,0.1-1.2,0.2c-0.3,0.1-0.7,0.1-1,0.2C92.8,1.8,92.4,1.9,92,2
			c-0.3,0.1-0.6,0.1-1,0.2s-0.8,0.2-1.2,0.3c-0.3,0.1-0.6,0.2-0.9,0.2c-0.2,0.1-0.4,0.1-0.6,0.2S87.9,3,87.7,3.1
			c-0.3,0.1-0.6,0.2-0.9,0.3c-0.4,0.1-0.8,0.3-1.2,0.5C85.3,4,85,4.1,84.8,4.2c-0.4,0.2-0.8,0.3-1.2,0.5c-0.3,0.1-0.5,0.2-0.8,0.3
			c-0.4,0.2-0.8,0.4-1.2,0.6c-0.2,0.1-0.5,0.2-0.7,0.4c-0.4,0.2-0.8,0.4-1.2,0.7c-0.2,0.1-0.5,0.2-0.7,0.4c-0.4,0.2-0.8,0.5-1.2,0.7
			c-0.2,0.1-0.4,0.3-0.6,0.4C76.8,8.5,76.4,8.7,76,9c-0.2,0.1-0.4,0.3-0.6,0.4c-0.4,0.3-0.8,0.6-1.1,0.9c-0.2,0.1-0.4,0.3-0.6,0.4
			c-0.4,0.3-0.7,0.6-1.1,0.9c-0.2,0.2-0.4,0.3-0.5,0.4c-0.4,0.3-0.7,0.6-1,1c-0.2,0.2-0.4,0.3-0.5,0.5c-0.3,0.3-0.7,0.7-1,1
			c-0.2,0.2-0.3,0.3-0.5,0.5c-0.3,0.4-0.6,0.7-1,1.1c-0.2,0.2-0.3,0.3-0.5,0.5c-0.3,0.4-0.6,0.7-0.9,1.1c-0.1,0.2-0.3,0.4-0.4,0.5
			c-0.3,0.4-0.6,0.8-0.9,1.2c-0.1,0.2-0.3,0.4-0.4,0.5c-0.3,0.4-0.5,0.8-0.8,1.2c-0.1,0.2-0.3,0.4-0.4,0.6c-0.2,0.4-0.4,0.7-0.6,1.1
			l-0.1,0.1c-0.1,0.2-0.2,0.4-0.4,0.6c-0.2,0.4-0.4,0.8-0.7,1.3c-0.1,0.2-0.2,0.4-0.3,0.6c-0.2,0.4-0.4,0.9-0.6,1.3
			c-0.1,0.2-0.2,0.4-0.3,0.7c-0.2,0.4-0.3,0.9-0.5,1.3c-0.1,0.2-0.2,0.5-0.3,0.7c-0.2,0.4-0.3,0.9-0.5,1.3c-0.1,0.2-0.2,0.5-0.3,0.7
			c-0.1,0.5-0.3,0.9-0.4,1.4c-0.1,0.2-0.1,0.5-0.2,0.7c-0.1,0.5-0.2,0.9-0.3,1.4c-0.1,0.2-0.1,0.5-0.2,0.7c-0.1,0.5-0.2,0.9-0.2,1.4
			c0,0.3-0.1,0.5-0.1,0.8c-0.1,0.5-0.1,1-0.2,1.4c0,0.3-0.1,0.5-0.1,0.8c0,1,0,1.5,0,2c0,0.2,0,0.5-0.1,0.7c0,0.8-0.1,1.5-0.1,2.3
			c0,1.9,0.1,3.8,0.4,5.6h21.9C79.2,48.8,79,46.9,79,45c0-0.4,0-0.8,0-1.2v-0.1c0-0.4,0-0.7,0.1-1.1c0-0.2,0-0.4,0.1-0.6
			c0-0.2,0-0.4,0.1-0.6c0-0.3,0.1-0.5,0.1-0.7c0-0.1,0-0.3,0.1-0.4c0.1-0.4,0.1-0.7,0.2-1.1c0,0,0,0,0-0.1c0.1-0.3,0.2-0.7,0.3-1V38
			c1.5-5.7,4.8-10.5,9.6-13.6l0,0c0.3-0.2,0.6-0.4,0.9-0.6l0,0c0.3-0.2,0.6-0.3,0.9-0.5c0,0,0,0,0.1,0c0.1-0.1,0.3-0.1,0.4-0.2
			c0.2-0.1,0.3-0.2,0.5-0.2l0,0c0,0,0.1,0,0.1-0.1c0.3-0.1,0.6-0.3,0.9-0.4c0.1,0,0.1-0.1,0.2-0.1c0.3-0.1,0.6-0.2,0.9-0.3
			c0.1,0,0.2-0.1,0.2-0.1c0.3-0.1,0.6-0.2,0.9-0.2c0.1,0,0.2-0.1,0.3-0.1c0.3-0.1,0.5-0.1,0.8-0.2c0.1,0,0.3-0.1,0.4-0.1
			c0.3-0.1,0.5-0.1,0.8-0.1c0.1,0,0.3-0.1,0.4-0.1c0.2,0,0.5-0.1,0.7-0.1s0.3,0,0.5-0.1c0.2,0,0.5,0,0.7-0.1c0.2,0,0.4,0,0.6,0
			s0.5,0,0.7,0s0.4,0,0.6,0c0,0,0,0,0.1,0c14.4,0,23.3,11.3,23.2,24.4c0,1.9-0.2,3.7-0.6,5.5h21.9c0.2-1.8,0.4-3.6,0.4-5.4
			C147.3,20.4,127.5,1,102.4,0.9z"/>
	</g>
	<g>
		<path class="st1" d="M91.6,23.2C91.5,23.3,91.5,23.3,91.6,23.2C91.5,23.3,91.5,23.3,91.6,23.2z"/>
	</g>
	<g>
		<path class="st1" d="M93.7,22.3c-0.1,0-0.1,0-0.2,0.1C93.6,22.4,93.6,22.3,93.7,22.3z"/>
	</g>
	<g>
		<path class="st1" d="M62.8,23.8c0.1-0.2,0.2-0.4,0.4-0.6C63,23.4,62.9,23.6,62.8,23.8z"/>
	</g>
	<g>
		<path class="st1" d="M61.8,25.7c0.1-0.2,0.2-0.4,0.3-0.6C62,25.3,61.9,25.5,61.8,25.7z"/>
	</g>
	<g>
		<path class="st1" d="M60.9,27.7c0.1-0.2,0.2-0.4,0.3-0.7C61.1,27.2,61,27.4,60.9,27.7z"/>
	</g>
	<g>
		<path class="st1" d="M89.6,24.4L89.6,24.4L89.6,24.4z"/>
	</g>
	<g>
		<path class="st1" d="M90.5,23.8L90.5,23.8L90.5,23.8z"/>
	</g>
	<g>
		<path class="st1" d="M91.1,2.3c0.3-0.1,0.6-0.1,1-0.2C91.7,2.1,91.4,2.2,91.1,2.3z"/>
	</g>
	<g>
		<path class="st2" d="M80,38L80,38C79.9,38.1,79.9,38,80,38z"/>
	</g>
	<g>
		<path class="st1" d="M98.4,21.1c-0.1,0-0.3,0.1-0.4,0.1C98.1,21.1,98.3,21.1,98.4,21.1z"/>
	</g>
	<g>
		<path class="st1" d="M94.8,21.9c-0.1,0-0.2,0.1-0.2,0.1C94.7,22,94.8,21.9,94.8,21.9z"/>
	</g>
	<g>
		<path class="st1" d="M92.5,22.8C92.5,22.8,92.6,22.8,92.5,22.8C92.6,22.8,92.5,22.8,92.5,22.8L92.5,22.8z"/>
	</g>
	<g>
		<path class="st1" d="M97.2,21.3c-0.1,0-0.3,0.1-0.4,0.1C96.9,21.4,97.1,21.3,97.2,21.3z"/>
	</g>
	<g>
		<path class="st1" d="M101.7,20.8c0.2,0,0.5,0,0.7,0c0,0,0,0-0.1,0C102.1,20.8,101.9,20.8,101.7,20.8z"/>
	</g>
	<g>
		<path class="st1" d="M97.7,1.1c0.4,0,0.7-0.1,1.1-0.1C98.5,1.1,98.1,1.1,97.7,1.1z"/>
	</g>
	<g>
		<path class="st1" d="M88.9,2.8c0.3-0.1,0.6-0.2,0.9-0.2C89.5,2.7,89.2,2.7,88.9,2.8z"/>
	</g>
	<g>
		<path class="st1" d="M96,21.6c-0.1,0-0.2,0.1-0.3,0.1C95.8,21.6,95.9,21.6,96,21.6z"/>
	</g>
	<g>
		<path class="st2" d="M57.9,38.2c0-0.3,0.1-0.5,0.1-0.8C58,37.7,57.9,37.9,57.9,38.2z"/>
	</g>
	<g>
		<path class="st1" d="M93.2,1.8c0.3-0.1,0.7-0.1,1-0.2C93.9,1.7,93.6,1.7,93.2,1.8z"/>
	</g>
	<g>
		<path class="st2" d="M57.4,42.7c0-0.2,0-0.5,0.1-0.7C57.5,42.2,57.4,42.5,57.4,42.7z"/>
	</g>
	<g>
		<path class="st2" d="M57.6,40.4c0-0.3,0.1-0.5,0.1-0.8C57.7,39.9,57.6,40.2,57.6,40.4z"/>
	</g>
	<g>
		<path class="st1" d="M100,1c0.4,0,0.8,0,1.1,0C100.8,0.9,100.4,0.9,100,1z"/>
	</g>
	<g>
		<path class="st2" d="M79.1,43.9c0,0.4,0,0.8,0,1.2C79,44.7,79,44.3,79.1,43.9z"/>
	</g>
	<g>
		<path class="st1" d="M99.7,20.9c-0.2,0-0.3,0-0.5,0.1C99.3,21,99.5,20.9,99.7,20.9z"/>
	</g>
	<g>
		<path class="st1" d="M58.3,36c0.1-0.2,0.1-0.5,0.2-0.7C58.4,35.5,58.3,35.8,58.3,36z"/>
	</g>
	<g>
		<path class="st1" d="M58.8,33.8c0.1-0.2,0.1-0.5,0.2-0.7C58.9,33.4,58.8,33.6,58.8,33.8z"/>
	</g>
	<g>
		<path class="st1" d="M59.4,31.7c0.1-0.2,0.2-0.5,0.3-0.7C59.5,31.2,59.5,31.5,59.4,31.7z"/>
	</g>
	<g>
		<path class="st2" d="M79.4,40.3c0,0.1,0,0.3-0.1,0.4C79.4,40.6,79.4,40.4,79.4,40.3z"/>
	</g>
	<g>
		<path class="st2" d="M79.7,39.1C79.7,39.1,79.7,39.2,79.7,39.1C79.7,39.2,79.7,39.1,79.7,39.1z"/>
	</g>
	<g>
		<path class="st1" d="M101,20.8c-0.2,0-0.4,0-0.6,0C100.6,20.9,100.8,20.8,101,20.8z"/>
	</g>
	<g>
		<path class="st2" d="M79.1,42.7c0,0.4-0.1,0.7-0.1,1.1C79.1,43.4,79.1,43,79.1,42.7z"/>
	</g>
	<g>
		<path class="st1" d="M95.5,1.4c0.3-0.1,0.7-0.1,1.1-0.1C96.2,1.3,95.8,1.3,95.5,1.4z"/>
	</g>
	<g>
		<path class="st1" d="M60.1,29.7c0.1-0.2,0.2-0.5,0.3-0.7C60.3,29.2,60.2,29.4,60.1,29.7z"/>
	</g>
	<g>
		<path class="st2" d="M79.3,41.5c0,0.2,0,0.4-0.1,0.6C79.2,41.9,79.2,41.7,79.3,41.5z"/>
	</g>
	<g>
		<path class="st1" d="M80.8,6.1C81,6,81.3,5.9,81.5,5.7C81.3,5.9,81.1,6,80.8,6.1z"/>
	</g>
	<g>
		<path class="st1" d="M69,15.2c0.2-0.2,0.3-0.3,0.5-0.5C69.3,14.8,69.2,15,69,15.2z"/>
	</g>
	<g>
		<path class="st1" d="M67.6,16.8c0.1-0.2,0.3-0.3,0.5-0.5C67.9,16.4,67.7,16.6,67.6,16.8z"/>
	</g>
	<g>
		<path class="st1" d="M92.5,22.8L92.5,22.8L92.5,22.8L92.5,22.8z"/>
	</g>
	<g>
		<path class="st1" d="M72.1,12.2c0.2-0.2,0.4-0.3,0.5-0.4C72.4,11.9,72.2,12,72.1,12.2z"/>
	</g>
	<g>
		<path class="st1" d="M73.7,10.8c0.2-0.1,0.4-0.3,0.6-0.4C74.1,10.5,73.9,10.7,73.7,10.8z"/>
	</g>
	<g>
		<path class="st1" d="M65,20.1c0.1-0.2,0.3-0.4,0.4-0.5C65.3,19.8,65.1,20,65,20.1z"/>
	</g>
	<g>
		<path class="st1" d="M70.5,13.6c0.2-0.2,0.4-0.3,0.5-0.5C70.8,13.3,70.7,13.5,70.5,13.6z"/>
	</g>
	<g>
		<path class="st1" d="M66.3,18.4c0.1-0.2,0.3-0.4,0.4-0.5C66.6,18.1,66.4,18.2,66.3,18.4z"/>
	</g>
	<g>
		<path class="st1" d="M84.8,4.3c0.3-0.1,0.5-0.2,0.8-0.3C85.3,4.1,85,4.2,84.8,4.3z"/>
	</g>
	<g>
		<path class="st1" d="M86.8,3.5c0.3-0.1,0.6-0.2,0.9-0.3C87.4,3.3,87.1,3.4,86.8,3.5z"/>
	</g>
	<g>
		<path class="st1" d="M82.8,5.2c0.3-0.1,0.5-0.2,0.8-0.3C83.3,4.9,83,5,82.8,5.2z"/>
	</g>
	<g>
		<path class="st1" d="M63.9,21.9c0.1-0.2,0.3-0.4,0.4-0.6C64.1,21.5,64,21.7,63.9,21.9z"/>
	</g>
	<g>
		<path class="st1" d="M79,7.2c0.2-0.1,0.5-0.2,0.7-0.4C79.4,6.9,79.2,7,79,7.2z"/>
	</g>
	<g>
		<path class="st1" d="M75.4,9.5c0.2-0.1,0.4-0.3,0.6-0.4C75.8,9.2,75.6,9.4,75.4,9.5z"/>
	</g>
	<g>
		<path class="st1" d="M77.1,8.3c0.2-0.1,0.4-0.3,0.6-0.4C77.6,8,77.3,8.2,77.1,8.3z"/>
	</g>
</g>
<g>
	<path class="st0" d="M102.2,71.5c-11.3,0-19.2-7-22.1-16.3L58,55.1c3.7,20.8,21.9,36.2,44.1,36.3c22.3,0.1,40.5-15.3,44.3-36.1
		l-22.1-0.1C121.5,64.6,113.6,71.5,102.2,71.5z"/>
</g>
</svg>
